GeoramaExtraExtended-Light.ufo
<glyph name="exclam" format="2">
  <advance width="346.8"/>
  <unicode hex="0021"/>
  <outline>
    <contour>
      <point x="141.0" y="263.0" type="line"/>
      <point x="207.2" y="263.0" type="line"/>
      <point x="211.20000000000002" y="740.0" type="line"/>
      <point x="137.0" y="740.0" type="line"/>
    </contour>
    <contour>
      <point x="127.20000000000002" y="34.2" type="curve" smooth="yes"/>
      <point x="127.20000000000002" y="6.4"/>
      <point x="137.79999999999998" y="-2.2"/>
      <point x="173.4" y="-2.2" type="curve" smooth="yes"/>
      <point x="209.8" y="-2.2"/>
      <point x="219.6" y="6.4"/>
      <point x="219.6" y="34.2" type="curve" smooth="yes"/>
      <point x="219.6" y="62.2"/>
      <point x="209.8" y="70.8"/>
      <point x="173.4" y="70.8" type="curve" smooth="yes"/>
      <point x="137.0" y="70.8"/>
      <point x="127.20000000000002" y="62.2"/>
    </contour>
  </outline>
</glyph>
<glyph name="numbersign" format="2">
  <advance width="1037.2"/>
  <unicode hex="0023"/>
  <outline>
    <contour>
      <point x="164.20000000000002" y="463.59999999999997" type="line"/>
      <point x="336.2" y="463.59999999999997" type="line"/>
      <point x="271.20000000000005" y="224.6" type="line"/>
      <point x="108.6" y="224.6" type="line"/>
      <point x="108.6" y="177.8" type="line"/>
      <point x="258.79999999999995" y="177.8" type="line"/>
      <point x="211.4" y="0.0" type="line"/>
      <point x="289.40000000000003" y="0.0" type="line"/>
      <point x="336.79999999999995" y="177.8" type="line"/>
      <point x="614.2" y="177.8" type="line"/>
      <point x="566.8" y="0.0" type="line"/>
      <point x="644.8" y="0.0" type="line"/>
      <point x="692.2" y="177.8" type="line"/>
      <point x="873.2" y="177.8" type="line"/>
      <point x="873.2" y="224.6" type="line"/>
      <point x="704.6" y="224.6" type="line"/>
      <point x="769.6" y="463.59999999999997" type="line"/>
      <point x="928.8000000000001" y="463.59999999999997" type="line"/>
      <point x="928.8000000000001" y="510.0" type="line"/>
      <point x="781.0" y="510.0" type="line"/>
      <point x="833.0" y="700.0" type="line"/>
      <point x="755.0" y="700.0" type="line"/>
      <point x="703.0" y="510.0" type="line"/>
      <point x="425.6" y="510.0" type="line"/>
      <point x="477.6" y="700.0" type="line"/>
      <point x="399.6" y="700.0" type="line"/>
      <point x="347.6" y="510.0" type="line"/>
      <point x="164.20000000000002" y="510.0" type="line"/>
    </contour>
    <contour>
      <point x="414.2" y="463.59999999999997" type="line"/>
      <point x="691.6" y="463.59999999999997" type="line"/>
      <point x="626.6" y="224.6" type="line"/>
      <point x="349.20000000000005" y="224.6" type="line"/>
    </contour>
  </outline>
</glyph>
<glyph name="dollar" format="2">
  <advance width="1037.2"/>
  <unicode hex="0024"/>
  <outline>
    <contour>
      <point x="522.0" y="-10.0" type="curve" smooth="yes"/>
      <point x="803.8000000000001" y="-12.399999999999999"/>
      <point x="940.5999999999999" y="47.8"/>
      <point x="940.5999999999999" y="190.20000000000002" type="curve" smooth="yes"/>
      <point x="940.5999999999999" y="311.2"/>
      <point x="830.2" y="354.79999999999995"/>
      <point x="576.6" y="380.59999999999997" type="curve" smooth="yes"/>
      <point x="337.0" y="405.40000000000003"/>
      <point x="228.8" y="432.0"/>
      <point x="228.8" y="518.4" type="curve" smooth="yes"/>
      <point x="228.8" y="605.4"/>
      <point x="340.99999999999994" y="650.8"/>
      <point x="542.8000000000001" y="650.8" type="curve" smooth="yes"/>
      <point x="640.8" y="650.8"/>
      <point x="781.8" y="630.6"/>
      <point x="879.6" y="603.0" type="curve"/>
      <point x="893.5999999999999" y="663.0000000000001" type="line"/>
      <point x="793.6" y="690.8"/>
      <point x="653.6" y="710.0"/>
      <point x="542.4" y="710.0" type="curve" smooth="yes"/>
      <point x="291.2" y="708.4"/>
      <point x="151.0" y="645.2"/>
      <point x="151.0" y="511.6" type="curve" smooth="yes"/>
      <point x="151.0" y="389.0"/>
      <point x="262.8" y="344.40000000000003"/>
      <point x="505.8" y="319.8" type="curve" smooth="yes"/>
      <point x="751.2" y="294.20000000000005"/>
      <point x="862.1999999999999" y="269.59999999999997"/>
      <point x="862.1999999999999" y="184.2" type="curve" smooth="yes"/>
      <point x="862.1999999999999" y="87.39999999999999"/>
      <point x="763.0" y="47.6"/>
      <point x="538.8000000000001" y="47.6" type="curve" smooth="yes"/>
      <point x="418.6" y="47.6"/>
      <point x="236.6" y="76.8"/>
      <point x="111.80000000000001" y="115.6" type="curve"/>
      <point x="97.0" y="56.0" type="line"/>
      <point x="219.0" y="18.2"/>
      <point x="397.2" y="-9.2"/>
    </contour>
    <contour>
      <point x="513.2" y="-105.0" type="line"/>
      <point x="569.6000000000001" y="-105.0" type="line"/>
      <point x="569.6000000000001" y="-1.3999999999999997" type="line"/>
      <point x="513.2" y="-2.5999999999999996" type="line"/>
    </contour>
    <contour>
      <point x="513.2" y="702.2" type="line"/>
      <point x="569.6000000000001" y="702.6" type="line"/>
      <point x="569.6000000000001" y="805.0" type="line"/>
      <point x="513.2" y="805.0" type="line"/>
    </contour>
  </outline>
</glyph>
<glyph name="ampersand" format="2">
  <advance width="1029.0"/>
  <unicode hex="0026"/>
  <outline>
    <contour>
      <point x="942.4" y="-7.4" type="line"/>
      <point x="1028.8" y="7.4" type="line"/>
      <point x="352.6" y="411.8" type="line" smooth="yes"/>
      <point x="286.8" y="451.0"/>
      <point x="250.79999999999998" y="491.59999999999997"/>
      <point x="250.79999999999998" y="539.4" type="curve" smooth="yes"/>
      <point x="250.79999999999998" y="612.8"/>
      <point x="329.8" y="658.0"/>
      <point x="489.4" y="658.0" type="curve" smooth="yes"/>
      <point x="629.6" y="658.0"/>
      <point x="713.8" y="616.0"/>
      <point x="713.8" y="537.0" type="curve" smooth="yes"/>
      <point x="713.8" y="474.8"/>
      <point x="673.0" y="436.8"/>
      <point x="581.4" y="421.2" type="curve"/>
      <point x="620.6" y="385.4" type="line"/>
      <point x="735.4000000000001" y="411.40000000000003"/>
      <point x="786.2" y="462.2"/>
      <point x="786.2" y="544.1999999999999" type="curve" smooth="yes"/>
      <point x="786.2" y="652.6"/>
      <point x="682.1999999999999" y="710.0"/>
      <point x="487.40000000000003" y="710.0" type="curve" smooth="yes"/>
      <point x="270.8" y="710.0"/>
      <point x="174.8" y="640.2"/>
      <point x="174.8" y="539.4" type="curve" smooth="yes"/>
      <point x="174.8" y="476.8"/>
      <point x="207.0" y="427.4"/>
      <point x="274.4" y="386.2" type="curve" smooth="yes"/>
    </contour>
    <contour>
      <point x="443.2" y="-10.0" type="curve" smooth="yes"/>
      <point x="579.4" y="-10.0"/>
      <point x="704.0" y="25.799999999999997"/>
      <point x="789.2" y="88.0" type="curve"/>
      <point x="745.0" y="124.19999999999999" type="line"/>
      <point x="678.1999999999999" y="73.8"/>
      <point x="575.1999999999999" y="42.8"/>
      <point x="450.4" y="42.8" type="curve" smooth="yes"/>
      <point x="255.6" y="42.8"/>
      <point x="137.0" y="103.39999999999999"/>
      <point x="137.0" y="210.4" type="curve" smooth="yes"/>
      <point x="137.0" y="288.0"/>
      <point x="198.20000000000002" y="341.59999999999997"/>
      <point x="314.2" y="369.8" type="curve"/>
      <point x="269.0" y="401.20000000000005" type="line"/>
      <point x="133.2" y="368.40000000000003"/>
      <point x="65.0" y="301.8"/>
      <point x="65.0" y="203.20000000000002" type="curve" smooth="yes"/>
      <point x="65.0" y="68.39999999999999"/>
      <point x="201.0" y="-10.0"/>
    </contour>
    <contour>
      <point x="830.8000000000001" y="109.8" type="line"/>
      <point x="895.8000000000001" y="166.4"/>
      <point x="933.6" y="236.4"/>
      <point x="933.6" y="319.4" type="curve" smooth="yes"/>
      <point x="933.6" y="341.0"/>
      <point x="930.0" y="357.2"/>
      <point x="923.6" y="377.2" type="curve"/>
      <point x="865.8" y="371.8" type="line"/>
      <point x="872.2" y="351.40000000000003"/>
      <point x="874.4" y="334.8"/>
      <point x="873.6" y="319.0" type="curve" smooth="yes"/>
      <point x="870.8000000000001" y="250.8"/>
      <point x="845.0" y="192.8"/>
      <point x="783.4" y="140.6" type="curve"/>
    </contour>
  </outline>
</glyph>
<glyph name="quotesingle" format="2">
  <advance width="212.4"/>
  <unicode hex="0027"/>
  <outline>
    <contour>
      <point x="78.4" y="427.0" type="line"/>
      <point x="134.0" y="427.0" type="line"/>
      <point x="140.0" y="700.0" type="line"/>
      <point x="72.4" y="700.0" type="line"/>
    </contour>
  </outline>
</glyph>
<glyph name="parenleft" format="2">
  <advance width="472.8"/>
  <unicode hex="0028"/>
  <outline>
    <contour>
      <point x="134.8" y="265.0" type="curve" smooth="yes"/>
      <point x="134.8" y="31.599999999999998"/>
      <point x="224.20000000000002" y="-183.4"/>
      <point x="438.0" y="-220.0" type="curve"/>
      <point x="438.0" y="-170.39999999999998" type="line"/>
      <point x="271.8" y="-133.79999999999998"/>
      <point x="199.20000000000002" y="50.199999999999996"/>
      <point x="199.20000000000002" y="265.0" type="curve" smooth="yes"/>
      <point x="199.20000000000002" y="479.80000000000007"/>
      <point x="271.8" y="663.8000000000001"/>
      <point x="438.0" y="700.4000000000001" type="curve"/>
      <point x="438.0" y="750.0" type="line"/>
      <point x="224.20000000000002" y="713.4"/>
      <point x="134.8" y="498.40000000000003"/>
    </contour>
  </outline>
</glyph>
<glyph name="parenright" format="2">
  <advance width="472.8"/>
  <unicode hex="0029"/>
  <outline>
    <contour>
      <point x="34.800000000000004" y="-170.39999999999998" type="curve"/>
      <point x="34.800000000000004" y="-220.0" type="line"/>
      <point x="248.6" y="-183.4"/>
      <point x="338.0" y="31.599999999999998"/>
      <point x="338.0" y="265.0" type="curve" smooth="yes"/>
      <point x="338.0" y="498.40000000000003"/>
      <point x="248.6" y="713.4"/>
      <point x="34.800000000000004" y="750.0" type="curve"/>
      <point x="34.800000000000004" y="700.4000000000001" type="line"/>
      <point x="201.0" y="663.8000000000001"/>
      <point x="273.59999999999997" y="479.80000000000007"/>
      <point x="273.59999999999997" y="265.0" type="curve" smooth="yes"/>
      <point x="273.59999999999997" y="50.199999999999996"/>
      <point x="201.0" y="-133.79999999999998"/>
    </contour>
  </outline>
</glyph>
<glyph name="asterisk" format="2">
  <advance width="472.8"/>
  <unicode hex="002A"/>
  <outline>
    <contour>
      <point x="114.8" y="305.2" type="line"/>
      <point x="237.20000000000002" y="464.40000000000003" type="line"/>
      <point x="356.4" y="304.4" type="line"/>
      <point x="385.8" y="324.8" type="line"/>
      <point x="272.59999999999997" y="491.40000000000003" type="line"/>
      <point x="459.59999999999997" y="553.8" type="line"/>
      <point x="448.40000000000003" y="587.4" type="line"/>
      <point x="260.0" y="533.8" type="line"/>
      <point x="257.0" y="730.0" type="line"/>
      <point x="217.4" y="730.0" type="line"/>
      <point x="214.39999999999998" y="533.8" type="line"/>
      <point x="24.400000000000002" y="587.4" type="line"/>
      <point x="13.2" y="553.8" type="line"/>
      <point x="201.8" y="491.40000000000003" type="line"/>
      <point x="84.6" y="326.4" type="line"/>
    </contour>
  </outline>
</glyph>
<glyph name="plus" format="2">
  <advance width="604.4"/>
  <unicode hex="002B"/>
  <outline>
    <contour>
      <point x="269.6" y="75.0" type="line"/>
      <point x="334.6" y="75.0" type="line"/>
      <point x="334.6" y="266.4" type="line"/>
      <point x="542.0" y="266.4" type="line"/>
      <point x="542.0" y="323.4" type="line"/>
      <point x="334.6" y="323.4" type="line"/>
      <point x="334.6" y="514.6" type="line"/>
      <point x="269.6" y="514.6" type="line"/>
      <point x="269.6" y="323.4" type="line"/>
      <point x="62.4" y="323.4" type="line"/>
      <point x="62.4" y="266.4" type="line"/>
      <point x="269.6" y="266.4" type="line"/>
    </contour>
  </outline>
</glyph>
<glyph name="comma" format="2">
  <advance width="254.8"/>
  <unicode hex="002C"/>
  <outline>
    <contour>
      <point x="97.0" y="44.6" type="line"/>
      <point x="105.4" y="24.200000000000003"/>
      <point x="110.39999999999999" y="2.0"/>
      <point x="110.39999999999999" y="-20.799999999999997" type="curve" smooth="yes"/>
      <point x="110.39999999999999" y="-82.2"/>
      <point x="80.2" y="-149.2"/>
      <point x="20.599999999999998" y="-181.79999999999998" type="curve"/>
      <point x="73.4" y="-200.0" type="line"/>
      <point x="145.8" y="-165.4"/>
      <point x="182.8" y="-89.6"/>
      <point x="182.8" y="-20.599999999999998" type="curve" smooth="yes"/>
      <point x="182.8" y="6.6"/>
      <point x="177.20000000000002" y="31.8"/>
      <point x="166.79999999999998" y="52.0" type="curve"/>
    </contour>
  </outline>
</glyph>
<glyph name="hyphen" format="2">
  <advance width="452.79999999999995"/>
  <unicode hex="002D"/>
  <outline>
    <contour>
      <point x="60.4" y="250.8" type="line"/>
      <point x="392.40000000000003" y="250.8" type="line"/>
      <point x="392.40000000000003" y="308.40000000000003" type="line"/>
      <point x="60.4" y="308.40000000000003" type="line"/>
    </contour>
  </outline>
</glyph>
<glyph name="period" format="2">
  <advance width="258.0"/>
  <unicode hex="002E"/>
  <outline>
    <contour>
      <point x="83.2" y="34.2" type="curve" smooth="yes"/>
      <point x="83.2" y="6.4"/>
      <point x="93.8" y="-2.2"/>
      <point x="129.4" y="-2.2" type="curve" smooth="yes"/>
      <point x="165.79999999999998" y="-2.2"/>
      <point x="175.60000000000002" y="6.4"/>
      <point x="175.60000000000002" y="34.2" type="curve" smooth="yes"/>
      <point x="175.60000000000002" y="62.2"/>
      <point x="165.79999999999998" y="70.80000000000001"/>
      <point x="129.4" y="70.80000000000001" type="curve" smooth="yes"/>
      <point x="93.0" y="70.80000000000001"/>
      <point x="83.2" y="62.2"/>
    </contour>
  </outline>
</glyph>
<glyph name="slash" format="2">
  <advance width="482.6"/>
  <unicode hex="002F"/>
  <outline>
    <contour>
      <point x="10.0" y="-210.0" type="line"/>
      <point x="72.6" y="-210.0" type="line"/>
      <point x="472.59999999999997" y="740.0" type="line"/>
      <point x="410.0" y="740.0" type="line"/>
    </contour>
  </outline>
</glyph>
<glyph name="zero" format="2">
  <advance width="1037.2"/>
  <unicode hex="0030"/>
  <outline>
    <contour>
      <point x="50.6" y="350.0" type="curve" smooth="yes"/>
      <point x="50.6" y="69.0"/>
      <point x="272.59999999999997" y="-10.0"/>
      <point x="518.6" y="-10.0" type="curve" smooth="yes"/>
      <point x="765.0" y="-10.0"/>
      <point x="986.6" y="69.0"/>
      <point x="986.6" y="350.0" type="curve" smooth="yes"/>
      <point x="986.6" y="631.0"/>
      <point x="765.0" y="710.0"/>
      <point x="518.6" y="710.0" type="curve" smooth="yes"/>
      <point x="272.59999999999997" y="710.0"/>
      <point x="50.6" y="631.0"/>
    </contour>
    <contour>
      <point x="129.8" y="350.0" type="curve" smooth="yes"/>
      <point x="129.8" y="586.1999999999999"/>
      <point x="313.8" y="654.8"/>
      <point x="518.6" y="654.8" type="curve" smooth="yes"/>
      <point x="723.8000000000001" y="654.8"/>
      <point x="907.8000000000001" y="586.1999999999999"/>
      <point x="907.8000000000001" y="350.0" type="curve" smooth="yes"/>
      <point x="907.8000000000001" y="113.80000000000001"/>
      <point x="723.8000000000001" y="45.2"/>
      <point x="518.6" y="45.2" type="curve" smooth="yes"/>
      <point x="313.8" y="45.2"/>
      <point x="129.8" y="113.8"/>
    </contour>
  </outline>
</glyph>
<glyph name="one" format="2">
  <advance width="1037.2"/>
  <unicode hex="0031"/>
  <outline>
    <contour>
      <point x="107.2" y="0.0" type="line"/>
      <point x="991.6" y="0.0" type="line"/>
      <point x="991.6" y="58.0" type="line"/>
      <point x="629.2" y="58.0" type="line"/>
      <point x="629.2" y="708.0" type="line"/>
      <point x="589.2" y="708.0" type="line"/>
      <point x="98.0" y="508.4" type="line"/>
      <point x="118.6" y="452.99999999999994" type="line"/>
      <point x="551.6" y="630.6" type="line"/>
      <point x="551.6" y="58.0" type="line"/>
      <point x="107.2" y="58.0" type="line"/>
    </contour>
  </outline>
</glyph>
<glyph name="two" format="2">
  <advance width="1037.2"/>
  <unicode hex="0032"/>
  <outline>
    <contour>
      <point x="97.6" y="45.400000000000006" type="curve"/>
      <point x="101.6" y="0.0" type="line"/>
      <point x="956.1999999999999" y="0.0" type="line"/>
      <point x="956.1999999999999" y="58.0" type="line"/>
      <point x="250.20000000000002" y="58.0" type="line"/>
      <point x="716.8" y="258.59999999999997"/>
      <point x="824.6" y="344.4"/>
      <point x="824.6" y="487.6" type="curve" smooth="yes"/>
      <point x="824.6" y="627.6"/>
      <point x="713.5999999999999" y="710.0"/>
      <point x="487.40000000000003" y="710.0" type="curve" smooth="yes"/>
      <point x="368.8" y="710.0"/>
      <point x="235.20000000000002" y="682.6"/>
      <point x="143.2" y="640.2" type="curve"/>
      <point x="164.8" y="585.0" type="line"/>
      <point x="257.40000000000003" y="625.1999999999999"/>
      <point x="372.20000000000005" y="648.8"/>
      <point x="481.8" y="648.8" type="curve" smooth="yes"/>
      <point x="666.0" y="648.8"/>
      <point x="747.4000000000001" y="586.0"/>
      <point x="747.4000000000001" y="481.59999999999997" type="curve" smooth="yes"/>
      <point x="747.4000000000001" y="359.8"/>
      <point x="641.6" y="285.2"/>
    </contour>
  </outline>
</glyph>
<glyph name="three" format="2">
  <advance width="1037.2"/>
  <unicode hex="0033"/>
  <outline>
    <contour>
      <point x="47.99999999999999" y="78.2" type="line"/>
      <point x="173.6" y="18.6"/>
      <point x="296.0" y="-9.0"/>
      <point x="471.8" y="-9.0" type="curve" smooth="yes"/>
      <point x="777.8000000000001" y="-9.0"/>
      <point x="951.0" y="71.8"/>
      <point x="951.0" y="209.99999999999997" type="curve" smooth="yes"/>
      <point x="951.0" y="303.99999999999994"/>
      <point x="857.6" y="363.40000000000003"/>
      <point x="689.6" y="369.4" type="curve"/>
      <point x="813.8" y="382.0"/>
      <point x="884.8" y="438.0"/>
      <point x="884.8" y="526.0" type="curve" smooth="yes"/>
      <point x="884.8" y="643.6"/>
      <point x="766.2" y="710.0"/>
      <point x="492.40000000000003" y="710.0" type="curve" smooth="yes"/>
      <point x="355.99999999999994" y="710.0"/>
      <point x="220.20000000000002" y="691.5999999999999"/>
      <point x="118.0" y="664.4" type="curve"/>
      <point x="129.6" y="607.6" type="line"/>
      <point x="236.2" y="634.3999999999999"/>
      <point x="360.0" y="651.6"/>
      <point x="482.0" y="651.6" type="curve" smooth="yes"/>
      <point x="705.8" y="651.6"/>
      <point x="809.1999999999999" y="603.6"/>
      <point x="809.1999999999999" y="516.4" type="curve" smooth="yes"/>
      <point x="809.1999999999999" y="433.8"/>
      <point x="714.0" y="390.99999999999994"/>
      <point x="522.3999999999999" y="390.99999999999994" type="curve" smooth="yes"/>
      <point x="284.20000000000005" y="390.99999999999994" type="line"/>
      <point x="284.20000000000005" y="339.0" type="line"/>
      <point x="513.4" y="339.0" type="line" smooth="yes"/>
      <point x="752.8" y="339.0"/>
      <point x="873.0" y="304.0"/>
      <point x="873.0" y="213.2" type="curve" smooth="yes"/>
      <point x="873.0" y="109.6"/>
      <point x="729.6" y="49.00000000000001"/>
      <point x="469.40000000000003" y="49.00000000000001" type="curve" smooth="yes"/>
      <point x="307.8" y="49.00000000000001"/>
      <point x="184.0" y="75.2"/>
      <point x="65.0" y="131.0" type="curve"/>
    </contour>
  </outline>
</glyph>
<glyph name="four" format="2">
  <advance width="1037.2"/>
  <unicode hex="0034"/>
  <outline>
    <contour>
      <point x="41.8" y="187.20000000000002" type="line"/>
      <point x="705.8000000000001" y="187.20000000000002" type="line"/>
      <point x="705.8000000000001" y="0.0" type="line"/>
      <point x="781.0" y="0.0" type="line"/>
      <point x="781.0" y="187.20000000000002" type="line"/>
      <point x="997.5999999999999" y="187.20000000000002" type="line"/>
      <point x="997.5999999999999" y="239.20000000000002" type="line"/>
      <point x="781.0" y="239.20000000000002" type="line"/>
      <point x="781.0" y="700.0" type="line"/>
      <point x="732.6" y="708.0" type="line"/>
      <point x="38.6" y="237.0" type="line"/>
    </contour>
    <contour>
      <point x="133.2" y="239.20000000000002" type="line"/>
      <point x="705.8000000000001" y="625.4" type="line"/>
      <point x="705.8000000000001" y="239.20000000000002" type="line"/>
    </contour>
  </outline>
</glyph>
<glyph name="five" format="2">
  <advance width="1037.2"/>
  <unicode hex="0035"/>
  <outline>
    <contour>
      <point x="72.0" y="78.0" type="line"/>
      <point x="182.8" y="21.799999999999997"/>
      <point x="291.59999999999997" y="-9.2"/>
      <point x="489.0" y="-9.2" type="curve" smooth="yes"/>
      <point x="801.4" y="-9.2"/>
      <point x="948.4000000000001" y="71.6"/>
      <point x="948.4000000000001" y="225.2" type="curve" smooth="yes"/>
      <point x="948.4000000000001" y="369.79999999999995"/>
      <point x="849.8000000000001" y="419.59999999999997"/>
      <point x="630.5999999999999" y="419.6" type="curve" smooth="yes"/>
      <point x="198.0" y="419.59999999999997" type="line"/>
      <point x="242.0" y="642.0" type="line"/>
      <point x="883.8" y="642.0" type="line"/>
      <point x="883.8" y="700.0" type="line"/>
      <point x="188.2" y="700.0" type="line"/>
      <point x="127.0" y="377.0" type="line"/>
      <point x="137.2" y="366.8" type="line"/>
      <point x="599.5999999999999" y="366.8" type="line" smooth="yes"/>
      <point x="806.0" y="366.8"/>
      <point x="872.4" y="325.2"/>
      <point x="872.4" y="222.6" type="curve" smooth="yes"/>
      <point x="872.4" y="108.2"/>
      <point x="764.4" y="47.4"/>
      <point x="486.6" y="47.4" type="curve" smooth="yes"/>
      <point x="296.0" y="47.4"/>
      <point x="190.0" y="79.2"/>
      <point x="90.4" y="129.6" type="curve"/>
    </contour>
  </outline>
</glyph>
<glyph name="six" format="2">
  <advance width="1037.2"/>
  <unicode hex="0036"/>
  <outline>
    <contour>
      <point x="552.1999999999999" y="-10.0" type="curve" smooth="yes"/>
      <point x="828.4000000000001" y="-10.0"/>
      <point x="984.6" y="75.4"/>
      <point x="984.6" y="225.4" type="curve" smooth="yes"/>
      <point x="984.6" y="371.0"/>
      <point x="840.2" y="442.8"/>
      <point x="597.4" y="442.8" type="curve" smooth="yes"/>
      <point x="418.40000000000003" y="442.8"/>
      <point x="228.0" y="402.4"/>
      <point x="122.2" y="343.8" type="curve"/>
      <point x="123.6" y="287.8" type="line"/>
      <point x="223.8" y="342.2"/>
      <point x="406.0" y="385.6"/>
      <point x="576.2" y="385.6" type="curve" smooth="yes"/>
      <point x="782.6" y="385.6"/>
      <point x="906.6" y="335.8"/>
      <point x="906.6" y="225.0" type="curve" smooth="yes"/>
      <point x="906.6" y="112.6"/>
      <point x="781.4" y="47.6"/>
      <point x="559.0" y="47.6" type="curve" smooth="yes"/>
      <point x="267.59999999999997" y="47.6"/>
      <point x="133.2" y="148.4"/>
      <point x="133.2" y="346.0" type="curve" smooth="yes"/>
      <point x="133.2" y="546.5999999999999"/>
      <point x="288.0" y="650.0"/>
      <point x="576.0" y="650.0" type="curve" smooth="yes"/>
      <point x="704.4000000000001" y="650.0"/>
      <point x="811.4" y="634.0"/>
      <point x="929.6" y="610.0" type="curve"/>
      <point x="941.5999999999999" y="668.4000000000001" type="line"/>
      <point x="829.9999999999999" y="693.4"/>
      <point x="712.1999999999999" y="710.0"/>
      <point x="568.3999999999999" y="710.0" type="curve" smooth="yes"/>
      <point x="238.60000000000002" y="710.0"/>
      <point x="55.2" y="581.0"/>
      <point x="55.2" y="345.6" type="curve" smooth="yes"/>
      <point x="55.2" y="109.80000000000001"/>
      <point x="213.6" y="-10.0"/>
    </contour>
  </outline>
</glyph>
<glyph name="seven" format="2">
  <advance width="1037.2"/>
  <unicode hex="0037"/>
  <outline>
    <contour>
      <point x="364.0" y="0.0" type="curve"/>
      <point x="444.0" y="0.0" type="line"/>
      <point x="445.59999999999997" y="125.6"/>
      <point x="504.8" y="219.8"/>
      <point x="627.8000000000001" y="342.8" type="curve" smooth="yes"/>
      <point x="937.2" y="651.8" type="line"/>
      <point x="937.2" y="700.0" type="line"/>
      <point x="90.2" y="700.0" type="line"/>
      <point x="90.2" y="640.0" type="line"/>
      <point x="837.2" y="640.0" type="line"/>
      <point x="584.6" y="390.4" type="line" smooth="yes"/>
      <point x="411.6" y="219.79999999999998"/>
      <point x="364.0" y="139.6"/>
    </contour>
  </outline>
</glyph>
<glyph name="eight" format="2">
  <advance width="1037.2"/>
  <unicode hex="0038"/>
  <outline>
    <contour>
      <point x="696.6" y="371.79999999999995" type="curve"/>
      <point x="767.8" y="356.4" type="line"/>
      <point x="894.2" y="400.8"/>
      <point x="943.9999999999999" y="463.8"/>
      <point x="943.9999999999999" y="535.2" type="curve" smooth="yes"/>
      <point x="943.9999999999999" y="648.6"/>
      <point x="800.8" y="710.0"/>
      <point x="522.8" y="710.0" type="curve" smooth="yes"/>
      <point x="245.6" y="710.0"/>
      <point x="90.80000000000001" y="646.6"/>
      <point x="90.80000000000001" y="525.8" type="curve" smooth="yes"/>
      <point x="90.80000000000001" y="218.79999999999998"/>
      <point x="921.0000000000001" y="454.8"/>
      <point x="921.0000000000001" y="200.6" type="curve" smooth="yes"/>
      <point x="921.0000000000001" y="93.2"/>
      <point x="775.4000000000001" y="41.2"/>
      <point x="516.8" y="41.2" type="curve" smooth="yes"/>
      <point x="255.99999999999997" y="41.2"/>
      <point x="115.4" y="100.2"/>
      <point x="115.4" y="204.20000000000002" type="curve" smooth="yes"/>
      <point x="115.4" y="278.2"/>
      <point x="187.20000000000002" y="338.4"/>
      <point x="324.8" y="377.2" type="curve"/>
      <point x="253.00000000000003" y="401.6" type="line"/>
      <point x="106.4" y="357.8"/>
      <point x="36.6" y="287.0"/>
      <point x="36.6" y="198.4" type="curve" smooth="yes"/>
      <point x="36.6" y="64.4"/>
      <point x="199.8" y="-10.0"/>
      <point x="508.4" y="-10.0" type="curve" smooth="yes"/>
      <point x="826.6" y="-10.0"/>
      <point x="1001.0" y="60.8"/>
      <point x="1001.0" y="208.2" type="curve" smooth="yes"/>
      <point x="1001.0" y="522.4"/>
      <point x="165.6" y="295.20000000000005"/>
      <point x="165.6" y="529.2" type="curve" smooth="yes"/>
      <point x="165.6" y="612.8"/>
      <point x="289.2" y="656.4"/>
      <point x="518.8000000000001" y="656.4" type="curve" smooth="yes"/>
      <point x="752.4000000000001" y="656.4"/>
      <point x="869.2" y="611.2"/>
      <point x="869.2" y="527.2" type="curve" smooth="yes"/>
      <point x="869.2" y="466.59999999999997"/>
      <point x="828.8000000000001" y="421.40000000000003"/>
    </contour>
  </outline>
</glyph>
<glyph name="nine" format="2">
  <advance width="1037.2"/>
  <unicode hex="0039"/>
  <outline>
    <contour>
      <point x="469.0" y="-10.0" type="curve" smooth="yes"/>
      <point x="798.8000000000001" y="-10.0"/>
      <point x="978.2" y="117.8"/>
      <point x="978.2" y="351.59999999999997" type="curve" smooth="yes"/>
      <point x="978.2" y="589.4000000000001"/>
      <point x="819.8000000000001" y="710.0"/>
      <point x="513.2" y="710.0" type="curve" smooth="yes"/>
      <point x="224.2" y="710.0"/>
      <point x="48.800000000000004" y="628.6"/>
      <point x="48.800000000000004" y="474.79999999999995" type="curve" smooth="yes"/>
      <point x="48.800000000000004" y="333.0"/>
      <point x="196.39999999999998" y="257.2"/>
      <point x="432.0" y="257.2" type="curve" smooth="yes"/>
      <point x="615.0" y="257.2"/>
      <point x="805.4000000000001" y="295.6"/>
      <point x="911.2" y="354.6" type="curve"/>
      <point x="909.8000000000001" y="409.40000000000003" type="line"/>
      <point x="809.6" y="355.0"/>
      <point x="627.4" y="311.99999999999994"/>
      <point x="457.2" y="311.99999999999994" type="curve" smooth="yes"/>
      <point x="262.00000000000006" y="311.99999999999994"/>
      <point x="126.8" y="369.4"/>
      <point x="126.8" y="476.0" type="curve" smooth="yes"/>
      <point x="126.8" y="592.6"/>
      <point x="271.20000000000005" y="652.8"/>
      <point x="506.4" y="652.8" type="curve" smooth="yes"/>
      <point x="765.8" y="652.8"/>
      <point x="901.0" y="552.0"/>
      <point x="901.0" y="354.0" type="curve" smooth="yes"/>
      <point x="901.0" y="153.39999999999998"/>
      <point x="749.4" y="48.4"/>
      <point x="461.40000000000003" y="48.4" type="curve" smooth="yes"/>
      <point x="341.0" y="48.4"/>
      <point x="230.0" y="66.0"/>
      <point x="103.8" y="89.6" type="curve"/>
      <point x="91.8" y="31.999999999999996" type="line"/>
      <point x="211.39999999999998" y="6.6000000000000005"/>
      <point x="333.2" y="-10.0"/>
    </contour>
  </outline>
</glyph>
<glyph name="less" format="2">
  <advance width="604.4"/>
  <unicode hex="003C"/>
  <outline>
    <contour>
      <point x="542.0" y="59.4" type="line"/>
      <point x="542.0" y="119.60000000000001" type="line"/>
      <point x="129.2" y="294.79999999999995" type="line"/>
      <point x="542.0" y="471.4" type="line"/>
      <point x="542.0" y="531.2" type="line"/>
      <point x="62.400000000000006" y="323.0" type="line"/>
      <point x="62.400000000000006" y="266.0" type="line"/>
    </contour>
  </outline>
</glyph>
<glyph name="equal" format="2">
  <advance width="604.4"/>
  <unicode hex="003D"/>
  <outline>
    <contour>
      <point x="542.0" y="216.60000000000002" type="line"/>
      <point x="62.4" y="216.60000000000002" type="line"/>
      <point x="62.4" y="159.60000000000002" type="line"/>
      <point x="542.0" y="159.60000000000002" type="line"/>
    </contour>
    <contour>
      <point x="542.0" y="432.6" type="line"/>
      <point x="62.4" y="432.6" type="line"/>
      <point x="62.4" y="375.6" type="line"/>
      <point x="542.0" y="375.6" type="line"/>
    </contour>
  </outline>
</glyph>
<glyph name="greater" format="2">
  <advance width="604.4"/>
  <unicode hex="003E"/>
  <outline>
    <contour>
      <point x="542.0" y="266.0" type="line"/>
      <point x="542.0" y="323.0" type="line"/>
      <point x="62.400000000000006" y="531.2" type="line"/>
      <point x="62.400000000000006" y="470.6" type="line"/>
      <point x="475.2" y="294.8" type="line"/>
      <point x="62.400000000000006" y="119.60000000000001" type="line"/>
      <point x="62.400000000000006" y="59.4" type="line"/>
    </contour>
  </outline>
</glyph>
<glyph name="question" format="2">
  <advance width="690.0"/>
  <unicode hex="003F"/>
  <outline>
    <contour>
      <point x="284.40000000000003" y="260.6" type="line"/>
      <point x="350.59999999999997" y="260.6" type="line"/>
      <point x="351.0" y="322.2" type="line"/>
      <point x="553.4000000000001" y="364.2"/>
      <point x="647.8" y="424.8"/>
      <point x="647.8" y="539.2" type="curve" smooth="yes"/>
      <point x="647.8" y="702.2"/>
      <point x="488.59999999999997" y="750.0"/>
      <point x="350.8" y="750.0" type="curve" smooth="yes"/>
      <point x="239.0" y="750.0"/>
      <point x="107.6" y="723.4"/>
      <point x="14.0" y="668.0" type="curve"/>
      <point x="35.4" y="614.6" type="line"/>
      <point x="126.80000000000001" y="665.4"/>
      <point x="240.0" y="690.4"/>
      <point x="340.6" y="690.4" type="curve" smooth="yes"/>
      <point x="447.6" y="690.4"/>
      <point x="569.4000000000001" y="657.0"/>
      <point x="569.4000000000001" y="536.6" type="curve" smooth="yes"/>
      <point x="569.4000000000001" y="459.4"/>
      <point x="502.20000000000005" y="397.59999999999997"/>
      <point x="283.0" y="361.40000000000003" type="curve"/>
    </contour>
    <contour>
      <point x="276.6" y="34.2" type="curve" smooth="yes"/>
      <point x="276.6" y="6.4"/>
      <point x="287.2" y="-2.2"/>
      <point x="322.8" y="-2.2" type="curve" smooth="yes"/>
      <point x="359.2" y="-2.2"/>
      <point x="369.0" y="6.4"/>
      <point x="369.0" y="34.2" type="curve" smooth="yes"/>
      <point x="369.0" y="62.2"/>
      <point x="359.2" y="70.8"/>
      <point x="322.8" y="70.8" type="curve" smooth="yes"/>
      <point x="286.40000000000003" y="70.8"/>
      <point x="276.6" y="62.2"/>
    </contour>
  </outline>
</glyph>
<glyph name="at" format="2">
  <advance width="1170.8000000000002"/>
  <unicode hex="0040"/>
  <outline>
    <contour>
      <point x="556.0" y="-123.4" type="curve" smooth="yes"/>
      <point x="671.8" y="-123.4"/>
      <point x="785.2" y="-97.4"/>
      <point x="875.6" y="-60.400000000000006" type="curve"/>
      <point x="863.0" y="-16.8" type="line"/>
      <point x="780.4000000000001" y="-52.8"/>
      <point x="673.6" y="-77.8"/>
      <point x="562.0" y="-77.8" type="curve" smooth="yes"/>
      <point x="311.20000000000005" y="-77.8"/>
      <point x="131.4" y="44.400000000000006"/>
      <point x="131.4" y="270.40000000000003" type="curve" smooth="yes"/>
      <point x="131.4" y="488.8"/>
      <point x="298.2" y="665.6"/>
      <point x="596.0" y="665.6" type="curve" smooth="yes"/>
      <point x="882.0" y="665.6"/>
      <point x="1043.4" y="541.5999999999999"/>
      <point x="1043.4" y="335.40000000000003" type="curve" smooth="yes"/>
      <point x="1043.4" y="209.8"/>
      <point x="982.0" y="116.8"/>
      <point x="910.6" y="116.8" type="curve" smooth="yes"/>
      <point x="847.0" y="116.8"/>
      <point x="820.0" y="161.20000000000002"/>
      <point x="825.6" y="254.40000000000003" type="curve" smooth="yes"/>
      <point x="840.1999999999999" y="484.99999999999994" type="line"/>
      <point x="763.0" y="504.4"/>
      <point x="683.8" y="516.5999999999999"/>
      <point x="620.5999999999999" y="516.5999999999999" type="curve" smooth="yes"/>
      <point x="416.4" y="516.5999999999999"/>
      <point x="305.59999999999997" y="395.20000000000005"/>
      <point x="305.59999999999997" y="265.20000000000005" type="curve" smooth="yes"/>
      <point x="305.59999999999997" y="147.0"/>
      <point x="386.8" y="75.6"/>
      <point x="499.59999999999997" y="75.6" type="curve" smooth="yes"/>
      <point x="607.2" y="75.6"/>
      <point x="716.4000000000001" y="140.2"/>
      <point x="766.0" y="276.40000000000003" type="curve"/>
      <point x="764.4000000000001" y="163.8"/>
      <point x="786.4000000000001" y="70.6"/>
      <point x="900.4" y="70.6" type="curve" smooth="yes"/>
      <point x="1018.1999999999999" y="70.6"/>
      <point x="1091.6" y="196.79999999999998"/>
      <point x="1091.6" y="335.4" type="curve" smooth="yes"/>
      <point x="1091.6" y="567.8"/>
      <point x="912.0" y="709.4"/>
      <point x="601.1999999999999" y="709.4" type="curve" smooth="yes"/>
      <point x="270.0" y="709.4"/>
      <point x="81.39999999999999" y="514.0"/>
      <point x="81.39999999999999" y="269.6" type="curve" smooth="yes"/>
      <point x="81.39999999999999" y="14.0"/>
      <point x="278.2" y="-123.4"/>
    </contour>
    <contour>
      <point x="518.8" y="129.0" type="curve" smooth="yes"/>
      <point x="440.0" y="129.0"/>
      <point x="378.0" y="180.60000000000002"/>
      <point x="378.0" y="272.8" type="curve" smooth="yes"/>
      <point x="378.0" y="371.8"/>
      <point x="462.8" y="464.59999999999997"/>
      <point x="613.6" y="464.59999999999997" type="curve" smooth="yes"/>
      <point x="656.6" y="464.59999999999997"/>
      <point x="719.0" y="456.4"/>
      <point x="770.2" y="445.0" type="curve"/>
      <point x="764.8" y="371.0" type="line" smooth="yes"/>
      <point x="734.8000000000001" y="211.39999999999998"/>
      <point x="621.4" y="129.0"/>
    </contour>
  </outline>
</glyph>
<glyph name="A" format="2">
  <advance width="986.0"/>
  <unicode hex="0041"/>
  <anchor x="977.2" y="0.0" name="ogonek"/>
  <anchor x="490.0" y="0.0" name="bottom"/>
  <anchor x="493.59999999999997" y="700.0" name="top"/>
  <outline>
    <contour>
      <point x="9.199999999999998" y="0.0" type="line"/>
      <point x="95.6" y="0.0" type="line"/>
      <point x="218.4" y="195.60000000000002" type="line"/>
      <point x="760.8000000000001" y="195.60000000000002" type="line"/>
      <point x="884.6" y="0.0" type="line"/>
      <point x="977.2" y="0.0" type="line"/>
      <point x="528.6" y="708.0" type="line"/>
      <point x="456.2" y="708.0" type="line"/>
    </contour>
    <contour>
      <point x="247.4" y="253.0" type="line"/>
      <point x="489.2" y="637.5999999999999" type="line"/>
      <point x="732.4" y="253.0" type="line"/>
    </contour>
  </outline>
</glyph>
<glyph name="B" format="2">
  <advance width="1052.0"/>
  <unicode hex="0042"/>
  <anchor x="540.8000000000001" y="700.0" name="top"/>
  <anchor x="540.8000000000001" y="0.0" name="bottom"/>
  <outline>
    <contour>
      <point x="128.8" y="5.0" type="line"/>
      <point x="347.0" y="-7.400000000000001"/>
      <point x="428.8" y="-10.0"/>
      <point x="575.8000000000001" y="-10.0" type="curve" smooth="yes"/>
      <point x="887.8" y="-10.0"/>
      <point x="997.8000000000001" y="45.4"/>
      <point x="997.8000000000001" y="197.2" type="curve" smooth="yes"/>
      <point x="997.8000000000001" y="296.59999999999997"/>
      <point x="912.2" y="362.0"/>
      <point x="773.8000000000001" y="376.0" type="curve"/>
      <point x="773.8000000000001" y="378.0" type="line"/>
      <point x="877.4" y="398.8"/>
      <point x="935.4" y="457.4"/>
      <point x="935.4" y="542.0" type="curve" smooth="yes"/>
      <point x="935.4" y="666.2"/>
      <point x="837.4" y="710.0"/>
      <point x="558.8000000000001" y="710.0" type="curve" smooth="yes"/>
      <point x="445.79999999999995" y="710.0"/>
      <point x="336.6" y="706.0"/>
      <point x="128.8" y="695.0" type="curve"/>
    </contour>
    <contour>
      <point x="208.79999999999998" y="394.0" type="line"/>
      <point x="208.79999999999998" y="640.1999999999999" type="line"/>
      <point x="403.2" y="650.6"/>
      <point x="416.0" y="651.6"/>
      <point x="538.5999999999999" y="651.6" type="curve" smooth="yes"/>
      <point x="775.4" y="651.6"/>
      <point x="856.6" y="618.5999999999999"/>
      <point x="856.6" y="525.6" type="curve" smooth="yes"/>
      <point x="856.6" y="446.0"/>
      <point x="775.4" y="394.0"/>
      <point x="647.0" y="394.0" type="curve" smooth="yes"/>
    </contour>
    <contour>
      <point x="208.79999999999998" y="60.4" type="curve"/>
      <point x="208.79999999999998" y="337.20000000000005" type="line"/>
      <point x="655.4000000000001" y="337.20000000000005" type="line" smooth="yes"/>
      <point x="824.2" y="337.20000000000005"/>
      <point x="913.8" y="290.2"/>
      <point x="913.8" y="198.79999999999998" type="curve" smooth="yes"/>
      <point x="913.8" y="87.39999999999999"/>
      <point x="823.2" y="47.800000000000004"/>
      <point x="562.4000000000001" y="47.800000000000004" type="curve" smooth="yes"/>
      <point x="470.4" y="47.800000000000004"/>
      <point x="400.4" y="50.4"/>
    </contour>
  </outline>
</glyph>
<glyph name="C" format="2">
  <advance width="1065.8"/>
  <unicode hex="0043"/>
  <anchor x="588.6" y="700.0" name="top"/>
  <anchor x="584.6" y="0.0" name="bottom"/>
  <outline>
    <contour>
      <point x="80.8" y="335.0" type="curve" smooth="yes"/>
      <point x="80.8" y="106.8"/>
      <point x="261.4" y="-10.0"/>
      <point x="588.8" y="-10.0" type="curve" smooth="yes"/>
      <point x="755.8000000000001" y="-10.0"/>
      <point x="892.0" y="10.200000000000001"/>
      <point x="1009.4000000000001" y="44.4" type="curve"/>
      <point x="993.4000000000001" y="100.6" type="line"/>
      <point x="875.8" y="67.80000000000001"/>
      <point x="737.4000000000001" y="49.800000000000004"/>
      <point x="598.2" y="49.800000000000004" type="curve" smooth="yes"/>
      <point x="313.0" y="49.800000000000004"/>
      <point x="162.6" y="151.0"/>
      <point x="162.6" y="337.2" type="curve" smooth="yes"/>
      <point x="162.6" y="537.4"/>
      <point x="320.6" y="649.2"/>
      <point x="616.2" y="649.2" type="curve" smooth="yes"/>
      <point x="742.2" y="649.2"/>
      <point x="839.2" y="638.2"/>
      <point x="952.0" y="610.8000000000001" type="curve"/>
      <point x="969.2" y="669.0" type="line"/>
      <point x="854.5999999999999" y="699.0"/>
      <point x="762.0" y="710.0"/>
      <point x="613.2" y="710.0" type="curve" smooth="yes"/>
      <point x="272.0" y="710.0"/>
      <point x="80.8" y="578.8"/>
    </contour>
  </outline>
</glyph>
<glyph name="D" format="2">
  <advance width="1149.6"/>
  <unicode hex="0044"/>
  <anchor x="569.6000000000001" y="700.0" name="top"/>
  <outline>
    <contour>
      <point x="541.8" y="-10.0" type="curve" smooth="yes"/>
      <point x="871.6" y="-10.0"/>
      <point x="1068.8000000000002" y="110.19999999999999"/>
      <point x="1068.8000000000002" y="342.40000000000003" type="curve" smooth="yes"/>
      <point x="1068.8000000000002" y="593.2"/>
      <point x="891.0" y="710.0"/>
      <point x="518.8000000000001" y="710.0" type="curve" smooth="yes"/>
      <point x="396.59999999999997" y="710.0"/>
      <point x="277.2" y="707.0"/>
      <point x="128.8" y="700.0" type="curve"/>
      <point x="128.8" y="0.0" type="line"/>
      <point x="276.79999999999995" y="-3.9999999999999996"/>
      <point x="422.6" y="-10.0"/>
    </contour>
    <contour>
      <point x="537.8000000000001" y="46.00000000000001" type="curve" smooth="yes"/>
      <point x="461.2" y="46.00000000000001"/>
      <point x="296.2" y="50.60000000000001"/>
      <point x="208.8" y="54.8" type="curve"/>
      <point x="208.8" y="645.6" type="line"/>
      <point x="310.6" y="651.2"/>
      <point x="444.0" y="654.4"/>
      <point x="519.4" y="654.4" type="curve" smooth="yes"/>
      <point x="833.0" y="654.4"/>
      <point x="987.0000000000001" y="553.0"/>
      <point x="987.0000000000001" y="343.8" type="curve" smooth="yes"/>
      <point x="987.0000000000001" y="150.0"/>
      <point x="819.2" y="46.00000000000001"/>
    </contour>
  </outline>
</glyph>
<glyph name="E" format="2">
  <advance width="970.4000000000001"/>
  <unicode hex="0045"/>
  <anchor x="919.4" y="0.0" name="ogonek"/>
  <anchor x="524.4" y="0.0" name="bottom"/>
  <anchor x="518.6" y="700.0" name="top"/>
  <outline>
    <contour>
      <point x="128.8" y="0.0" type="line"/>
      <point x="919.4" y="0.0" type="line"/>
      <point x="919.4" y="64.0" type="line"/>
      <point x="208.79999999999998" y="64.0" type="line"/>
      <point x="208.79999999999998" y="345.8" type="line"/>
      <point x="858.4000000000001" y="345.8" type="line"/>
      <point x="858.4000000000001" y="407.8" type="line"/>
      <point x="208.79999999999998" y="407.8" type="line"/>
      <point x="208.79999999999998" y="636.0" type="line"/>
      <point x="890.4000000000001" y="636.0" type="line"/>
      <point x="890.4000000000001" y="700.0" type="line"/>
      <point x="128.8" y="700.0" type="line"/>
    </contour>
  </outline>
</glyph>
<glyph name="F" format="2">
  <advance width="924.6"/>
  <unicode hex="0046"/>
  <outline>
    <contour>
      <point x="128.8" y="0.0" type="line"/>
      <point x="208.79999999999998" y="0.0" type="line"/>
      <point x="208.79999999999998" y="275.8" type="line"/>
      <point x="815.4" y="275.8" type="line"/>
      <point x="815.4" y="337.79999999999995" type="line"/>
      <point x="208.8" y="337.79999999999995" type="line"/>
      <point x="208.8" y="636.0" type="line"/>
      <point x="888.4000000000001" y="636.0" type="line"/>
      <point x="888.4000000000001" y="700.0" type="line"/>
      <point x="128.8" y="700.0" type="line"/>
    </contour>
  </outline>
</glyph>
<glyph name="G" format="2">
  <advance width="1118.8000000000002"/>
  <unicode hex="0047"/>
  <anchor x="572.2" y="700.0" name="top"/>
  <anchor x="575.8" y="0.0" name="bottom"/>
  <outline>
    <contour>
      <point x="80.8" y="335.0" type="curve" smooth="yes"/>
      <point x="80.8" y="114.2"/>
      <point x="255.39999999999998" y="-10.0"/>
      <point x="563.8000000000001" y="-10.0" type="curve" smooth="yes"/>
      <point x="741.0" y="-10.0"/>
      <point x="902.6" y="13.6"/>
      <point x="1015.8" y="58.0" type="curve"/>
      <point x="1015.8" y="334.8" type="line"/>
      <point x="595.6" y="334.8" type="line"/>
      <point x="595.6" y="280.8" type="line"/>
      <point x="943.8" y="280.8" type="line"/>
      <point x="943.8" y="97.6" type="line"/>
      <point x="842.8000000000001" y="63.2"/>
      <point x="721.0" y="46.6"/>
      <point x="576.6" y="46.6" type="curve" smooth="yes"/>
      <point x="314.40000000000003" y="46.6"/>
      <point x="162.6" y="150.8"/>
      <point x="162.6" y="337.2" type="curve" smooth="yes"/>
      <point x="162.6" y="529.0"/>
      <point x="319.4" y="649.2"/>
      <point x="589.8" y="649.2" type="curve" smooth="yes"/>
      <point x="714.0" y="649.2"/>
      <point x="833.4" y="633.8000000000001"/>
      <point x="954.1999999999999" y="600.4" type="curve"/>
      <point x="970.8000000000001" y="657.0" type="line"/>
      <point x="854.0" y="693.0"/>
      <point x="732.8000000000001" y="710.0"/>
      <point x="586.8000000000001" y="710.0" type="curve" smooth="yes"/>
      <point x="267.0" y="710.0"/>
      <point x="80.8" y="566.5999999999999"/>
    </contour>
  </outline>
</glyph>
<glyph name="H" format="2">
  <advance width="1182.4"/>
  <unicode hex="0048"/>
  <anchor x="591.6" y="700.0" name="top"/>
  <outline>
    <contour>
      <point x="128.60000000000002" y="0.0" type="line"/>
      <point x="208.60000000000002" y="0.0" type="line"/>
      <point x="208.60000000000002" y="274.2" type="line"/>
      <point x="973.8000000000001" y="274.2" type="line"/>
      <point x="973.8000000000001" y="0.0" type="line"/>
      <point x="1053.8" y="0.0" type="line"/>
      <point x="1053.8" y="700.0" type="line"/>
      <point x="973.8000000000001" y="700.0" type="line"/>
      <point x="973.8000000000001" y="338.20000000000005" type="line"/>
      <point x="208.60000000000002" y="338.20000000000005" type="line"/>
      <point x="208.60000000000002" y="700.0" type="line"/>
      <point x="128.60000000000002" y="700.0" type="line"/>
    </contour>
  </outline>
</glyph>
<glyph name="I" format="2">
  <advance width="337.20000000000005"/>
  <unicode hex="0049"/>
  <anchor x="208.60000000000002" y="0.0" name="ogonek"/>
  <anchor x="168.6" y="0.0" name="bottom"/>
  <anchor x="168.6" y="700.0" name="top"/>
  <outline>
    <contour>
      <point x="128.60000000000002" y="0.0" type="line"/>
      <point x="208.60000000000002" y="0.0" type="line"/>
      <point x="208.60000000000002" y="700.0" type="line"/>
      <point x="128.60000000000002" y="700.0" type="line"/>
    </contour>
  </outline>
</glyph>
<glyph name="J" format="2">
  <advance width="802.1999999999999"/>
  <unicode hex="004A"/>
  <anchor x="396.8" y="700.0" name="top"/>
  <outline>
    <contour>
      <point x="25.6" y="40.199999999999996" type="line"/>
      <point x="131.4" y="7.0"/>
      <point x="261.4" y="-10.8"/>
      <point x="361.6" y="-10.8" type="curve" smooth="yes"/>
      <point x="580.0" y="-10.8"/>
      <point x="699.0" y="78.60000000000001"/>
      <point x="699.0" y="289.2" type="curve" smooth="yes"/>
      <point x="699.0" y="700.0" type="line"/>
      <point x="102.60000000000001" y="700.0" type="line"/>
      <point x="102.60000000000001" y="637.4" type="line"/>
      <point x="619.0" y="637.4" type="line"/>
      <point x="619.0" y="295.8" type="line" smooth="yes"/>
      <point x="619.0" y="122.0"/>
      <point x="519.4" y="50.00000000000001"/>
      <point x="347.4" y="50.00000000000001" type="curve" smooth="yes"/>
      <point x="260.2" y="50.00000000000001"/>
      <point x="143.6" y="68.4"/>
      <point x="43.0" y="99.2" type="curve"/>
    </contour>
  </outline>
</glyph>
<glyph name="K" format="2">
  <advance width="1063.0"/>
  <unicode hex="004B"/>
  <anchor x="531.2" y="700.0" name="top"/>
  <anchor x="504.99999999999994" y="0.0" name="bottom"/>
  <outline>
    <contour>
      <point x="1017.0" y="-10.0" type="curve" smooth="yes"/>
      <point x="1022.2" y="-10.0"/>
      <point x="1030.3999999999999" y="-10.0"/>
      <point x="1037.6" y="-9.0" type="curve"/>
      <point x="1037.6" y="59.800000000000004" type="line"/>
      <point x="1031.0" y="58.800000000000004"/>
      <point x="1024.1999999999998" y="58.800000000000004"/>
      <point x="1018.6" y="58.800000000000004" type="curve" smooth="yes"/>
      <point x="932.6" y="60.6"/>
      <point x="864.4" y="93.0"/>
      <point x="709.2" y="181.2" type="curve" smooth="yes"/>
      <point x="208.39999999999998" y="465.8" type="line"/>
      <point x="208.39999999999998" y="700.0" type="line"/>
      <point x="128.8" y="700.0" type="line"/>
      <point x="128.8" y="0.0" type="line"/>
      <point x="208.39999999999998" y="0.0" type="line"/>
      <point x="208.39999999999998" y="390.0" type="line"/>
      <point x="693.4000000000001" y="112.39999999999999" type="line" smooth="yes"/>
      <point x="843.6" y="27.200000000000003"/>
      <point x="927.1999999999999" y="-10.0"/>
    </contour>
    <contour>
      <point x="407.0" y="324.0" type="line"/>
      <point x="599.8000000000001" y="385.8"/>
      <point x="867.0" y="501.40000000000003"/>
      <point x="1000.8000000000001" y="665.6" type="curve"/>
      <point x="942.8000000000001" y="708.8000000000001" type="line"/>
      <point x="799.0" y="536.0"/>
      <point x="522.1999999999999" y="417.40000000000003"/>
      <point x="346.40000000000003" y="353.8" type="curve"/>
    </contour>
  </outline>
</glyph>
<glyph name="L" format="2">
  <advance width="888.4"/>
  <unicode hex="004C"/>
  <anchor x="444.6" y="350.0" name="center"/>
  <anchor x="168.6" y="700.0" name="top"/>
  <anchor x="559.2" y="700.0" name="topright"/>
  <anchor x="482.2" y="0.0" name="bottom"/>
  <outline>
    <contour>
      <point x="128.60000000000002" y="0.0" type="line"/>
      <point x="858.2" y="0.0" type="line"/>
      <point x="858.2" y="64.0" type="line"/>
      <point x="208.6" y="64.0" type="line"/>
      <point x="208.6" y="700.0" type="line"/>
      <point x="128.60000000000002" y="700.0" type="line"/>
    </contour>
  </outline>
</glyph>
<glyph name="M" format="2">
  <advance width="1331.2"/>
  <unicode hex="004D"/>
  <outline>
    <contour>
      <point x="128.60000000000002" y="0.0" type="line"/>
      <point x="203.6" y="0.0" type="line"/>
      <point x="203.6" y="610.0" type="line"/>
      <point x="647.8000000000001" y="252.60000000000002" type="line"/>
      <point x="681.6" y="252.60000000000002" type="line"/>
      <point x="1127.6" y="611.6" type="line"/>
      <point x="1127.6" y="0.0" type="line"/>
      <point x="1202.6" y="0.0" type="line"/>
      <point x="1202.6" y="700.0" type="line"/>
      <point x="1127.6" y="700.0" type="line"/>
      <point x="666.8" y="323.6" type="line"/>
      <point x="207.6" y="700.0" type="line"/>
      <point x="128.60000000000002" y="700.0" type="line"/>
    </contour>
  </outline>
</glyph>
<glyph name="N" format="2">
  <advance width="1164.2"/>
  <unicode hex="004E"/>
  <anchor x="582.5999999999999" y="700.0" name="top"/>
  <anchor x="582.5999999999999" y="0.0" name="bottom"/>
  <outline>
    <contour>
      <point x="128.60000000000002" y="0.0" type="line"/>
      <point x="202.6" y="0.0" type="line"/>
      <point x="202.6" y="610.0" type="line"/>
      <point x="966.9999999999999" y="0.0" type="line"/>
      <point x="1035.6" y="0.0" type="line"/>
      <point x="1035.6" y="700.0" type="line"/>
      <point x="961.6" y="700.0" type="line"/>
      <point x="961.6" y="91.80000000000001" type="line"/>
      <point x="197.4" y="708.0" type="line"/>
      <point x="128.60000000000002" y="708.0" type="line"/>
    </contour>
  </outline>
</glyph>
<glyph name="O" format="2">
  <advance width="1234.6"/>
  <unicode hex="004F"/>
  <anchor x="689.0" y="-0.5999999999999996" name="ogonek"/>
  <anchor x="616.0" y="700.0" name="top"/>
  <anchor x="945.6" y="663.8" name="topright"/>
  <anchor x="616.4" y="0.0" name="bottom"/>
  <outline>
    <contour>
      <point x="616.1999999999999" y="46.0" type="curve" smooth="yes"/>
      <point x="407.79999999999995" y="46.0"/>
      <point x="162.0" y="109.60000000000001"/>
      <point x="162.0" y="350.4" type="curve" smooth="yes"/>
      <point x="162.0" y="600.2"/>
      <point x="406.79999999999995" y="654.4"/>
      <point x="616.1999999999999" y="654.4" type="curve" smooth="yes"/>
      <point x="827.6" y="654.4"/>
      <point x="1071.6000000000001" y="599.0"/>
      <point x="1071.6000000000001" y="350.4" type="curve" smooth="yes"/>
      <point x="1071.6000000000001" y="100.8"/>
      <point x="827.4" y="46.0"/>
    </contour>
    <contour>
      <point x="616.4" y="-10.0" type="curve" smooth="yes"/>
      <point x="886.4000000000001" y="-10.0"/>
      <point x="1153.6000000000001" y="61.400000000000006"/>
      <point x="1153.6000000000001" y="355.0" type="curve" smooth="yes"/>
      <point x="1153.6000000000001" y="637.2"/>
      <point x="881.6" y="710.0"/>
      <point x="616.1999999999999" y="710.0" type="curve" smooth="yes"/>
      <point x="347.2" y="710.0"/>
      <point x="81.0" y="634.0"/>
      <point x="81.0" y="351.0" type="curve" smooth="yes"/>
      <point x="81.0" y="75.0"/>
      <point x="352.0" y="-10.0"/>
    </contour>
  </outline>
</glyph>
<glyph name="P" format="2">
  <advance width="1056.6"/>
  <unicode hex="0050"/>
  <outline>
    <contour>
      <point x="128.60000000000002" y="0.0" type="line"/>
      <point x="208.6" y="0.0" type="line"/>
      <point x="208.6" y="233.39999999999998" type="line"/>
      <point x="370.40000000000003" y="229.4"/>
      <point x="425.2" y="228.60000000000002"/>
      <point x="559.6" y="228.60000000000002" type="curve" smooth="yes"/>
      <point x="882.6" y="228.60000000000002"/>
      <point x="996.8" y="284.59999999999997"/>
      <point x="996.8" y="474.0" type="curve" smooth="yes"/>
      <point x="996.8" y="642.8"/>
      <point x="909.8000000000001" y="710.0"/>
      <point x="521.8" y="710.0" type="curve" smooth="yes"/>
      <point x="458.0" y="710.0"/>
      <point x="356.8" y="707.8000000000001"/>
      <point x="128.60000000000002" y="700.0" type="curve"/>
    </contour>
    <contour>
      <point x="208.6" y="644.2" type="line"/>
      <point x="395.8" y="651.4000000000001"/>
      <point x="459.0" y="653.0"/>
      <point x="527.2" y="653.0" type="curve" smooth="yes"/>
      <point x="839.4000000000001" y="653.0"/>
      <point x="915.4" y="601.0"/>
      <point x="915.4" y="473.8" type="curve" smooth="yes"/>
      <point x="915.4" y="335.8"/>
      <point x="839.1999999999999" y="286.2"/>
      <point x="531.4" y="286.2" type="curve" smooth="yes"/>
      <point x="408.4" y="286.2"/>
      <point x="344.8" y="288.8"/>
      <point x="208.6" y="292.0" type="curve"/>
    </contour>
  </outline>
</glyph>
<glyph name="Q" format="2">
  <advance width="1234.6"/>
  <unicode hex="0051"/>
  <outline>
    <contour>
      <point x="749.6" y="7.200000000000001" type="curve"/>
      <point x="673.8" y="-0.9999999999999998" type="line"/>
      <point x="741.0" y="-121.80000000000001"/>
      <point x="825.1999999999999" y="-208.6"/>
      <point x="951.2" y="-208.6" type="curve" smooth="yes"/>
      <point x="994.9999999999999" y="-208.6"/>
      <point x="1046.1999999999998" y="-198.6"/>
      <point x="1102.6000000000001" y="-174.8" type="curve"/>
      <point x="1089.8" y="-118.8" type="line"/>
      <point x="1043.0" y="-139.0"/>
      <point x="1000.5999999999999" y="-148.4"/>
      <point x="964.0" y="-148.4" type="curve" smooth="yes"/>
      <point x="867.4000000000001" y="-148.4"/>
      <point x="803.8" y="-82.6"/>
    </contour>
    <component base="O"/>
  </outline>
</glyph>
<glyph name="R" format="2">
  <advance width="1121.0"/>
  <unicode hex="0052"/>
  <anchor x="529.6" y="700.0" name="top"/>
  <anchor x="552.0" y="0.0" name="bottom"/>
  <outline>
    <contour>
      <point x="1088.0" y="-10.0" type="curve" smooth="yes"/>
      <point x="1093.6" y="-10.0"/>
      <point x="1102.2" y="-10.0"/>
      <point x="1109.0" y="-9.0" type="curve"/>
      <point x="1109.0" y="57.8" type="line"/>
      <point x="1103.2" y="56.800000000000004"/>
      <point x="1096.4" y="56.800000000000004"/>
      <point x="1091.6000000000001" y="56.800000000000004" type="curve" smooth="yes"/>
      <point x="1003.8000000000001" y="56.800000000000004"/>
      <point x="844.0" y="173.8"/>
      <point x="690.0" y="300.0" type="curve"/>
      <point x="871.8" y="315.2"/>
      <point x="976.5999999999999" y="360.40000000000003"/>
      <point x="976.5999999999999" y="507.4" type="curve" smooth="yes"/>
      <point x="976.5999999999999" y="664.4"/>
      <point x="853.0" y="709.4"/>
      <point x="494.6" y="709.4" type="curve" smooth="yes"/>
      <point x="373.8" y="709.4"/>
      <point x="281.0" y="708.0"/>
      <point x="128.8" y="701.6" type="curve"/>
      <point x="128.8" y="0.0" type="line"/>
      <point x="208.8" y="0.0" type="line"/>
      <point x="208.8" y="289.6" type="line"/>
      <point x="313.79999999999995" y="287.0"/>
      <point x="413.8" y="285.40000000000003"/>
      <point x="504.99999999999994" y="285.40000000000003" type="curve" smooth="yes"/>
      <point x="531.6" y="285.40000000000003"/>
      <point x="565.0" y="285.0"/>
      <point x="591.6" y="285.59999999999997" type="curve"/>
      <point x="769.8" y="140.6"/>
      <point x="966.6" y="-10.0"/>
    </contour>
    <contour>
      <point x="522.2" y="344.59999999999997" type="curve" smooth="yes"/>
      <point x="425.40000000000003" y="344.59999999999997"/>
      <point x="326.59999999999997" y="346.6"/>
      <point x="208.8" y="349.6" type="curve"/>
      <point x="208.8" y="649.0" type="line"/>
      <point x="331.8" y="654.6"/>
      <point x="375.4" y="654.6"/>
      <point x="499.0" y="654.6" type="curve" smooth="yes"/>
      <point x="793.4" y="654.6"/>
      <point x="894.6" y="622.0"/>
      <point x="894.6" y="500.2" type="curve" smooth="yes"/>
      <point x="894.6" y="381.8"/>
      <point x="809.4" y="344.59999999999997"/>
    </contour>
  </outline>
</glyph>
<glyph name="S" format="2">
  <advance width="980.6"/>
  <unicode hex="0053"/>
  <anchor x="490.40000000000003" y="700.0" name="top"/>
  <anchor x="489.2" y="0.0" name="bottom"/>
  <outline>
    <contour>
      <point x="855.8000000000001" y="663.0000000000001" type="line"/>
      <point x="776.0000000000001" y="683.8"/>
      <point x="631.8000000000001" y="710.0"/>
      <point x="502.6" y="710.0" type="curve" smooth="yes"/>
      <point x="221.4" y="710.0"/>
      <point x="81.19999999999999" y="646.1999999999999"/>
      <point x="81.19999999999999" y="513.6" type="curve" smooth="yes"/>
      <point x="81.19999999999999" y="370.4"/>
      <point x="253.40000000000003" y="339.8"/>
      <point x="456.4" y="320.2" type="curve" smooth="yes"/>
      <point x="664.8" y="300.0"/>
      <point x="837.1999999999999" y="287.0"/>
      <point x="837.1999999999999" y="183.8" type="curve" smooth="yes"/>
      <point x="837.1999999999999" y="88.8"/>
      <point x="724.1999999999999" y="48.0"/>
      <point x="493.40000000000003" y="48.0" type="curve" smooth="yes"/>
      <point x="328.0" y="48.0"/>
      <point x="125.19999999999999" y="95.8"/>
      <point x="58.0" y="116.4" type="curve"/>
      <point x="42.400000000000006" y="56.00000000000001" type="line"/>
      <point x="108.8" y="36.6"/>
      <point x="312.0" y="-10.0"/>
      <point x="483.8" y="-10.0" type="curve" smooth="yes"/>
      <point x="771.0" y="-10.0"/>
      <point x="919.6" y="48.400000000000006"/>
      <point x="919.6" y="190.2" type="curve" smooth="yes"/>
      <point x="919.6" y="332.40000000000003"/>
      <point x="742.0" y="360.79999999999995"/>
      <point x="533.1999999999999" y="379.4" type="curve" smooth="yes"/>
      <point x="332.2" y="397.0"/>
      <point x="163.20000000000002" y="412.0"/>
      <point x="163.20000000000002" y="519.5999999999999" type="curve" smooth="yes"/>
      <point x="163.20000000000002" y="605.8"/>
      <point x="276.20000000000005" y="652.8"/>
      <point x="496.99999999999994" y="652.8" type="curve" smooth="yes"/>
      <point x="615.0" y="652.8"/>
      <point x="764.8000000000001" y="626.1999999999999"/>
      <point x="841.0" y="604.2" type="curve"/>
    </contour>
  </outline>
</glyph>
<glyph name="T" format="2">
  <advance width="885.6"/>
  <unicode hex="0054"/>
  <anchor x="442.8" y="700.0" name="top"/>
  <anchor x="442.8" y="0.0" name="bottom"/>
  <outline>
    <contour>
      <point x="873.8" y="636.8" type="line"/>
      <point x="873.8" y="700.0" type="line"/>
      <point x="11.8" y="700.0" type="line"/>
      <point x="11.8" y="636.8" type="line"/>
      <point x="402.8" y="636.8" type="line"/>
      <point x="402.8" y="0.0" type="line"/>
      <point x="482.8" y="0.0" type="line"/>
      <point x="482.8" y="636.8" type="line"/>
    </contour>
  </outline>
</glyph>
<glyph name="U" format="2">
  <advance width="1130.4"/>
  <unicode hex="0055"/>
  <anchor x="646.0" y="0.0" name="ogonek"/>
  <anchor x="565.2" y="700.0" name="top"/>
  <anchor x="1027.2" y="700.0" name="topright"/>
  <anchor x="565.2" y="0.0" name="bottom"/>
  <outline>
    <contour>
      <point x="103.2" y="292.0" type="line"/>
      <point x="103.2" y="52.4"/>
      <point x="328.0" y="-10.0"/>
      <point x="565.1999999999999" y="-10.0" type="curve" smooth="yes"/>
      <point x="802.4000000000001" y="-10.0"/>
      <point x="1027.2" y="52.4"/>
      <point x="1027.2" y="292.0" type="curve" smooth="yes"/>
      <point x="1027.2" y="700.0" type="line"/>
      <point x="948.8000000000001" y="700.0" type="line"/>
      <point x="948.8000000000001" y="298.40000000000003" type="line" smooth="yes"/>
      <point x="948.8000000000001" y="97.2"/>
      <point x="751.2" y="49.400000000000006"/>
      <point x="565.8" y="49.400000000000006" type="curve" smooth="yes"/>
      <point x="381.8" y="49.400000000000006"/>
      <point x="181.60000000000002" y="95.4"/>
      <point x="181.60000000000002" y="298.40000000000003" type="curve" smooth="yes"/>
      <point x="181.60000000000002" y="700.0" type="line"/>
      <point x="103.2" y="700.0" type="line"/>
    </contour>
  </outline>
</glyph>
<glyph name="V" format="2">
  <advance width="1006.1999999999999"/>
  <unicode hex="0056"/>
  <outline>
    <contour>
      <point x="466.0" y="0.0" type="line"/>
      <point x="540.4" y="0.0" type="line"/>
      <point x="996.6" y="695.4" type="line"/>
      <point x="913.6" y="704.8000000000001" type="line"/>
      <point x="503.6" y="74.0" type="line"/>
      <point x="93.2" y="704.8000000000001" type="line"/>
      <point x="9.6" y="695.4" type="line"/>
    </contour>
  </outline>
</glyph>
<glyph name="W" format="2">
  <advance width="1363.6"/>
  <unicode hex="0057"/>
  <anchor x="681.8" y="700.0" name="top"/>
  <anchor x="681.8" y="0.0" name="bottom"/>
  <outline>
    <contour>
      <point x="1060.4" y="0.0" type="line"/>
      <point x="1352.8" y="697.0" type="line"/>
      <point x="1270.2" y="703.2" type="line"/>
      <point x="1025.6000000000001" y="91.6" type="line"/>
      <point x="723.0" y="662.0" type="line"/>
      <point x="644.4" y="662.0" type="line"/>
      <point x="338.40000000000003" y="90.8" type="line"/>
      <point x="92.20000000000002" y="703.2" type="line"/>
      <point x="10.8" y="697.0" type="line"/>
      <point x="300.8" y="0.0" type="line"/>
      <point x="371.0" y="0.0" type="line"/>
      <point x="679.8" y="570.2" type="line"/>
      <point x="984.3999999999999" y="0.0" type="line"/>
    </contour>
  </outline>
</glyph>
<glyph name="X" format="2">
  <advance width="991.1999999999999"/>
  <unicode hex="0058"/>
  <outline>
    <contour>
      <point x="18.4" y="6.3999999999999995" type="line"/>
      <point x="100.6" y="-6.4" type="line"/>
      <point x="494.59999999999997" y="318.59999999999997" type="line"/>
      <point x="884.2" y="-6.4" type="line"/>
      <point x="972.8" y="6.3999999999999995" type="line"/>
      <point x="549.1999999999999" y="361.2" type="line"/>
      <point x="948.1999999999999" y="693.0000000000001" type="line"/>
      <point x="870.3999999999999" y="705.0" type="line"/>
      <point x="499.4" y="402.0" type="line"/>
      <point x="135.20000000000002" y="705.8000000000001" type="line"/>
      <point x="45.400000000000006" y="693.0000000000001" type="line"/>
      <point x="449.2" y="360.4" type="line"/>
    </contour>
  </outline>
</glyph>
<glyph name="Y" format="2">
  <advance width="985.2"/>
  <unicode hex="0059"/>
  <anchor x="492.59999999999997" y="700.0" name="top"/>
  <anchor x="498.20000000000005" y="0.0" name="bottom"/>
  <outline>
    <contour>
      <point x="458.2" y="0.0" type="line"/>
      <point x="538.1999999999999" y="0.0" type="line"/>
      <point x="538.1999999999999" y="295.6" type="line"/>
      <point x="975.6" y="693.6" type="line"/>
      <point x="894.8000000000001" y="706.4" type="line"/>
      <point x="498.59999999999997" y="342.2" type="line"/>
      <point x="91.2" y="706.4" type="line"/>
      <point x="9.600000000000001" y="693.6" type="line"/>
      <point x="458.2" y="295.6" type="line"/>
    </contour>
  </outline>
</glyph>
<glyph name="Z" format="2">
  <advance width="959.8"/>
  <unicode hex="005A"/>
  <anchor x="476.8" y="350.0" name="center"/>
  <anchor x="476.8" y="0.0" name="bottom"/>
  <anchor x="481.8" y="700.0" name="top"/>
  <outline>
    <contour>
      <point x="43.6" y="0.0" type="line"/>
      <point x="923.0" y="0.0" type="line"/>
      <point x="923.0" y="58.199999999999996" type="line"/>
      <point x="166.0" y="58.199999999999996" type="line"/>
      <point x="166.0" y="60.00000000000001" type="line"/>
      <point x="876.1999999999999" y="650.2" type="line"/>
      <point x="876.1999999999999" y="700.0" type="line"/>
      <point x="75.4" y="700.0" type="line"/>
      <point x="75.4" y="642.2" type="line"/>
      <point x="755.8000000000001" y="642.2" type="line"/>
      <point x="755.8000000000001" y="640.0" type="line"/>
      <point x="43.6" y="50.2" type="line"/>
    </contour>
  </outline>
</glyph>
<glyph name="bracketleft" format="2">
  <advance width="472.8"/>
  <unicode hex="005B"/>
  <outline>
    <contour>
      <point x="188.8" y="-162.4" type="line"/>
      <point x="188.8" y="692.4" type="line"/>
      <point x="428.4" y="692.4" type="line"/>
      <point x="428.4" y="740.0" type="line"/>
      <point x="126.80000000000001" y="740.0" type="line"/>
      <point x="126.80000000000001" y="-210.0" type="line"/>
      <point x="428.4" y="-210.0" type="line"/>
      <point x="428.4" y="-162.4" type="line"/>
    </contour>
  </outline>
</glyph>
<glyph name="backslash" format="2">
  <advance width="482.6"/>
  <unicode hex="005C"/>
  <outline>
    <contour>
      <point x="72.6" y="740.0" type="line"/>
      <point x="10.0" y="740.0" type="line"/>
      <point x="410.0" y="-210.0" type="line"/>
      <point x="472.59999999999997" y="-210.0" type="line"/>
    </contour>
  </outline>
</glyph>
<glyph name="bracketright" format="2">
  <advance width="472.8"/>
  <unicode hex="005D"/>
  <outline>
    <contour>
      <point x="44.4" y="-162.4" type="line"/>
      <point x="44.4" y="-210.0" type="line"/>
      <point x="346.0" y="-210.0" type="line"/>
      <point x="346.0" y="740.0" type="line"/>
      <point x="44.4" y="740.0" type="line"/>
      <point x="44.4" y="692.4" type="line"/>
      <point x="284.0" y="692.4" type="line"/>
      <point x="284.0" y="-162.4" type="line"/>
    </contour>
  </outline>
</glyph>
<glyph name="asciicircum" format="2">
  <advance width="604.4"/>
  <unicode hex="005E"/>
  <outline>
    <contour>
      <point x="55.6" y="261.20000000000005" type="line"/>
      <point x="121.0" y="261.20000000000005" type="line"/>
      <point x="302.2" y="630.2" type="line"/>
      <point x="483.6" y="261.20000000000005" type="line"/>
      <point x="548.8" y="261.20000000000005" type="line"/>
      <point x="334.2" y="708.0" type="line"/>
      <point x="270.2" y="708.0" type="line"/>
    </contour>
  </outline>
</glyph>
<glyph name="underscore" format="2">
  <advance width="1008.0"/>
  <unicode hex="005F"/>
  <outline>
    <contour>
      <point x="4.0" y="-150.79999999999998" type="line"/>
      <point x="1004.0" y="-150.79999999999998" type="line"/>
      <point x="1004.0" y="-101.2" type="line"/>
      <point x="4.0" y="-101.2" type="line"/>
    </contour>
  </outline>
</glyph>
<glyph name="a" format="2">
  <advance width="820.2"/>
  <unicode hex="0061"/>
  <anchor x="794.4" y="1.0" name="ogonek"/>
  <anchor x="409.8" y="0.0" name="bottom"/>
  <anchor x="411.4" y="534.0" name="top"/>
  <outline>
    <contour>
      <point x="69.6" y="129.79999999999998" type="curve" smooth="yes"/>
      <point x="69.6" y="27.8"/>
      <point x="151.60000000000002" y="-10.0"/>
      <point x="256.8" y="-10.0" type="curve" smooth="yes"/>
      <point x="411.2" y="-10.0"/>
      <point x="533.4" y="51.2"/>
      <point x="618.2" y="115.0" type="curve"/>
      <point x="625.0" y="20.0"/>
      <point x="667.4000000000001" y="-10.0"/>
      <point x="737.2" y="-10.0" type="curve" smooth="yes"/>
      <point x="760.4" y="-10.0"/>
      <point x="784.6" y="-4.6"/>
      <point x="806.4" y="6.6000000000000005" type="curve"/>
      <point x="796.8000000000001" y="53.2" type="line"/>
      <point x="784.5999999999999" y="48.60000000000001"/>
      <point x="772.6" y="47.0"/>
      <point x="761.4" y="47.0" type="curve" smooth="yes"/>
      <point x="716.4" y="47.0"/>
      <point x="688.2" y="70.4"/>
      <point x="689.4" y="154.2" type="curve" smooth="yes"/>
      <point x="692.4" y="352.6" type="line" smooth="yes"/>
      <point x="694.2" y="489.2"/>
      <point x="577.5999999999999" y="544.0"/>
      <point x="394.8" y="544.0" type="curve" smooth="yes"/>
      <point x="307.79999999999995" y="544.0"/>
      <point x="211.79999999999998" y="529.6"/>
      <point x="120.80000000000001" y="507.4" type="curve"/>
      <point x="130.4" y="455.0" type="line"/>
      <point x="223.79999999999998" y="478.6"/>
      <point x="318.59999999999997" y="490.8"/>
      <point x="392.4" y="490.8" type="curve" smooth="yes"/>
      <point x="541.0" y="490.8"/>
      <point x="618.4000000000001" y="440.79999999999995"/>
      <point x="617.2" y="351.8" type="curve" smooth="yes"/>
      <point x="616.6" y="304.6" type="line"/>
      <point x="239.8" y="294.0"/>
      <point x="69.6" y="283.0"/>
    </contour>
    <contour>
      <point x="147.6" y="135.6" type="curve" smooth="yes"/>
      <point x="147.6" y="250.4"/>
      <point x="318.59999999999997" y="257.0"/>
      <point x="616.0" y="263.6" type="curve"/>
      <point x="614.2" y="161.4" type="line"/>
      <point x="514.6" y="79.2"/>
      <point x="382.0" y="37.6"/>
      <point x="280.4" y="37.6" type="curve" smooth="yes"/>
      <point x="199.2" y="37.6"/>
      <point x="147.6" y="68.39999999999999"/>
    </contour>
  </outline>
</glyph>
<glyph name="b" format="2">
  <advance width="874.5999999999999"/>
  <unicode hex="0062"/>
  <outline>
    <contour>
      <point x="110.0" y="21.4" type="line"/>
      <point x="228.8" y="0.1999999999999995"/>
      <point x="324.8" y="-10.0"/>
      <point x="410.4" y="-10.0" type="curve" smooth="yes"/>
      <point x="678.0" y="-10.0"/>
      <point x="809.6" y="87.39999999999999"/>
      <point x="809.6" y="283.8" type="curve" smooth="yes"/>
      <point x="809.6" y="445.59999999999997"/>
      <point x="700.6" y="544.0"/>
      <point x="520.4" y="544.0" type="curve" smooth="yes"/>
      <point x="410.0" y="544.0"/>
      <point x="313.59999999999997" y="510.20000000000005"/>
      <point x="186.0" y="425.0" type="curve"/>
      <point x="186.0" y="740.0" type="line"/>
      <point x="110.0" y="740.0" type="line"/>
    </contour>
    <contour>
      <point x="186.0" y="66.8" type="curve"/>
      <point x="186.0" y="373.8" type="line"/>
      <point x="306.6" y="453.4"/>
      <point x="395.59999999999997" y="485.6"/>
      <point x="494.6" y="485.6" type="curve" smooth="yes"/>
      <point x="642.0" y="485.6"/>
      <point x="732.8" y="408.0"/>
      <point x="732.8" y="281.0" type="curve" smooth="yes"/>
      <point x="732.8" y="121.60000000000001"/>
      <point x="624.8" y="41.4"/>
      <point x="411.0" y="41.4" type="curve" smooth="yes"/>
      <point x="348.8" y="41.4"/>
      <point x="272.4" y="49.6"/>
    </contour>
  </outline>
</glyph>
<glyph name="c" format="2">
  <advance width="826.8000000000001"/>
  <unicode hex="0063"/>
  <anchor x="467.4" y="534.0" name="top"/>
  <anchor x="466.8" y="0.0" name="bottom"/>
  <outline>
    <contour>
      <point x="65.2" y="251.79999999999998" type="curve" smooth="yes"/>
      <point x="65.2" y="82.0"/>
      <point x="205.20000000000002" y="-10.0"/>
      <point x="465.0" y="-10.0" type="curve" smooth="yes"/>
      <point x="568.6" y="-10.0"/>
      <point x="688.4" y="6.6"/>
      <point x="782.4" y="30.6" type="curve"/>
      <point x="773.0" y="79.2" type="line"/>
      <point x="678.4000000000001" y="56.800000000000004"/>
      <point x="571.0" y="41.4"/>
      <point x="479.4" y="41.4" type="curve" smooth="yes"/>
      <point x="264.8" y="41.4"/>
      <point x="141.2" y="109.8"/>
      <point x="141.2" y="254.00000000000003" type="curve" smooth="yes"/>
      <point x="141.2" y="413.40000000000003"/>
      <point x="270.40000000000003" y="491.79999999999995"/>
      <point x="473.59999999999997" y="491.79999999999995" type="curve" smooth="yes"/>
      <point x="556.2" y="491.79999999999995"/>
      <point x="670.2" y="477.4"/>
      <point x="758.2" y="457.4" type="curve"/>
      <point x="767.2" y="508.4" type="line"/>
      <point x="682.6" y="529.2"/>
      <point x="563.8" y="544.0"/>
      <point x="472.6" y="544.0" type="curve" smooth="yes"/>
      <point x="223.2" y="544.0"/>
      <point x="65.2" y="439.2"/>
    </contour>
  </outline>
</glyph>
<glyph name="d" format="2">
  <advance width="875.0"/>
  <unicode hex="0064"/>
  <anchor x="439.0" y="275.0" name="center"/>
  <anchor x="433.6" y="740.0" name="top"/>
  <anchor x="875.4" y="740.0" name="topright"/>
  <anchor x="439.0" y="0.0" name="bottom"/>
  <outline>
    <contour>
      <point x="703.6" y="-0.8" type="line"/>
      <point x="765.0" y="-0.8" type="line"/>
      <point x="765.0" y="740.0" type="line"/>
      <point x="689.0" y="740.0" type="line"/>
      <point x="689.0" y="522.8000000000001" type="line"/>
      <point x="614.2" y="536.6"/>
      <point x="533.6" y="544.0"/>
      <point x="464.2" y="544.0" type="curve" smooth="yes"/>
      <point x="196.79999999999998" y="544.0"/>
      <point x="65.2" y="446.79999999999995"/>
      <point x="65.2" y="250.2" type="curve" smooth="yes"/>
      <point x="65.2" y="88.60000000000001"/>
      <point x="174.20000000000002" y="-10.0"/>
      <point x="354.2" y="-10.0" type="curve" smooth="yes"/>
      <point x="464.6" y="-10.0"/>
      <point x="561.0" y="23.8"/>
      <point x="688.5999999999999" y="108.4" type="curve"/>
    </contour>
    <contour>
      <point x="688.5999999999999" y="160.2" type="line"/>
      <point x="568.0" y="80.80000000000001"/>
      <point x="479.0" y="48.4"/>
      <point x="380.2" y="48.4" type="curve" smooth="yes"/>
      <point x="232.6" y="48.4"/>
      <point x="141.99999999999997" y="125.4"/>
      <point x="141.99999999999997" y="253.0" type="curve" smooth="yes"/>
      <point x="141.99999999999997" y="412.6"/>
      <point x="250.0" y="492.6"/>
      <point x="463.79999999999995" y="492.6" type="curve" smooth="yes"/>
      <point x="526.2" y="492.6"/>
      <point x="602.4000000000001" y="484.40000000000003"/>
      <point x="688.5999999999999" y="467.4" type="curve"/>
    </contour>
  </outline>
</glyph>
<glyph name="e" format="2">
  <advance width="857.5999999999999"/>
  <unicode hex="0065"/>
  <anchor x="741.2" y="21.0" name="ogonek"/>
  <anchor x="449.59999999999997" y="0.0" name="bottom"/>
  <anchor x="452.0" y="534.0" name="top"/>
  <outline>
    <contour>
      <point x="431.2" y="-10.0" type="curve" smooth="yes"/>
      <point x="580.0" y="-10.0"/>
      <point x="712.4" y="12.799999999999999"/>
      <point x="792.0" y="30.799999999999997" type="curve"/>
      <point x="783.2" y="82.39999999999999" type="line"/>
      <point x="704.6" y="66.19999999999999"/>
      <point x="568.8000000000001" y="43.2"/>
      <point x="437.6" y="43.2" type="curve" smooth="yes"/>
      <point x="263.6" y="43.2"/>
      <point x="142.0" y="108.8"/>
      <point x="142.0" y="235.0" type="curve" smooth="yes"/>
      <point x="142.0" y="245.6"/>
      <point x="142.60000000000002" y="254.79999999999998"/>
      <point x="143.60000000000002" y="264.79999999999995" type="curve"/>
      <point x="465.2" y="265.6"/>
      <point x="722.6" y="282.6"/>
      <point x="797.0" y="286.0" type="curve"/>
      <point x="798.0" y="298.0"/>
      <point x="798.0" y="310.0"/>
      <point x="798.0" y="317.40000000000003" type="curve" smooth="yes"/>
      <point x="798.0" y="472.2"/>
      <point x="687.6" y="544.0"/>
      <point x="470.2" y="544.0" type="curve" smooth="yes"/>
      <point x="257.2" y="544.0"/>
      <point x="65.2" y="456.2"/>
      <point x="65.2" y="250.2" type="curve" smooth="yes"/>
      <point x="65.2" y="77.60000000000001"/>
      <point x="212.2" y="-10.0"/>
    </contour>
    <contour>
      <point x="146.20000000000002" y="312.8" type="curve"/>
      <point x="175.0" y="449.8"/>
      <point x="338.0" y="494.0"/>
      <point x="467.4" y="494.0" type="curve" smooth="yes"/>
      <point x="641.8" y="494.0"/>
      <point x="719.8" y="436.0"/>
      <point x="721.4" y="330.0" type="curve"/>
      <point x="671.4" y="327.0"/>
      <point x="433.6" y="313.2"/>
    </contour>
  </outline>
</glyph>
<glyph name="f" format="2">
  <advance width="565.0"/>
  <unicode hex="0066"/>
  <outline>
    <contour>
      <point x="171.6" y="0.0" type="line"/>
      <point x="246.79999999999998" y="0.0" type="line"/>
      <point x="246.79999999999998" y="432.2" type="line"/>
      <point x="553.4" y="432.2" type="line"/>
      <point x="553.4" y="484.0" type="line"/>
      <point x="246.8" y="484.0" type="line"/>
      <point x="246.8" y="498.0" type="line" smooth="yes"/>
      <point x="246.8" y="641.4"/>
      <point x="316.8" y="695.4"/>
      <point x="445.8" y="695.4" type="curve" smooth="yes"/>
      <point x="508.8" y="695.4"/>
      <point x="569.6" y="684.1999999999999"/>
      <point x="639.0" y="664.8000000000001" type="curve"/>
      <point x="649.4" y="717.0" type="line"/>
      <point x="567.0" y="741.1999999999999"/>
      <point x="503.4" y="750.8"/>
      <point x="430.40000000000003" y="750.8" type="curve" smooth="yes"/>
      <point x="270.0" y="750.8"/>
      <point x="171.6" y="680.4000000000001"/>
      <point x="171.6" y="499.19999999999993" type="curve" smooth="yes"/>
      <point x="171.6" y="484.0" type="line"/>
      <point x="38.8" y="476.0" type="line"/>
      <point x="38.8" y="432.2" type="line"/>
      <point x="171.6" y="432.2" type="line"/>
    </contour>
  </outline>
</glyph>
<glyph name="g" format="2">
  <advance width="887.2"/>
  <unicode hex="0067"/>
  <anchor x="443.0" y="534.0" name="top"/>
  <anchor x="424.0" y="-220.0" name="bottom"/>
  <outline>
    <contour>
      <point x="413.6" y="-220.0" type="curve" smooth="yes"/>
      <point x="716.4" y="-220.0"/>
      <point x="859.6" y="-151.0"/>
      <point x="859.6" y="-31.0" type="curve" smooth="yes"/>
      <point x="859.6" y="54.00000000000001"/>
      <point x="797.1999999999999" y="95.0"/>
      <point x="667.0" y="95.0" type="curve" smooth="yes"/>
      <point x="306.4" y="95.0" type="line" smooth="yes"/>
      <point x="205.2" y="95.0"/>
      <point x="151.0" y="120.8"/>
      <point x="151.0" y="173.20000000000002" type="curve" smooth="yes"/>
      <point x="151.0" y="210.6"/>
      <point x="182.6" y="237.0"/>
      <point x="235.0" y="257.2" type="curve"/>
      <point x="190.4" y="272.0" type="line"/>
      <point x="119.2" y="244.6"/>
      <point x="85.0" y="208.20000000000002"/>
      <point x="85.0" y="155.2" type="curve" smooth="yes"/>
      <point x="85.0" y="72.19999999999999"/>
      <point x="169.8" y="37.4"/>
      <point x="310.59999999999997" y="37.4" type="curve" smooth="yes"/>
      <point x="641.8" y="37.4" type="line" smooth="yes"/>
      <point x="736.0" y="37.4"/>
      <point x="785.6" y="16.2"/>
      <point x="785.6" y="-37.8" type="curve" smooth="yes"/>
      <point x="785.6" y="-121.19999999999999"/>
      <point x="672.4000000000001" y="-170.8"/>
      <point x="422.0" y="-170.8" type="curve" smooth="yes"/>
      <point x="203.4" y="-170.8"/>
      <point x="96.2" y="-135.39999999999998"/>
      <point x="96.2" y="-51.99999999999999" type="curve" smooth="yes"/>
      <point x="96.2" y="-7.3999999999999995"/>
      <point x="124.8" y="36.6"/>
      <point x="236.6" y="53.8" type="curve"/>
      <point x="183.79999999999998" y="68.2" type="line"/>
      <point x="57.39999999999999" y="47.0"/>
      <point x="29.799999999999997" y="-9.799999999999999"/>
      <point x="29.799999999999997" y="-63.800000000000004" type="curve" smooth="yes"/>
      <point x="29.799999999999997" y="-173.8"/>
      <point x="157.20000000000002" y="-220.0"/>
    </contour>
    <contour>
      <point x="438.79999999999995" y="215.0" type="curve" smooth="yes"/>
      <point x="666.4" y="215.0"/>
      <point x="771.5999999999999" y="269.2"/>
      <point x="771.5999999999999" y="380.2" type="curve" smooth="yes"/>
      <point x="771.5999999999999" y="490.8"/>
      <point x="666.4" y="544.4"/>
      <point x="438.79999999999995" y="544.4" type="curve" smooth="yes"/>
      <point x="211.2" y="544.4"/>
      <point x="106.39999999999999" y="490.8"/>
      <point x="106.39999999999999" y="380.2" type="curve" smooth="yes"/>
      <point x="106.39999999999999" y="269.2"/>
      <point x="211.2" y="215.0"/>
    </contour>
    <contour>
      <point x="438.79999999999995" y="261.2" type="curve" smooth="yes"/>
      <point x="257.2" y="261.2"/>
      <point x="177.6" y="298.2"/>
      <point x="177.6" y="380.2" type="curve" smooth="yes"/>
      <point x="177.6" y="461.79999999999995"/>
      <point x="257.2" y="498.2"/>
      <point x="438.79999999999995" y="498.2" type="curve" smooth="yes"/>
      <point x="620.4000000000001" y="498.2"/>
      <point x="700.0" y="461.79999999999995"/>
      <point x="700.0" y="380.2" type="curve" smooth="yes"/>
      <point x="700.0" y="298.2"/>
      <point x="620.4000000000001" y="261.2"/>
    </contour>
    <contour>
      <point x="669.8000000000001" y="484.2" type="line"/>
      <point x="688.2" y="519.8"/>
      <point x="729.0" y="535.6"/>
      <point x="790.8" y="535.6" type="curve" smooth="yes"/>
      <point x="810.4" y="535.6"/>
      <point x="829.0" y="534.5999999999999"/>
      <point x="850.1999999999999" y="531.1999999999999" type="curve"/>
      <point x="856.6" y="582.8" type="line"/>
      <point x="829.6" y="585.8"/>
      <point x="814.4" y="586.8000000000001"/>
      <point x="794.4" y="586.8000000000001" type="curve" smooth="yes"/>
      <point x="708.8000000000001" y="586.8000000000001"/>
      <point x="653.0" y="560.4000000000001"/>
      <point x="633.6" y="504.20000000000005" type="curve"/>
    </contour>
  </outline>
</glyph>
<glyph name="h" format="2">
  <advance width="892.8"/>
  <unicode hex="0068"/>
  <anchor x="444.79999999999995" y="395.0" name="center"/>
  <anchor x="446.79999999999995" y="0.0" name="bottom"/>
  <anchor x="446.6" y="740.0" name="top"/>
  <outline>
    <contour>
      <point x="110.0" y="0.0" type="line"/>
      <point x="186.0" y="0.0" type="line"/>
      <point x="186.0" y="394.2" type="line"/>
      <point x="306.20000000000005" y="448.8"/>
      <point x="389.2" y="485.8"/>
      <point x="514.2" y="485.8" type="curve" smooth="yes"/>
      <point x="646.2" y="485.8"/>
      <point x="706.8000000000001" y="421.4"/>
      <point x="706.8000000000001" y="315.2" type="curve" smooth="yes"/>
      <point x="706.8000000000001" y="0.0" type="line"/>
      <point x="782.8" y="0.0" type="line"/>
      <point x="782.8" y="336.8" type="line" smooth="yes"/>
      <point x="782.8" y="462.6"/>
      <point x="704.0" y="544.0"/>
      <point x="538.8" y="544.0" type="curve" smooth="yes"/>
      <point x="402.4" y="544.0"/>
      <point x="310.4" y="503.4"/>
      <point x="186.0" y="445.79999999999995" type="curve"/>
      <point x="186.0" y="740.0" type="line"/>
      <point x="110.0" y="740.0" type="line"/>
    </contour>
  </outline>
</glyph>
<glyph name="i" format="2">
  <advance width="296.0"/>
  <unicode hex="0069"/>
  <anchor x="185.2" y="0.0" name="ogonek"/>
  <anchor x="148.0" y="0.0" name="bottom"/>
  <outline>
    <contour>
      <point x="148.0" y="655.6" type="curve" smooth="yes"/>
      <point x="186.79999999999998" y="655.6"/>
      <point x="197.60000000000002" y="664.0"/>
      <point x="197.60000000000002" y="691.2" type="curve" smooth="yes"/>
      <point x="197.60000000000002" y="718.4"/>
      <point x="186.79999999999998" y="726.8"/>
      <point x="148.0" y="726.8" type="curve" smooth="yes"/>
      <point x="109.19999999999999" y="726.8"/>
      <point x="98.39999999999999" y="718.4"/>
      <point x="98.39999999999999" y="691.2" type="curve" smooth="yes"/>
      <point x="98.39999999999999" y="664.0"/>
      <point x="110.0" y="655.6"/>
    </contour>
    <contour>
      <point x="110.0" y="0.0" type="line"/>
      <point x="186.0" y="0.0" type="line"/>
      <point x="186.0" y="534.0" type="line"/>
      <point x="110.0" y="534.0" type="line"/>
    </contour>
  </outline>
</glyph>
<glyph name="j" format="2">
  <advance width="303.2"/>
  <unicode hex="006A"/>
  <outline>
    <contour>
      <point x="194.0" y="534.0" type="line"/>
      <point x="118.0" y="534.0" type="line"/>
      <point x="118.0" y="28.200000000000003" type="line" smooth="yes"/>
      <point x="118.0" y="-62.2"/>
      <point x="90.6" y="-113.8"/>
      <point x="34.6" y="-139.4" type="curve" smooth="yes"/>
      <point x="25.6" y="-144.2"/>
      <point x="16.6" y="-148.2"/>
      <point x="6.800000000000001" y="-151.4" type="curve"/>
      <point x="12.8" y="-207.79999999999998" type="line"/>
      <point x="28.400000000000002" y="-205.0"/>
      <point x="49.400000000000006" y="-200.8"/>
      <point x="63.199999999999996" y="-196.0" type="curve" smooth="yes"/>
      <point x="151.79999999999998" y="-168.0"/>
      <point x="194.0" y="-94.8"/>
      <point x="194.0" y="26.8" type="curve" smooth="yes"/>
    </contour>
    <contour>
      <point x="154.4" y="655.6" type="curve" smooth="yes"/>
      <point x="193.2" y="655.6"/>
      <point x="204.0" y="664.0"/>
      <point x="204.0" y="691.2" type="curve" smooth="yes"/>
      <point x="204.0" y="718.4"/>
      <point x="193.2" y="726.8"/>
      <point x="154.4" y="726.8" type="curve" smooth="yes"/>
      <point x="115.6" y="726.8"/>
      <point x="104.8" y="718.4"/>
      <point x="104.8" y="691.2" type="curve" smooth="yes"/>
      <point x="104.8" y="664.0"/>
      <point x="116.39999999999999" y="655.6"/>
    </contour>
  </outline>
</glyph>
<glyph name="l" format="2">
  <advance width="388.40000000000003"/>
  <unicode hex="006C"/>
  <anchor x="194.4" y="395.0" name="center"/>
  <anchor x="148.0" y="740.0" name="top"/>
  <anchor x="296.4" y="740.0" name="topright"/>
  <anchor x="246.4" y="0.0" name="bottom"/>
  <outline>
    <contour>
      <point x="186.0" y="740.0" type="line"/>
      <point x="110.0" y="740.0" type="line"/>
      <point x="110.0" y="172.8" type="line" smooth="yes"/>
      <point x="110.0" y="23.8"/>
      <point x="181.6" y="-10.0"/>
      <point x="273.0" y="-10.0" type="curve" smooth="yes"/>
      <point x="317.6" y="-10.0"/>
      <point x="357.8" y="-1.5999999999999996"/>
      <point x="390.79999999999995" y="9.8" type="curve"/>
      <point x="380.8" y="64.8" type="line"/>
      <point x="352.59999999999997" y="55.800000000000004"/>
      <point x="321.0" y="49.2"/>
      <point x="291.2" y="49.2" type="curve" smooth="yes"/>
      <point x="235.79999999999998" y="49.2"/>
      <point x="186.0" y="68.60000000000001"/>
      <point x="186.0" y="175.60000000000002" type="curve" smooth="yes"/>
    </contour>
  </outline>
</glyph>
<glyph name="m" format="2">
  <advance width="1354.8"/>
  <unicode hex="006D"/>
  <outline>
    <contour>
      <point x="110.0" y="0.0" type="line"/>
      <point x="186.0" y="0.0" type="line"/>
      <point x="186.0" y="388.6" type="line"/>
      <point x="284.40000000000003" y="444.4"/>
      <point x="359.2" y="480.8"/>
      <point x="470.6" y="480.8" type="curve" smooth="yes"/>
      <point x="623.6" y="480.8"/>
      <point x="641.4" y="368.6"/>
      <point x="641.4" y="311.2" type="curve" smooth="yes"/>
      <point x="641.4" y="0.0" type="line"/>
      <point x="717.4" y="0.0" type="line"/>
      <point x="717.4" y="318.0" type="line" smooth="yes"/>
      <point x="717.4" y="338.0"/>
      <point x="715.8" y="366.20000000000005"/>
      <point x="706.8" y="395.0" type="curve"/>
      <point x="771.0" y="430.4"/>
      <point x="866.1999999999999" y="485.0"/>
      <point x="995.6" y="485.0" type="curve" smooth="yes"/>
      <point x="1151.6" y="485.0"/>
      <point x="1168.8" y="372.2"/>
      <point x="1168.8" y="314.4" type="curve" smooth="yes"/>
      <point x="1168.8" y="0.0" type="line"/>
      <point x="1244.8000000000002" y="0.0" type="line"/>
      <point x="1244.8000000000002" y="336.0" type="line" smooth="yes"/>
      <point x="1244.8000000000002" y="409.59999999999997"/>
      <point x="1212.4" y="544.0"/>
      <point x="1024.8" y="544.0" type="curve" smooth="yes"/>
      <point x="877.4" y="544.0"/>
      <point x="773.0" y="486.6"/>
      <point x="690.0" y="439.8" type="curve"/>
      <point x="662.8000000000001" y="495.2"/>
      <point x="609.2" y="540.0"/>
      <point x="497.59999999999997" y="540.0" type="curve" smooth="yes"/>
      <point x="372.2" y="540.0"/>
      <point x="279.6" y="496.2"/>
      <point x="179.8" y="439.59999999999997" type="curve"/>
      <point x="179.8" y="534.0" type="line"/>
      <point x="110.0" y="534.0" type="line"/>
    </contour>
  </outline>
</glyph>
<glyph name="n" format="2">
  <advance width="892.8000000000001"/>
  <unicode hex="006E"/>
  <anchor x="455.2" y="534.0" name="top"/>
  <anchor x="456.8" y="0.0" name="bottom"/>
  <outline>
    <contour>
      <point x="110.0" y="0.0" type="line"/>
      <point x="186.0" y="0.0" type="line"/>
      <point x="186.0" y="394.2" type="line"/>
      <point x="306.20000000000005" y="448.8"/>
      <point x="389.2" y="485.8"/>
      <point x="514.1999999999999" y="485.8" type="curve" smooth="yes"/>
      <point x="646.1999999999999" y="485.8"/>
      <point x="706.8" y="421.4"/>
      <point x="706.8" y="315.2" type="curve" smooth="yes"/>
      <point x="706.8" y="0.0" type="line"/>
      <point x="782.8000000000001" y="0.0" type="line"/>
      <point x="782.8000000000001" y="336.8" type="line" smooth="yes"/>
      <point x="782.8000000000001" y="462.59999999999997"/>
      <point x="704.0" y="544.0"/>
      <point x="538.8000000000001" y="544.0" type="curve" smooth="yes"/>
      <point x="400.59999999999997" y="544.0"/>
      <point x="306.8" y="502.40000000000003"/>
      <point x="179.8" y="442.79999999999995" type="curve"/>
      <point x="179.8" y="534.0" type="line"/>
      <point x="110.0" y="534.0" type="line"/>
    </contour>
  </outline>
</glyph>
<glyph name="o" format="2">
  <advance width="910.0"/>
  <unicode hex="006F"/>
  <anchor x="544.8000000000001" y="0.39999999999999997" name="ogonek"/>
  <anchor x="455.0" y="534.0" name="top"/>
  <anchor x="617.8000000000001" y="532.0" name="topright"/>
  <anchor x="455.0" y="0.0" name="bottom"/>
  <outline>
    <contour>
      <point x="65.2" y="269.0" type="curve" smooth="yes"/>
      <point x="65.2" y="84.8"/>
      <point x="184.2" y="-10.0"/>
      <point x="455.0" y="-10.0" type="curve" smooth="yes"/>
      <point x="725.8000000000001" y="-10.0"/>
      <point x="844.8000000000001" y="84.8"/>
      <point x="844.8000000000001" y="269.0" type="curve" smooth="yes"/>
      <point x="844.8000000000001" y="440.2"/>
      <point x="742.8000000000001" y="544.0"/>
      <point x="455.0" y="544.0" type="curve" smooth="yes"/>
      <point x="166.8" y="544.0"/>
      <point x="65.2" y="440.2"/>
    </contour>
    <contour>
      <point x="142.0" y="269.0" type="curve" smooth="yes"/>
      <point x="142.0" y="403.4"/>
      <point x="219.0" y="492.0"/>
      <point x="455.0" y="492.0" type="curve" smooth="yes"/>
      <point x="691.0" y="492.0"/>
      <point x="767.6" y="403.4"/>
      <point x="767.6" y="269.0" type="curve" smooth="yes"/>
      <point x="767.6" y="125.00000000000001"/>
      <point x="676.4000000000001" y="42.00000000000001"/>
      <point x="455.0" y="42.00000000000001" type="curve" smooth="yes"/>
      <point x="233.6" y="42.00000000000001"/>
      <point x="142.0" y="125.00000000000001"/>
    </contour>
  </outline>
</glyph>
<glyph name="p" format="2">
  <advance width="874.6"/>
  <unicode hex="0070"/>
  <outline>
    <contour>
      <point x="110.0" y="-210.0" type="line"/>
      <point x="186.2" y="-210.0" type="line"/>
      <point x="186.2" y="12.2" type="line"/>
      <point x="272.0" y="-2.6"/>
      <point x="343.6" y="-10.0"/>
      <point x="410.4" y="-10.0" type="curve" smooth="yes"/>
      <point x="678.0" y="-10.0"/>
      <point x="809.5999999999999" y="87.39999999999999"/>
      <point x="809.5999999999999" y="283.8" type="curve" smooth="yes"/>
      <point x="809.5999999999999" y="445.59999999999997"/>
      <point x="700.6" y="544.0"/>
      <point x="520.4" y="544.0" type="curve" smooth="yes"/>
      <point x="409.8" y="544.0"/>
      <point x="310.2" y="509.00000000000006"/>
      <point x="179.79999999999998" y="422.20000000000005" type="curve"/>
      <point x="179.8" y="534.0" type="line"/>
      <point x="110.0" y="534.0" type="line"/>
    </contour>
    <contour>
      <point x="411.0" y="41.400000000000006" type="curve" smooth="yes"/>
      <point x="348.8" y="41.400000000000006"/>
      <point x="272.4" y="49.6"/>
      <point x="186.0" y="66.8" type="curve"/>
      <point x="186.0" y="373.8" type="line"/>
      <point x="306.6" y="453.4"/>
      <point x="395.59999999999997" y="485.59999999999997"/>
      <point x="494.59999999999997" y="485.59999999999997" type="curve" smooth="yes"/>
      <point x="642.0" y="485.59999999999997"/>
      <point x="732.8" y="408.0"/>
      <point x="732.8" y="281.0" type="curve" smooth="yes"/>
      <point x="732.8" y="121.6"/>
      <point x="624.8" y="41.400000000000006"/>
    </contour>
  </outline>
</glyph>
<glyph name="q" format="2">
  <advance width="874.6"/>
  <unicode hex="0071"/>
  <outline>
    <contour>
      <point x="764.6" y="512.6" type="line"/>
      <point x="645.8000000000001" y="533.8000000000001"/>
      <point x="549.8" y="544.0"/>
      <point x="464.2" y="544.0" type="curve" smooth="yes"/>
      <point x="196.6" y="544.0"/>
      <point x="65.0" y="446.6"/>
      <point x="65.0" y="250.2" type="curve" smooth="yes"/>
      <point x="65.0" y="88.4"/>
      <point x="174.0" y="-10.0"/>
      <point x="354.2" y="-10.0" type="curve" smooth="yes"/>
      <point x="464.6" y="-10.0"/>
      <point x="561.0" y="23.799999999999997"/>
      <point x="688.6" y="109.0" type="curve"/>
      <point x="688.6" y="-210.0" type="line"/>
      <point x="764.6" y="-210.0" type="line"/>
    </contour>
    <contour>
      <point x="688.6" y="467.2" type="curve"/>
      <point x="688.6" y="160.20000000000002" type="line"/>
      <point x="568.0" y="80.6"/>
      <point x="479.0" y="48.4"/>
      <point x="380.0" y="48.4" type="curve" smooth="yes"/>
      <point x="232.6" y="48.4"/>
      <point x="141.8" y="126.0"/>
      <point x="141.8" y="253.0" type="curve" smooth="yes"/>
      <point x="141.8" y="412.4"/>
      <point x="249.79999999999998" y="492.6"/>
      <point x="463.6" y="492.6" type="curve" smooth="yes"/>
      <point x="526.0" y="492.6"/>
      <point x="602.1999999999999" y="484.4"/>
    </contour>
  </outline>
</glyph>
<glyph name="r" format="2">
  <advance width="623.8000000000001"/>
  <unicode hex="0072"/>
  <anchor x="347.8" y="534.0" name="top"/>
  <anchor x="148.0" y="0.0" name="bottom"/>
  <outline>
    <contour>
      <point x="179.79999999999998" y="534.0" type="line"/>
      <point x="110.0" y="534.0" type="line"/>
      <point x="110.0" y="0.0" type="line"/>
      <point x="186.0" y="0.0" type="line"/>
      <point x="186.0" y="364.6" type="line"/>
      <point x="289.4" y="451.4"/>
      <point x="384.0" y="483.0"/>
      <point x="471.0" y="483.0" type="curve" smooth="yes"/>
      <point x="513.0" y="483.0"/>
      <point x="562.2" y="475.4"/>
      <point x="602.0" y="465.59999999999997" type="curve"/>
      <point x="613.1999999999999" y="527.0" type="line"/>
      <point x="581.0" y="535.8000000000001"/>
      <point x="530.0" y="544.0"/>
      <point x="478.2" y="544.0" type="curve" smooth="yes"/>
      <point x="380.79999999999995" y="544.0"/>
      <point x="294.40000000000003" y="511.0"/>
      <point x="179.79999999999998" y="419.40000000000003" type="curve"/>
    </contour>
  </outline>
</glyph>
<glyph name="s" format="2">
  <advance width="763.0"/>
  <unicode hex="0073"/>
  <anchor x="376.4" y="534.0" name="top"/>
  <anchor x="383.8" y="0.0" name="bottom"/>
  <outline>
    <contour>
      <point x="52.599999999999994" y="37.599999999999994" type="line"/>
      <point x="125.6" y="12.4"/>
      <point x="262.0" y="-10.0"/>
      <point x="381.4" y="-10.0" type="curve" smooth="yes"/>
      <point x="582.4" y="-10.0"/>
      <point x="712.6" y="31.200000000000003"/>
      <point x="712.6" y="147.4" type="curve" smooth="yes"/>
      <point x="712.6" y="258.0"/>
      <point x="571.0" y="279.59999999999997"/>
      <point x="419.2" y="294.4" type="curve" smooth="yes"/>
      <point x="281.4" y="307.8"/>
      <point x="149.8" y="314.8"/>
      <point x="149.8" y="397.59999999999997" type="curve" smooth="yes"/>
      <point x="149.8" y="462.8"/>
      <point x="232.79999999999998" y="492.8"/>
      <point x="397.79999999999995" y="492.8" type="curve" smooth="yes"/>
      <point x="493.40000000000003" y="492.8"/>
      <point x="604.0" y="469.8"/>
      <point x="652.8000000000001" y="456.2" type="curve"/>
      <point x="663.1999999999999" y="508.19999999999993" type="line"/>
      <point x="611.6" y="521.8"/>
      <point x="508.00000000000006" y="544.0"/>
      <point x="399.0" y="544.0" type="curve" smooth="yes"/>
      <point x="182.4" y="544.0"/>
      <point x="79.8" y="494.0"/>
      <point x="79.8" y="390.0" type="curve" smooth="yes"/>
      <point x="79.8" y="279.6"/>
      <point x="212.20000000000002" y="256.6"/>
      <point x="366.4" y="242.0" type="curve" smooth="yes"/>
      <point x="506.59999999999997" y="228.79999999999998"/>
      <point x="641.0" y="216.39999999999998"/>
      <point x="641.0" y="142.2" type="curve" smooth="yes"/>
      <point x="641.0" y="74.39999999999999"/>
      <point x="552.4" y="40.8"/>
      <point x="386.2" y="40.8" type="curve" smooth="yes"/>
      <point x="274.40000000000003" y="40.8"/>
      <point x="131.6" y="65.2"/>
      <point x="62.99999999999999" y="90.0" type="curve"/>
    </contour>
  </outline>
</glyph>
<glyph name="t" format="2">
  <advance width="638.0"/>
  <unicode hex="0074"/>
  <anchor x="316.8" y="275.0" name="center"/>
  <anchor x="218.6" y="665.0" name="top"/>
  <anchor x="483.2" y="794.0" name="topright"/>
  <anchor x="372.2" y="0.0" name="bottom"/>
  <outline>
    <contour>
      <point x="381.6" y="-10.0" type="curve" smooth="yes"/>
      <point x="448.2" y="-10.0"/>
      <point x="527.4" y="3.0"/>
      <point x="614.2" y="29.200000000000003" type="curve"/>
      <point x="602.6" y="85.4" type="line"/>
      <point x="539.0" y="65.0"/>
      <point x="474.2" y="50.0"/>
      <point x="405.2" y="50.0" type="curve" smooth="yes"/>
      <point x="298.40000000000003" y="50.0"/>
      <point x="252.0" y="96.0"/>
      <point x="252.0" y="192.2" type="curve" smooth="yes"/>
      <point x="252.0" y="482.2" type="line"/>
      <point x="585.0" y="482.2" type="line"/>
      <point x="585.0" y="534.0" type="line"/>
      <point x="252.0" y="534.0" type="line"/>
      <point x="252.0" y="665.0" type="line"/>
      <point x="185.2" y="665.0" type="line"/>
      <point x="176.0" y="534.0" type="line"/>
      <point x="10.4" y="526.0" type="line"/>
      <point x="10.4" y="482.2" type="line"/>
      <point x="176.0" y="482.2" type="line"/>
      <point x="176.0" y="189.4" type="line" smooth="yes"/>
      <point x="176.0" y="42.400000000000006"/>
      <point x="255.60000000000002" y="-10.0"/>
    </contour>
  </outline>
</glyph>
<glyph name="u" format="2">
  <advance width="879.1999999999999"/>
  <unicode hex="0075"/>
  <anchor x="865.6" y="6.6000000000000005" name="ogonek"/>
  <anchor x="431.79999999999995" y="534.0" name="top"/>
  <anchor x="748.4" y="534.0" name="topright"/>
  <anchor x="439.79999999999995" y="0.0" name="bottom"/>
  <outline>
    <contour>
      <point x="341.2" y="-10.0" type="curve" smooth="yes"/>
      <point x="473.0" y="-10.0"/>
      <point x="563.5999999999999" y="31.6"/>
      <point x="681.8000000000001" y="91.19999999999999" type="curve"/>
      <point x="695.8" y="18.6"/>
      <point x="741.4" y="-10.0"/>
      <point x="792.0" y="-10.0" type="curve" smooth="yes"/>
      <point x="817.0" y="-10.0"/>
      <point x="844.8" y="-3.4"/>
      <point x="865.6" y="6.6000000000000005" type="curve"/>
      <point x="856.0" y="51.4" type="line"/>
      <point x="845.4" y="46.6"/>
      <point x="833.6" y="44.0"/>
      <point x="822.2" y="44.0" type="curve" smooth="yes"/>
      <point x="783.8" y="44.0"/>
      <point x="748.4" y="69.2"/>
      <point x="748.4" y="155.8" type="curve" smooth="yes"/>
      <point x="748.4" y="534.0" type="line"/>
      <point x="672.4" y="534.0" type="line"/>
      <point x="672.4" y="137.79999999999998" type="line"/>
      <point x="560.8000000000001" y="84.2"/>
      <point x="483.2" y="47.4"/>
      <point x="366.40000000000003" y="47.4" type="curve" smooth="yes"/>
      <point x="246.8" y="47.4"/>
      <point x="186.0" y="107.8"/>
      <point x="186.0" y="200.0" type="curve" smooth="yes"/>
      <point x="186.0" y="534.0" type="line"/>
      <point x="110.0" y="534.0" type="line"/>
      <point x="110.0" y="181.2" type="line" smooth="yes"/>
      <point x="110.0" y="67.8"/>
      <point x="189.20000000000002" y="-10.0"/>
    </contour>
  </outline>
</glyph>
<glyph name="v" format="2">
  <advance width="778.8"/>
  <unicode hex="0076"/>
  <outline>
    <contour>
      <point x="355.0" y="0.0" type="line"/>
      <point x="423.0" y="0.0" type="line"/>
      <point x="767.0" y="529.1999999999999" type="line"/>
      <point x="686.6" y="538.8000000000001" type="line"/>
      <point x="392.4" y="63.8" type="line"/>
      <point x="92.19999999999999" y="538.8000000000001" type="line"/>
      <point x="11.8" y="529.1999999999999" type="line"/>
    </contour>
  </outline>
</glyph>
<glyph name="w" format="2">
  <advance width="1157.4"/>
  <unicode hex="0077"/>
  <anchor x="578.8" y="534.0" name="top"/>
  <anchor x="578.8" y="0.0" name="bottom"/>
  <outline>
    <contour>
      <point x="272.2" y="0.0" type="line"/>
      <point x="348.6" y="0.0" type="line"/>
      <point x="576.6" y="459.2" type="line"/>
      <point x="808.4" y="0.0" type="line"/>
      <point x="881.6" y="0.0" type="line"/>
      <point x="1142.6" y="530.0" type="line"/>
      <point x="1070.3999999999999" y="538.0" type="line"/>
      <point x="848.4" y="71.6" type="line"/>
      <point x="618.2" y="534.0" type="line"/>
      <point x="539.2" y="534.0" type="line"/>
      <point x="312.6" y="71.19999999999999" type="line"/>
      <point x="89.0" y="538.0" type="line"/>
      <point x="14.8" y="530.0" type="line"/>
    </contour>
  </outline>
</glyph>
<glyph name="x" format="2">
  <advance width="816.6"/>
  <unicode hex="0078"/>
  <outline>
    <contour>
      <point x="18.799999999999997" y="6.399999999999999" type="line"/>
      <point x="104.80000000000001" y="-6.4" type="line"/>
      <point x="407.79999999999995" y="234.8" type="line"/>
      <point x="713.0" y="-6.4" type="line"/>
      <point x="797.8" y="6.399999999999999" type="line"/>
      <point x="457.6" y="277.40000000000003" type="line"/>
      <point x="778.4000000000001" y="527.6" type="line"/>
      <point x="699.5999999999999" y="540.4" type="line"/>
      <point x="412.2" y="314.59999999999997" type="line"/>
      <point x="125.80000000000001" y="540.4" type="line"/>
      <point x="40.199999999999996" y="527.6" type="line"/>
      <point x="363.8" y="273.8" type="line"/>
    </contour>
  </outline>
</glyph>
<glyph name="y" format="2">
  <advance width="780.8000000000001"/>
  <unicode hex="0079"/>
  <anchor x="389.8" y="534.0" name="top"/>
  <anchor x="601.8" y="0.0" name="bottom"/>
  <outline>
    <contour>
      <point x="271.0" y="-206.20000000000002" type="line"/>
      <point x="342.6" y="-214.2" type="line"/>
      <point x="769.0" y="533.4" type="line"/>
      <point x="694.2" y="541.4" type="line"/>
      <point x="420.6" y="54.8" type="line"/>
      <point x="94.2" y="542.0" type="line"/>
      <point x="11.799999999999999" y="532.4" type="line"/>
      <point x="374.79999999999995" y="0.0" type="line"/>
      <point x="387.79999999999995" y="0.0" type="line"/>
    </contour>
  </outline>
</glyph>
<glyph name="z" format="2">
  <advance width="783.8000000000001"/>
  <unicode hex="007A"/>
  <anchor x="402.8" y="534.0" name="top"/>
  <outline>
    <contour>
      <point x="42.6" y="0.0" type="line"/>
      <point x="746.6" y="0.0" type="line"/>
      <point x="746.6" y="53.199999999999996" type="line"/>
      <point x="153.39999999999998" y="53.199999999999996" type="line"/>
      <point x="708.5999999999999" y="487.6" type="line"/>
      <point x="708.5999999999999" y="534.0" type="line"/>
      <point x="81.0" y="534.0" type="line"/>
      <point x="81.0" y="480.8" type="line"/>
      <point x="599.8" y="480.8" type="line"/>
      <point x="42.6" y="46.4" type="line"/>
    </contour>
  </outline>
</glyph>
<glyph name="braceleft" format="2">
  <advance width="472.8"/>
  <unicode hex="007B"/>
  <outline>
    <contour>
      <point x="172.6" y="-61.800000000000004" type="curve" smooth="yes"/>
      <point x="172.6" y="-143.79999999999998"/>
      <point x="220.60000000000002" y="-210.0"/>
      <point x="355.2" y="-210.0" type="curve" smooth="yes"/>
      <point x="420.4" y="-210.0" type="line"/>
      <point x="420.4" y="-162.4" type="line"/>
      <point x="372.0" y="-162.4" type="line" smooth="yes"/>
      <point x="267.6" y="-162.4"/>
      <point x="241.4" y="-109.8"/>
      <point x="241.4" y="-55.2" type="curve" smooth="yes"/>
      <point x="241.4" y="10.200000000000003"/>
      <point x="276.40000000000003" y="77.39999999999999"/>
      <point x="276.40000000000003" y="143.79999999999998" type="curve" smooth="yes"/>
      <point x="276.40000000000003" y="187.0"/>
      <point x="267.2" y="249.8"/>
      <point x="201.8" y="265.0" type="curve"/>
      <point x="266.40000000000003" y="283.8"/>
      <point x="276.40000000000003" y="341.4"/>
      <point x="276.40000000000003" y="384.59999999999997" type="curve" smooth="yes"/>
      <point x="276.40000000000003" y="454.20000000000005"/>
      <point x="241.4" y="517.4"/>
      <point x="241.4" y="583.6" type="curve" smooth="yes"/>
      <point x="241.4" y="638.1999999999999"/>
      <point x="267.6" y="692.4"/>
      <point x="372.0" y="692.4" type="curve" smooth="yes"/>
      <point x="420.4" y="692.4" type="line"/>
      <point x="420.4" y="740.0" type="line"/>
      <point x="355.2" y="740.0" type="line" smooth="yes"/>
      <point x="220.60000000000002" y="740.0"/>
      <point x="172.6" y="672.1999999999999"/>
      <point x="172.6" y="590.2" type="curve" smooth="yes"/>
      <point x="172.6" y="513.6"/>
      <point x="208.4" y="450.40000000000003"/>
      <point x="208.4" y="384.4" type="curve" smooth="yes"/>
      <point x="208.4" y="342.0"/>
      <point x="194.8" y="288.6"/>
      <point x="140.0" y="288.6" type="curve" smooth="yes"/>
      <point x="119.60000000000001" y="288.6" type="line"/>
      <point x="119.60000000000001" y="241.39999999999998" type="line"/>
      <point x="140.0" y="241.39999999999998" type="line" smooth="yes"/>
      <point x="194.8" y="241.39999999999998"/>
      <point x="208.4" y="186.4"/>
      <point x="208.4" y="144.0" type="curve" smooth="yes"/>
      <point x="208.4" y="79.6"/>
      <point x="172.6" y="13.200000000000001"/>
    </contour>
  </outline>
</glyph>
<glyph name="bar" format="2">
  <advance width="315.2"/>
  <unicode hex="007C"/>
  <outline>
    <contour>
      <point x="188.6" y="790.0" type="line"/>
      <point x="126.6" y="790.0" type="line"/>
      <point x="126.6" y="-210.0" type="line"/>
      <point x="188.6" y="-210.0" type="line"/>
    </contour>
  </outline>
</glyph>
<glyph name="braceright" format="2">
  <advance width="472.8"/>
  <unicode hex="007D"/>
  <outline>
    <contour>
      <point x="52.4" y="-162.4" type="line"/>
      <point x="52.4" y="-210.0" type="line"/>
      <point x="117.6" y="-210.0" type="line" smooth="yes"/>
      <point x="252.2" y="-210.0"/>
      <point x="300.2" y="-143.79999999999998"/>
      <point x="300.2" y="-61.800000000000004" type="curve" smooth="yes"/>
      <point x="300.2" y="13.200000000000001"/>
      <point x="264.40000000000003" y="79.6"/>
      <point x="264.40000000000003" y="144.0" type="curve" smooth="yes"/>
      <point x="264.40000000000003" y="186.4"/>
      <point x="278.0" y="241.39999999999998"/>
      <point x="332.8" y="241.39999999999998" type="curve" smooth="yes"/>
      <point x="353.2" y="241.39999999999998" type="line"/>
      <point x="353.2" y="288.6" type="line"/>
      <point x="332.8" y="288.6" type="line" smooth="yes"/>
      <point x="278.0" y="288.6"/>
      <point x="264.40000000000003" y="342.0"/>
      <point x="264.40000000000003" y="384.4" type="curve" smooth="yes"/>
      <point x="264.40000000000003" y="450.40000000000003"/>
      <point x="300.2" y="513.6"/>
      <point x="300.2" y="590.2" type="curve" smooth="yes"/>
      <point x="300.2" y="672.1999999999999"/>
      <point x="252.2" y="740.0"/>
      <point x="117.6" y="740.0" type="curve" smooth="yes"/>
      <point x="52.4" y="740.0" type="line"/>
      <point x="52.4" y="692.4" type="line"/>
      <point x="100.80000000000001" y="692.4" type="line" smooth="yes"/>
      <point x="205.2" y="692.4"/>
      <point x="231.4" y="638.1999999999999"/>
      <point x="231.4" y="583.6" type="curve" smooth="yes"/>
      <point x="231.4" y="517.4"/>
      <point x="196.4" y="454.20000000000005"/>
      <point x="196.4" y="384.59999999999997" type="curve" smooth="yes"/>
      <point x="196.4" y="341.4"/>
      <point x="206.4" y="283.8"/>
      <point x="271.0" y="265.0" type="curve"/>
      <point x="205.60000000000002" y="249.8"/>
      <point x="196.4" y="187.0"/>
      <point x="196.4" y="143.79999999999998" type="curve" smooth="yes"/>
      <point x="196.4" y="77.39999999999999"/>
      <point x="231.4" y="10.200000000000003"/>
      <point x="231.4" y="-55.2" type="curve" smooth="yes"/>
      <point x="231.4" y="-109.8"/>
      <point x="205.2" y="-162.4"/>
      <point x="100.80000000000001" y="-162.4" type="curve" smooth="yes"/>
    </contour>
  </outline>
</glyph>
<glyph name="asciitilde" format="2">
  <advance width="604.4"/>
  <unicode hex="007E"/>
  <outline>
    <contour>
      <point x="532.4" y="260.0" type="curve"/>
      <point x="532.4" y="320.4" type="line"/>
      <point x="505.20000000000005" y="298.6"/>
      <point x="473.8" y="274.4"/>
      <point x="428.40000000000003" y="274.4" type="curve" smooth="yes"/>
      <point x="328.2" y="274.4"/>
      <point x="270.40000000000003" y="372.8"/>
      <point x="174.0" y="372.8" type="curve" smooth="yes"/>
      <point x="128.4" y="372.8"/>
      <point x="94.80000000000001" y="348.2"/>
      <point x="72.2" y="331.6" type="curve"/>
      <point x="72.2" y="270.40000000000003" type="line"/>
      <point x="97.8" y="289.4"/>
      <point x="126.99999999999999" y="314.8"/>
      <point x="173.4" y="314.8" type="curve" smooth="yes"/>
      <point x="265.59999999999997" y="314.8"/>
      <point x="325.8" y="216.2"/>
      <point x="430.2" y="216.2" type="curve" smooth="yes"/>
      <point x="475.6" y="216.2"/>
      <point x="507.8" y="239.8"/>
    </contour>
  </outline>
</glyph>
<glyph name="exclamdown" format="2">
  <advance width="346.8"/>
  <unicode hex="00A1"/>
  <outline>
    <contour>
      <point x="207.2" y="270.8" type="line"/>
      <point x="141.0" y="270.8" type="line"/>
      <point x="137.0" y="-206.2" type="line"/>
      <point x="211.2" y="-206.2" type="line"/>
    </contour>
    <contour>
      <point x="219.6" y="499.6" type="curve" smooth="yes"/>
      <point x="219.6" y="527.4"/>
      <point x="209.8" y="536.0"/>
      <point x="173.4" y="536.0" type="curve" smooth="yes"/>
      <point x="137.79999999999998" y="536.0"/>
      <point x="127.20000000000002" y="527.4"/>
      <point x="127.20000000000002" y="499.6" type="curve" smooth="yes"/>
      <point x="127.20000000000002" y="471.59999999999997"/>
      <point x="137.0" y="463.0"/>
      <point x="173.4" y="463.0" type="curve" smooth="yes"/>
      <point x="209.8" y="463.0"/>
      <point x="219.6" y="471.59999999999997"/>
    </contour>
  </outline>
</glyph>
<glyph name="cent" format="2">
  <advance width="1037.2"/>
  <unicode hex="00A2"/>
  <outline>
    <contour>
      <point x="527.6" y="-10.0" type="curve" smooth="yes"/>
      <point x="642.1999999999999" y="-10.0"/>
      <point x="780.5999999999999" y="4.4"/>
      <point x="871.4" y="25.8" type="curve"/>
      <point x="862.4" y="77.6" type="line"/>
      <point x="774.6" y="58.4"/>
      <point x="645.4" y="44.4"/>
      <point x="544.6" y="44.4" type="curve" smooth="yes"/>
      <point x="349.40000000000003" y="44.4"/>
      <point x="235.79999999999998" y="120.6"/>
      <point x="235.79999999999998" y="255.20000000000002" type="curve" smooth="yes"/>
      <point x="235.79999999999998" y="401.2"/>
      <point x="361.20000000000005" y="488.59999999999997"/>
      <point x="568.8" y="488.59999999999997" type="curve" smooth="yes"/>
      <point x="667.4000000000001" y="488.59999999999997"/>
      <point x="739.8" y="479.8"/>
      <point x="847.6" y="454.0" type="curve"/>
      <point x="856.5999999999999" y="508.4" type="line"/>
      <point x="758.6" y="533.4000000000001"/>
      <point x="675.1999999999999" y="544.0"/>
      <point x="566.8000000000001" y="544.0" type="curve" smooth="yes"/>
      <point x="307.0" y="544.0"/>
      <point x="161.8" y="428.2"/>
      <point x="161.8" y="253.99999999999997" type="curve" smooth="yes"/>
      <point x="161.8" y="85.19999999999999"/>
      <point x="293.4" y="-10.0"/>
    </contour>
    <contour>
      <point x="503.6" y="-105.0" type="line"/>
      <point x="559.8" y="-105.0" type="line"/>
      <point x="559.8" y="-1.5999999999999999" type="line"/>
      <point x="503.6" y="-1.2000000000000002" type="line"/>
    </contour>
    <contour>
      <point x="503.6" y="533.4" type="line"/>
      <point x="559.8" y="536.5999999999999" type="line"/>
      <point x="559.8" y="639.0" type="line"/>
      <point x="503.6" y="639.0" type="line"/>
    </contour>
  </outline>
</glyph>
<glyph name="sterling" format="2">
  <advance width="1037.2"/>
  <unicode hex="00A3"/>
  <outline>
    <contour>
      <point x="109.8" y="0.0" type="line"/>
      <point x="962.8" y="0.0" type="line"/>
      <point x="962.8" y="58.0" type="line"/>
      <point x="207.0" y="58.0" type="line"/>
      <point x="315.6" y="129.4"/>
      <point x="357.8" y="178.39999999999998"/>
      <point x="357.8" y="239.20000000000002" type="curve" smooth="yes"/>
      <point x="357.8" y="338.4"/>
      <point x="258.2" y="381.40000000000003"/>
      <point x="258.2" y="481.40000000000003" type="curve" smooth="yes"/>
      <point x="258.2" y="588.8"/>
      <point x="371.0" y="651.1999999999999"/>
      <point x="564.1999999999999" y="651.1999999999999" type="curve" smooth="yes"/>
      <point x="661.6" y="651.1999999999999"/>
      <point x="817.0" y="633.8"/>
      <point x="916.6" y="610.4" type="curve"/>
      <point x="927.0" y="667.2" type="line"/>
      <point x="841.1999999999999" y="690.1999999999999"/>
      <point x="672.8" y="710.0"/>
      <point x="560.2" y="710.0" type="curve" smooth="yes"/>
      <point x="317.8" y="710.0"/>
      <point x="181.4" y="630.0"/>
      <point x="181.4" y="491.6" type="curve" smooth="yes"/>
      <point x="181.4" y="381.2"/>
      <point x="284.59999999999997" y="330.8"/>
      <point x="284.59999999999997" y="238.8" type="curve" smooth="yes"/>
      <point x="284.59999999999997" y="180.0"/>
      <point x="241.79999999999998" y="139.0"/>
      <point x="109.8" y="51.6" type="curve"/>
    </contour>
    <contour>
      <point x="108.19999999999999" y="344.0" type="line"/>
      <point x="772.8000000000001" y="344.0" type="line"/>
      <point x="772.8000000000001" y="395.59999999999997" type="line"/>
      <point x="108.19999999999999" y="395.59999999999997" type="line"/>
    </contour>
  </outline>
</glyph>
<glyph name="currency" format="2">
  <advance width="488.0"/>
  <unicode hex="00A4"/>
  <outline>
    <contour>
      <point x="55.6" y="449.4" type="line"/>
      <point x="126.4" y="377.6" type="line"/>
      <point x="109.80000000000001" y="355.2"/>
      <point x="99.39999999999999" y="327.0"/>
      <point x="99.39999999999999" y="295.2" type="curve" smooth="yes"/>
      <point x="99.39999999999999" y="263.2"/>
      <point x="109.80000000000001" y="234.79999999999998"/>
      <point x="127.4" y="212.4" type="curve"/>
      <point x="55.6" y="140.60000000000002" type="line"/>
      <point x="90.0" y="106.2" type="line"/>
      <point x="165.79999999999998" y="181.8" type="line"/>
      <point x="186.8" y="165.4"/>
      <point x="213.6" y="156.6"/>
      <point x="243.0" y="156.6" type="curve" smooth="yes"/>
      <point x="272.79999999999995" y="156.6"/>
      <point x="300.6" y="165.6"/>
      <point x="322.0" y="182.0" type="curve"/>
      <point x="398.0" y="106.2" type="line"/>
      <point x="432.4" y="140.60000000000002" type="line"/>
      <point x="359.6" y="213.4" type="line"/>
      <point x="376.8" y="235.6"/>
      <point x="387.20000000000005" y="263.6"/>
      <point x="387.20000000000005" y="295.2" type="curve" smooth="yes"/>
      <point x="387.20000000000005" y="326.59999999999997"/>
      <point x="377.0" y="354.4"/>
      <point x="359.6" y="376.6" type="curve"/>
      <point x="432.4" y="449.4" type="line"/>
      <point x="398.0" y="483.8" type="line"/>
      <point x="322.0" y="407.8" type="line"/>
      <point x="300.59999999999997" y="424.4"/>
      <point x="273.59999999999997" y="434.2"/>
      <point x="243.0" y="434.2" type="curve" smooth="yes"/>
      <point x="212.8" y="434.2"/>
      <point x="186.0" y="424.4"/>
      <point x="165.0" y="408.0" type="curve"/>
      <point x="90.0" y="483.8" type="line"/>
    </contour>
    <contour>
      <point x="242.79999999999998" y="198.6" type="curve" smooth="yes"/>
      <point x="189.20000000000002" y="198.6"/>
      <point x="146.20000000000002" y="241.39999999999998"/>
      <point x="146.20000000000002" y="295.20000000000005" type="curve" smooth="yes"/>
      <point x="146.20000000000002" y="349.2"/>
      <point x="189.0" y="392.2"/>
      <point x="242.79999999999998" y="392.2" type="curve" smooth="yes"/>
      <point x="297.4" y="392.2"/>
      <point x="340.4" y="349.2"/>
      <point x="340.4" y="295.20000000000005" type="curve" smooth="yes"/>
      <point x="340.4" y="241.39999999999998"/>
      <point x="297.2" y="198.6"/>
    </contour>
  </outline>
</glyph>
<glyph name="yen" format="2">
  <advance width="1037.2"/>
  <unicode hex="00A5"/>
  <outline>
    <contour>
      <point x="144.8" y="348.4" type="line"/>
      <point x="483.59999999999997" y="348.4" type="line"/>
      <point x="483.59999999999997" y="221.6" type="line"/>
      <point x="144.8" y="221.6" type="line"/>
      <point x="144.8" y="179.60000000000002" type="line"/>
      <point x="483.59999999999997" y="179.60000000000002" type="line"/>
      <point x="483.59999999999997" y="0.0" type="line"/>
      <point x="565.2" y="0.0" type="line"/>
      <point x="565.2" y="179.60000000000002" type="line"/>
      <point x="907.4" y="179.60000000000002" type="line"/>
      <point x="907.4" y="221.6" type="line"/>
      <point x="565.2" y="221.6" type="line"/>
      <point x="565.2" y="348.4" type="line"/>
      <point x="907.4" y="348.4" type="line"/>
      <point x="907.4" y="390.8" type="line"/>
      <point x="565.2" y="390.8" type="line"/>
      <point x="944.4" y="693.6" type="line"/>
      <point x="868.8" y="706.4" type="line"/>
      <point x="524.4" y="434.40000000000003" type="line"/>
      <point x="168.4" y="706.4" type="line"/>
      <point x="93.2" y="693.6" type="line"/>
      <point x="483.59999999999997" y="390.8" type="line"/>
      <point x="144.8" y="390.8" type="line"/>
    </contour>
  </outline>
</glyph>
<glyph name="brokenbar" format="2">
  <advance width="315.2"/>
  <unicode hex="00A6"/>
  <outline>
    <contour>
      <point x="188.6" y="391.0" type="line"/>
      <point x="188.6" y="790.0" type="line"/>
      <point x="126.6" y="790.0" type="line"/>
      <point x="126.6" y="391.0" type="line"/>
    </contour>
    <contour>
      <point x="126.6" y="190.0" type="line"/>
      <point x="126.6" y="-210.0" type="line"/>
      <point x="188.6" y="-210.0" type="line"/>
      <point x="188.6" y="190.0" type="line"/>
    </contour>
  </outline>
</glyph>
<glyph name="section" format="2">
  <advance width="730.8"/>
  <unicode hex="00A7"/>
  <outline>
    <contour>
      <point x="335.59999999999997" y="-220.0" type="curve" smooth="yes"/>
      <point x="542.2" y="-220.0"/>
      <point x="672.6" y="-116.60000000000001"/>
      <point x="672.6" y="48.0" type="curve" smooth="yes"/>
      <point x="672.6" y="142.0"/>
      <point x="633.6" y="226.4"/>
      <point x="520.6" y="381.2" type="curve" smooth="yes"/>
      <point x="437.2" y="496.2"/>
      <point x="410.8" y="544.1999999999999"/>
      <point x="410.8" y="591.6" type="curve" smooth="yes"/>
      <point x="410.8" y="647.4"/>
      <point x="454.0" y="683.0"/>
      <point x="524.4" y="683.0" type="curve" smooth="yes"/>
      <point x="554.4000000000001" y="683.0"/>
      <point x="589.2" y="677.0"/>
      <point x="640.2" y="661.4000000000001" type="curve"/>
      <point x="651.1999999999999" y="718.4" type="line"/>
      <point x="580.0" y="740.4"/>
      <point x="510.0" y="750.0"/>
      <point x="440.0" y="750.0" type="curve" smooth="yes"/>
      <point x="223.0" y="750.0"/>
      <point x="91.8" y="639.5999999999999"/>
      <point x="91.0" y="466.79999999999995" type="curve" smooth="yes"/>
      <point x="91.0" y="354.2"/>
      <point x="132.0" y="264.0"/>
      <point x="238.20000000000002" y="130.0" type="curve" smooth="yes"/>
      <point x="302.40000000000003" y="48.599999999999994"/>
      <point x="337.59999999999997" y="9.200000000000001"/>
      <point x="338.4" y="-57.400000000000006" type="curve" smooth="yes"/>
      <point x="339.2" y="-105.99999999999999"/>
      <point x="292.0" y="-147.2"/>
      <point x="231.79999999999998" y="-147.2" type="curve" smooth="yes"/>
      <point x="181.79999999999998" y="-147.2"/>
      <point x="144.4" y="-131.6"/>
      <point x="74.0" y="-83.39999999999999" type="curve"/>
      <point x="57.2" y="-136.0" type="line"/>
      <point x="156.20000000000002" y="-199.4"/>
      <point x="226.0" y="-220.0"/>
    </contour>
    <contour>
      <point x="342.6" y="-179.2" type="curve" smooth="yes"/>
      <point x="298.4" y="-179.2"/>
      <point x="264.0" y="-176.0"/>
      <point x="233.8" y="-166.6" type="curve"/>
      <point x="251.0" y="-179.8" type="line"/>
      <point x="333.4" y="-186.20000000000002"/>
      <point x="402.6" y="-129.4"/>
      <point x="402.6" y="-57.8" type="curve" smooth="yes"/>
      <point x="402.6" y="5.599999999999998"/>
      <point x="382.20000000000005" y="44.6"/>
      <point x="293.0" y="157.6" type="curve" smooth="yes"/>
      <point x="191.0" y="287.4"/>
      <point x="154.4" y="372.2"/>
      <point x="154.4" y="471.79999999999995" type="curve" smooth="yes"/>
      <point x="154.4" y="613.1999999999999"/>
      <point x="263.8" y="705.8000000000001"/>
      <point x="429.40000000000003" y="705.8000000000001" type="curve" smooth="yes"/>
      <point x="451.2" y="705.8000000000001"/>
      <point x="470.6" y="703.8000000000001"/>
      <point x="493.0" y="698.6" type="curve"/>
      <point x="484.4" y="711.4" type="line"/>
      <point x="403.2" y="714.6"/>
      <point x="349.40000000000003" y="662.4"/>
      <point x="348.6" y="590.4" type="curve" smooth="yes"/>
      <point x="348.6" y="531.8000000000001"/>
      <point x="377.0" y="480.80000000000007"/>
      <point x="465.8" y="354.59999999999997" type="curve" smooth="yes"/>
      <point x="573.8" y="200.8"/>
      <point x="611.8" y="121.39999999999999"/>
      <point x="611.8" y="40.0" type="curve" smooth="yes"/>
      <point x="612.6" y="-85.6"/>
      <point x="515.0" y="-178.4"/>
    </contour>
  </outline>
</glyph>
<glyph name="copyright" format="2">
  <advance width="1062.3999999999999"/>
  <unicode hex="00A9"/>
  <outline>
    <contour>
      <point x="531.4" y="28.400000000000002" type="curve" smooth="yes"/>
      <point x="298.40000000000003" y="28.400000000000002"/>
      <point x="111.4" y="112.6"/>
      <point x="111.4" y="349.59999999999997" type="curve" smooth="yes"/>
      <point x="111.4" y="587.0"/>
      <point x="298.8" y="670.0"/>
      <point x="531.4" y="670.0" type="curve" smooth="yes"/>
      <point x="763.6" y="670.0"/>
      <point x="951.0" y="587.0"/>
      <point x="951.0" y="349.59999999999997" type="curve" smooth="yes"/>
      <point x="951.0" y="112.6"/>
      <point x="764.0" y="28.400000000000002"/>
    </contour>
    <contour>
      <point x="531.4" y="710.0" type="curve" smooth="yes"/>
      <point x="276.8" y="710.0"/>
      <point x="68.6" y="611.8000000000001"/>
      <point x="68.6" y="349.59999999999997" type="curve" smooth="yes"/>
      <point x="68.6" y="87.4"/>
      <point x="276.4" y="-10.0"/>
      <point x="531.4" y="-10.0" type="curve" smooth="yes"/>
      <point x="785.9999999999999" y="-10.0"/>
      <point x="993.8000000000001" y="87.4"/>
      <point x="993.8000000000001" y="349.59999999999997" type="curve" smooth="yes"/>
      <point x="993.8000000000001" y="611.8000000000001"/>
      <point x="786.0" y="710.0"/>
    </contour>
    <contour>
      <point x="310.2" y="336.0" type="curve" smooth="yes"/>
      <point x="310.2" y="218.59999999999997"/>
      <point x="399.79999999999995" y="173.0"/>
      <point x="525.6" y="173.0" type="curve" smooth="yes"/>
      <point x="623.8" y="173.0"/>
      <point x="700.4" y="190.2"/>
      <point x="742.8" y="204.0" type="curve"/>
      <point x="732.8" y="245.20000000000002" type="line"/>
      <point x="694.6" y="234.79999999999998"/>
      <point x="626.0" y="219.4"/>
      <point x="535.6" y="219.4" type="curve" smooth="yes"/>
      <point x="427.2" y="219.4"/>
      <point x="367.79999999999995" y="252.6"/>
      <point x="367.79999999999995" y="337.6" type="curve" smooth="yes"/>
      <point x="367.79999999999995" y="439.8"/>
      <point x="445.8" y="472.59999999999997"/>
      <point x="559.9999999999999" y="472.59999999999997" type="curve" smooth="yes"/>
      <point x="617.0" y="472.59999999999997"/>
      <point x="662.1999999999999" y="465.6"/>
      <point x="710.6" y="452.40000000000003" type="curve"/>
      <point x="721.4000000000001" y="495.2" type="line"/>
      <point x="669.0" y="512.4"/>
      <point x="617.8" y="519.4"/>
      <point x="554.4000000000001" y="519.4" type="curve" smooth="yes"/>
      <point x="418.59999999999997" y="519.4"/>
      <point x="310.2" y="470.4"/>
    </contour>
  </outline>
</glyph>
<glyph name="ordfeminine" format="2">
  <advance width="546.8"/>
  <unicode hex="00AA"/>
  <outline>
    <contour>
      <point x="75.0" y="248.20000000000002" type="line"/>
      <point x="494.4" y="248.20000000000002" type="line"/>
      <point x="494.4" y="291.79999999999995" type="line"/>
      <point x="75.0" y="291.79999999999995" type="line"/>
    </contour>
    <component base="a.superior" xOffset="13.6"/>
  </outline>
</glyph>
<glyph name="logicalnot" format="2">
  <advance width="604.4"/>
  <unicode hex="00AC"/>
  <outline>
    <contour>
      <point x="62.4" y="363.40000000000003" type="line"/>
      <point x="485.0" y="363.40000000000003" type="line"/>
      <point x="485.0" y="172.0" type="line"/>
      <point x="542.0" y="172.0" type="line"/>
      <point x="542.0" y="420.40000000000003" type="line"/>
      <point x="62.4" y="420.40000000000003" type="line"/>
    </contour>
  </outline>
</glyph>
<glyph name="registered" format="2">
  <advance width="1018.0000000000001"/>
  <unicode hex="00AE"/>
  <outline>
    <contour>
      <point x="505.8" y="208.20000000000002" type="curve" smooth="yes"/>
      <point x="751.4000000000001" y="208.20000000000002"/>
      <point x="949.3999999999999" y="299.20000000000005"/>
      <point x="949.3999999999999" y="550.6" type="curve" smooth="yes"/>
      <point x="949.3999999999999" y="799.9999999999999"/>
      <point x="751.8" y="893.4000000000001"/>
      <point x="505.8" y="893.4000000000001" type="curve" smooth="yes"/>
      <point x="264.2" y="893.4000000000001"/>
      <point x="68.6" y="799.9999999999999"/>
      <point x="68.6" y="550.6" type="curve" smooth="yes"/>
      <point x="68.6" y="301.6"/>
      <point x="263.40000000000003" y="208.20000000000002"/>
    </contour>
    <contour>
      <point x="505.8" y="244.79999999999998" type="curve" smooth="yes"/>
      <point x="284.4" y="244.79999999999998"/>
      <point x="109.2" y="325.4"/>
      <point x="109.2" y="550.6" type="curve" smooth="yes"/>
      <point x="109.2" y="776.1999999999999"/>
      <point x="284.40000000000003" y="855.2"/>
      <point x="505.8" y="855.2" type="curve" smooth="yes"/>
      <point x="730.8" y="855.2"/>
      <point x="908.8000000000001" y="776.1999999999999"/>
      <point x="908.8000000000001" y="550.6" type="curve" smooth="yes"/>
      <point x="908.8000000000001" y="324.99999999999994"/>
      <point x="730.4" y="244.79999999999998"/>
    </contour>
    <contour>
      <point x="752.4000000000001" y="396.59999999999997" type="curve" smooth="yes"/>
      <point x="754.9999999999999" y="396.59999999999997"/>
      <point x="757.0" y="396.59999999999997"/>
      <point x="759.5999999999999" y="396.59999999999997" type="curve"/>
      <point x="759.5999999999999" y="439.6" type="line"/>
      <point x="758.0" y="439.59999999999997"/>
      <point x="756.0" y="439.59999999999997"/>
      <point x="754.4" y="439.59999999999997" type="curve" smooth="yes"/>
      <point x="714.8" y="439.6"/>
      <point x="643.4" y="479.8"/>
      <point x="579.1999999999999" y="533.6" type="curve"/>
      <point x="655.6" y="538.2"/>
      <point x="700.6" y="558.4"/>
      <point x="700.6" y="622.8000000000001" type="curve" smooth="yes"/>
      <point x="700.6" y="690.8000000000001"/>
      <point x="646.2" y="711.4"/>
      <point x="487.2" y="711.4" type="curve" smooth="yes"/>
      <point x="437.0" y="711.4"/>
      <point x="394.0" y="711.0"/>
      <point x="322.99999999999994" y="708.0" type="curve"/>
      <point x="322.99999999999994" y="398.4" type="line"/>
      <point x="374.0" y="398.4" type="line"/>
      <point x="374.0" y="525.0" type="line"/>
      <point x="418.0" y="524.4000000000001"/>
      <point x="449.40000000000003" y="523.4"/>
      <point x="487.4" y="523.4" type="curve" smooth="yes"/>
      <point x="495.59999999999997" y="523.4"/>
      <point x="503.79999999999995" y="523.4"/>
      <point x="511.99999999999994" y="523.4" type="curve"/>
      <point x="591.2" y="461.4"/>
      <point x="689.9999999999999" y="396.59999999999997"/>
    </contour>
    <contour>
      <point x="497.0" y="557.6" type="curve" smooth="yes"/>
      <point x="457.0" y="557.6"/>
      <point x="424.0" y="558.6"/>
      <point x="374.0" y="559.2" type="curve"/>
      <point x="374.0" y="670.8000000000001" type="line"/>
      <point x="427.8" y="673.4000000000001"/>
      <point x="438.2" y="674.0"/>
      <point x="490.0" y="674.0" type="curve" smooth="yes"/>
      <point x="614.3999999999999" y="674.0"/>
      <point x="648.4" y="663.8000000000001"/>
      <point x="648.4" y="618.4000000000001" type="curve" smooth="yes"/>
      <point x="648.4" y="559.1999999999999"/>
      <point x="589.0" y="557.6"/>
    </contour>
  </outline>
</glyph>
<glyph name="degree" format="2">
  <advance width="314.4"/>
  <unicode hex="00B0"/>
  <outline>
    <contour>
      <point x="156.6" y="478.4" type="curve" smooth="yes"/>
      <point x="231.6" y="478.4"/>
      <point x="282.79999999999995" y="536.0"/>
      <point x="282.79999999999995" y="600.6" type="curve" smooth="yes"/>
      <point x="282.79999999999995" y="664.0"/>
      <point x="233.2" y="724.4"/>
      <point x="156.6" y="724.4" type="curve" smooth="yes"/>
      <point x="79.60000000000001" y="724.4"/>
      <point x="31.6" y="664.0"/>
      <point x="31.6" y="600.6" type="curve" smooth="yes"/>
      <point x="31.6" y="536.0"/>
      <point x="81.60000000000001" y="478.4"/>
    </contour>
    <contour>
      <point x="156.6" y="526.4000000000001" type="curve" smooth="yes"/>
      <point x="115.4" y="526.4000000000001"/>
      <point x="83.19999999999999" y="559.0"/>
      <point x="83.19999999999999" y="600.6" type="curve" smooth="yes"/>
      <point x="83.19999999999999" y="641.4"/>
      <point x="115.0" y="675.9999999999999"/>
      <point x="156.6" y="675.9999999999999" type="curve" smooth="yes"/>
      <point x="197.8" y="675.9999999999999"/>
      <point x="231.6" y="641.4"/>
      <point x="231.6" y="600.6" type="curve" smooth="yes"/>
      <point x="231.6" y="559.0"/>
      <point x="197.8" y="526.4000000000001"/>
    </contour>
  </outline>
</glyph>
<glyph name="plusminus" format="2">
  <advance width="604.4"/>
  <unicode hex="00B1"/>
  <outline>
    <contour>
      <point x="62.4" y="57.4" type="line"/>
      <point x="542.0" y="57.4" type="line"/>
      <point x="542.0" y="114.39999999999999" type="line"/>
      <point x="334.6" y="114.39999999999999" type="line"/>
      <point x="334.6" y="300.20000000000005" type="line"/>
      <point x="542.0" y="300.20000000000005" type="line"/>
      <point x="542.0" y="357.20000000000005" type="line"/>
      <point x="334.6" y="357.20000000000005" type="line"/>
      <point x="334.6" y="548.4" type="line"/>
      <point x="269.6" y="548.4" type="line"/>
      <point x="269.6" y="357.20000000000005" type="line"/>
      <point x="62.4" y="357.20000000000005" type="line"/>
      <point x="62.4" y="300.20000000000005" type="line"/>
      <point x="269.6" y="300.20000000000005" type="line"/>
      <point x="269.6" y="114.39999999999999" type="line"/>
      <point x="62.4" y="114.39999999999999" type="line"/>
    </contour>
  </outline>
</glyph>
<glyph name="uni00B2" format="2">
  <advance width="647.8"/>
  <unicode hex="00B2"/>
  <outline>
    <contour>
      <point x="77.8" y="370.0" type="line"/>
      <point x="571.8" y="370.0" type="line"/>
      <point x="571.8" y="407.8" type="line"/>
      <point x="183.4" y="407.8" type="line"/>
      <point x="437.0" y="522.1999999999999"/>
      <point x="482.59999999999997" y="565.4"/>
      <point x="482.59999999999997" y="643.2" type="curve" smooth="yes"/>
      <point x="482.59999999999997" y="722.8"/>
      <point x="415.0" y="770.5999999999999"/>
      <point x="295.8" y="770.5999999999999" type="curve" smooth="yes"/>
      <point x="231.6" y="770.5999999999999"/>
      <point x="153.0" y="754.0"/>
      <point x="100.0" y="729.8" type="curve"/>
      <point x="114.60000000000001" y="692.1999999999999" type="line"/>
      <point x="168.20000000000002" y="714.6"/>
      <point x="228.0" y="726.8"/>
      <point x="283.2" y="726.8" type="curve" smooth="yes"/>
      <point x="372.0" y="726.8"/>
      <point x="418.2" y="692.4"/>
      <point x="418.2" y="634.4000000000001" type="curve" smooth="yes"/>
      <point x="418.2" y="563.0"/>
      <point x="351.20000000000005" y="521.6"/>
      <point x="75.4" y="403.2" type="curve"/>
    </contour>
  </outline>
</glyph>
<glyph name="uni00B3" format="2">
  <advance width="609.0"/>
  <unicode hex="00B3"/>
  <outline>
    <contour>
      <point x="23.799999999999997" y="408.6" type="line"/>
      <point x="99.6" y="374.2"/>
      <point x="180.6" y="360.59999999999997"/>
      <point x="284.2" y="360.59999999999997" type="curve" smooth="yes"/>
      <point x="457.4" y="360.59999999999997"/>
      <point x="564.8" y="404.59999999999997"/>
      <point x="564.8" y="485.8" type="curve" smooth="yes"/>
      <point x="564.8" y="539.8"/>
      <point x="512.6" y="572.2"/>
      <point x="417.6" y="577.8000000000001" type="curve"/>
      <point x="485.4" y="584.1999999999999"/>
      <point x="527.8" y="617.1999999999999"/>
      <point x="527.8" y="667.5999999999999" type="curve" smooth="yes"/>
      <point x="527.8" y="732.6"/>
      <point x="442.4" y="772.2"/>
      <point x="283.8" y="772.2" type="curve" smooth="yes"/>
      <point x="177.0" y="772.2"/>
      <point x="99.4" y="757.4"/>
      <point x="59.800000000000004" y="748.4" type="curve"/>
      <point x="68.0" y="709.1999999999999" type="line"/>
      <point x="106.4" y="716.4"/>
      <point x="162.8" y="732.4"/>
      <point x="270.8" y="732.4" type="curve" smooth="yes"/>
      <point x="392.40000000000003" y="732.4"/>
      <point x="469.6" y="704.4"/>
      <point x="469.6" y="658.0" type="curve" smooth="yes"/>
      <point x="469.6" y="613.8"/>
      <point x="417.0" y="590.4"/>
      <point x="321.0" y="590.4" type="curve" smooth="yes"/>
      <point x="167.6" y="590.4" type="line"/>
      <point x="167.6" y="556.6" type="line"/>
      <point x="312.8" y="556.6" type="line" smooth="yes"/>
      <point x="446.0" y="556.6"/>
      <point x="504.40000000000003" y="537.4"/>
      <point x="504.40000000000003" y="488.2" type="curve" smooth="yes"/>
      <point x="504.40000000000003" y="431.59999999999997"/>
      <point x="422.79999999999995" y="397.2"/>
      <point x="280.0" y="397.2" type="curve" smooth="yes"/>
      <point x="170.4" y="397.2"/>
      <point x="99.39999999999999" y="411.59999999999997"/>
      <point x="35.400000000000006" y="443.6" type="curve"/>
    </contour>
  </outline>
</glyph>
<glyph name="uni00B5" format="2">
  <advance width="879.2"/>
  <unicode hex="00B5"/>
  <outline>
    <contour>
      <point x="110.0" y="-210.0" type="line"/>
      <point x="186.0" y="-210.0" type="line"/>
      <point x="186.0" y="69.2" type="line"/>
      <point x="214.0" y="19.8"/>
      <point x="271.59999999999997" y="-10.0"/>
      <point x="359.8" y="-10.0" type="curve" smooth="yes"/>
      <point x="485.8" y="-10.0"/>
      <point x="570.6" y="31.6"/>
      <point x="681.8" y="91.2" type="curve"/>
      <point x="695.8000000000001" y="18.6"/>
      <point x="741.4000000000001" y="-10.0"/>
      <point x="792.0" y="-10.0" type="curve" smooth="yes"/>
      <point x="817.0" y="-10.0"/>
      <point x="844.8" y="-3.4"/>
      <point x="865.6" y="6.6000000000000005" type="curve"/>
      <point x="856.0" y="51.4" type="line"/>
      <point x="845.4" y="46.6"/>
      <point x="833.6" y="44.0"/>
      <point x="822.2" y="44.0" type="curve" smooth="yes"/>
      <point x="783.8" y="44.0"/>
      <point x="748.4" y="69.2"/>
      <point x="748.4" y="155.8" type="curve" smooth="yes"/>
      <point x="748.4" y="534.0" type="line"/>
      <point x="672.4" y="534.0" type="line"/>
      <point x="672.4" y="137.79999999999998" type="line"/>
      <point x="560.8" y="84.2"/>
      <point x="483.2" y="47.4"/>
      <point x="366.4" y="47.4" type="curve" smooth="yes"/>
      <point x="246.8" y="47.4"/>
      <point x="186.0" y="107.8"/>
      <point x="186.0" y="200.0" type="curve" smooth="yes"/>
      <point x="186.0" y="534.0" type="line"/>
      <point x="110.0" y="534.0" type="line"/>
    </contour>
  </outline>
</glyph>
<glyph name="paragraph" format="2">
  <advance width="824.4000000000001"/>
  <unicode hex="00B6"/>
  <outline>
    <contour>
      <point x="638.0" y="-210.0" type="line"/>
      <point x="700.0" y="-210.0" type="line"/>
      <point x="700.0" y="740.0" type="line"/>
      <point x="638.0" y="740.0" type="line"/>
    </contour>
    <contour>
      <point x="346.59999999999997" y="232.20000000000002" type="line"/>
      <point x="200.2" y="243.8"/>
      <point x="132.8" y="320.59999999999997"/>
      <point x="132.8" y="462.2" type="curve" smooth="yes"/>
      <point x="132.8" y="616.1999999999999"/>
      <point x="220.8" y="680.6"/>
      <point x="429.0" y="683.0" type="curve"/>
      <point x="429.0" y="-210.0" type="line"/>
      <point x="491.0" y="-210.0" type="line"/>
      <point x="491.0" y="740.0" type="line"/>
      <point x="446.6" y="740.0" type="line" smooth="yes"/>
      <point x="177.2" y="740.0"/>
      <point x="67.0" y="655.1999999999999"/>
      <point x="67.0" y="469.0" type="curve" smooth="yes"/>
      <point x="67.0" y="295.2"/>
      <point x="153.4" y="201.8"/>
      <point x="340.2" y="188.0" type="curve"/>
    </contour>
  </outline>
</glyph>
<glyph name="periodcentered" format="2">
  <advance width="255.0"/>
  <unicode hex="00B7"/>
  <outline>
    <contour>
      <point x="81.60000000000001" y="293.0" type="curve" smooth="yes"/>
      <point x="81.60000000000001" y="265.0"/>
      <point x="92.39999999999999" y="256.4"/>
      <point x="127.8" y="256.4" type="curve" smooth="yes"/>
      <point x="164.2" y="256.4"/>
      <point x="174.0" y="265.0"/>
      <point x="174.0" y="293.0" type="curve" smooth="yes"/>
      <point x="174.0" y="321.0"/>
      <point x="164.2" y="329.59999999999997"/>
      <point x="127.8" y="329.59999999999997" type="curve" smooth="yes"/>
      <point x="91.39999999999999" y="329.59999999999997"/>
      <point x="81.60000000000001" y="321.0"/>
    </contour>
  </outline>
</glyph>
<glyph name="uni00B9" format="2">
  <advance width="579.4"/>
  <unicode hex="00B9"/>
  <outline>
    <contour>
      <point x="44.4" y="370.0" type="line"/>
      <point x="548.6" y="370.0" type="line"/>
      <point x="548.6" y="408.8" type="line"/>
      <point x="348.8" y="408.8" type="line"/>
      <point x="348.8" y="767.1999999999999" type="line"/>
      <point x="316.4" y="767.1999999999999" type="line"/>
      <point x="31.6" y="655.0" type="line"/>
      <point x="48.0" y="614.0" type="line"/>
      <point x="285.6" y="709.1999999999999" type="line"/>
      <point x="285.6" y="408.8" type="line"/>
      <point x="44.4" y="408.8" type="line"/>
    </contour>
  </outline>
</glyph>
<glyph name="ordmasculine" format="2">
  <advance width="572.0"/>
  <unicode hex="00BA"/>
  <outline>
    <contour>
      <point x="80.39999999999999" y="249.0" type="line"/>
      <point x="506.20000000000005" y="249.0" type="line"/>
      <point x="506.20000000000005" y="292.59999999999997" type="line"/>
      <point x="80.39999999999999" y="292.59999999999997" type="line"/>
    </contour>
    <component base="o.superior" xOffset="8.000000000000002"/>
  </outline>
</glyph>
<glyph name="questiondown" format="2">
  <advance width="705.0"/>
  <unicode hex="00BF"/>
  <outline>
    <contour>
      <point x="402.4" y="273.2" type="line"/>
      <point x="336.2" y="273.2" type="line"/>
      <point x="335.8" y="211.60000000000002" type="line"/>
      <point x="133.4" y="169.6"/>
      <point x="39.0" y="109.0"/>
      <point x="39.0" y="-5.399999999999999" type="curve" smooth="yes"/>
      <point x="39.0" y="-168.4"/>
      <point x="198.20000000000002" y="-216.2"/>
      <point x="336.0" y="-216.2" type="curve" smooth="yes"/>
      <point x="447.8" y="-216.2"/>
      <point x="579.2" y="-189.6"/>
      <point x="672.8000000000001" y="-134.2" type="curve"/>
      <point x="651.4" y="-80.80000000000001" type="line"/>
      <point x="560.0" y="-131.60000000000002"/>
      <point x="446.8" y="-156.6"/>
      <point x="346.2" y="-156.6" type="curve" smooth="yes"/>
      <point x="239.2" y="-156.6"/>
      <point x="117.4" y="-123.20000000000002"/>
      <point x="117.4" y="-2.799999999999999" type="curve" smooth="yes"/>
      <point x="117.4" y="74.39999999999999"/>
      <point x="184.6" y="136.2"/>
      <point x="403.8" y="172.4" type="curve"/>
    </contour>
    <contour>
      <point x="410.20000000000005" y="499.6" type="curve" smooth="yes"/>
      <point x="410.20000000000005" y="527.4000000000001"/>
      <point x="399.6" y="536.0"/>
      <point x="364.0" y="536.0" type="curve" smooth="yes"/>
      <point x="327.6" y="536.0"/>
      <point x="317.8" y="527.4000000000001"/>
      <point x="317.8" y="499.6" type="curve" smooth="yes"/>
      <point x="317.8" y="471.59999999999997"/>
      <point x="327.6" y="463.0"/>
      <point x="364.0" y="463.0" type="curve" smooth="yes"/>
      <point x="400.4" y="463.0"/>
      <point x="410.20000000000005" y="471.59999999999997"/>
    </contour>
  </outline>
</glyph>
<glyph name="AE" format="2">
  <advance width="1574.8"/>
  <unicode hex="00C6"/>
  <anchor x="784.4" y="700.0" name="top"/>
  <outline>
    <contour>
      <point x="0.9999999999999989" y="0.0" type="line"/>
      <point x="97.0" y="-5.551115123125783e-17" type="line"/>
      <point x="380.4" y="277.4" type="line"/>
      <point x="739.2" y="277.4" type="line"/>
      <point x="739.2" y="0.0" type="line"/>
      <point x="1523.8" y="0.0" type="line"/>
      <point x="1523.8" y="64.0" type="line"/>
      <point x="819.1999999999999" y="64.0" type="line"/>
      <point x="819.1999999999999" y="313.40000000000003" type="line"/>
      <point x="1462.8" y="313.40000000000003" type="line"/>
      <point x="1462.8" y="375.4" type="line"/>
      <point x="819.1999999999999" y="375.4" type="line"/>
      <point x="819.1999999999999" y="636.0" type="line"/>
      <point x="1494.8000000000002" y="636.0" type="line"/>
      <point x="1494.8000000000002" y="700.0" type="line"/>
      <point x="710.0" y="700.0" type="line"/>
    </contour>
    <contour>
      <point x="433.40000000000003" y="339.4" type="line"/>
      <point x="739.2" y="639.2" type="line"/>
      <point x="739.2" y="339.4" type="line"/>
    </contour>
  </outline>
</glyph>
<glyph name="multiply" format="2">
  <advance width="584.4"/>
  <unicode hex="00D7"/>
  <outline>
    <contour>
      <point x="103.2" y="73.2" type="line"/>
      <point x="293.0" y="256.4" type="line"/>
      <point x="480.40000000000003" y="75.6" type="line"/>
      <point x="517.4" y="118.80000000000001" type="line"/>
      <point x="336.79999999999995" y="294.0" type="line"/>
      <point x="519.0" y="471.0" type="line"/>
      <point x="482.0" y="514.2" type="line"/>
      <point x="293.0" y="331.6" type="line"/>
      <point x="102.4" y="515.8" type="line"/>
      <point x="65.4" y="472.6" type="line"/>
      <point x="249.0" y="294.0" type="line"/>
      <point x="66.2" y="116.4" type="line"/>
    </contour>
  </outline>
</glyph>
<glyph name="Oslash" format="2">
  <advance width="1234.6"/>
  <unicode hex="00D8"/>
  <anchor x="616.0" y="700.0" name="top"/>
  <outline>
    <contour>
      <point x="164.0" y="-12.0" type="line"/>
      <point x="291.8" y="72.2" type="line"/>
      <point x="292.4" y="70.39999999999999" type="line"/>
      <point x="994.5999999999999" y="588.6" type="line"/>
      <point x="995.2" y="587.0" type="line"/>
      <point x="1155.8" y="712.0" type="line"/>
      <point x="1070.0" y="712.0" type="line"/>
      <point x="946.4" y="623.1999999999999" type="line"/>
      <point x="945.8" y="625.0" type="line"/>
      <point x="241.20000000000002" y="111.2" type="line"/>
      <point x="241.0" y="112.0" type="line"/>
      <point x="78.80000000000001" y="-12.0" type="line"/>
    </contour>
    <contour>
      <point x="616.1999999999999" y="43.800000000000004" type="curve" smooth="yes"/>
      <point x="406.4" y="43.800000000000004"/>
      <point x="160.0" y="108.4"/>
      <point x="160.0" y="350.4" type="curve" smooth="yes"/>
      <point x="160.0" y="601.4000000000001"/>
      <point x="406.2" y="656.2"/>
      <point x="616.1999999999999" y="656.2" type="curve" smooth="yes"/>
      <point x="826.1999999999999" y="656.2"/>
      <point x="1073.6000000000001" y="602.0"/>
      <point x="1073.6000000000001" y="350.4" type="curve" smooth="yes"/>
      <point x="1073.6000000000001" y="97.6"/>
      <point x="826.1999999999999" y="43.800000000000004"/>
    </contour>
    <contour>
      <point x="616.4" y="-10.0" type="curve" smooth="yes"/>
      <point x="886.4" y="-10.0"/>
      <point x="1153.6" y="61.400000000000006"/>
      <point x="1153.6" y="355.0" type="curve" smooth="yes"/>
      <point x="1153.6" y="637.2"/>
      <point x="881.6" y="710.0"/>
      <point x="616.1999999999999" y="710.0" type="curve" smooth="yes"/>
      <point x="347.20000000000005" y="710.0"/>
      <point x="81.0" y="634.0"/>
      <point x="81.0" y="351.0" type="curve" smooth="yes"/>
      <point x="81.0" y="75.0"/>
      <point x="352.0" y="-10.0"/>
    </contour>
  </outline>
</glyph>
<glyph name="Thorn" format="2">
  <advance width="1067.6"/>
  <unicode hex="00DE"/>
  <outline>
    <contour>
      <point x="128.60000000000002" y="0.0" type="line"/>
      <point x="208.6" y="0.0" type="line"/>
      <point x="208.6" y="154.4" type="line"/>
      <point x="370.40000000000003" y="150.39999999999998"/>
      <point x="425.2" y="149.6"/>
      <point x="559.6" y="149.6" type="curve" smooth="yes"/>
      <point x="882.6" y="149.6"/>
      <point x="996.8" y="205.60000000000002"/>
      <point x="996.8" y="395.0" type="curve" smooth="yes"/>
      <point x="996.8" y="563.8"/>
      <point x="909.8000000000001" y="631.0"/>
      <point x="521.8" y="631.0" type="curve" smooth="yes"/>
      <point x="465.2" y="631.0"/>
      <point x="385.6" y="629.2"/>
      <point x="208.6" y="622.6" type="curve"/>
      <point x="208.6" y="700.0" type="line"/>
      <point x="128.60000000000002" y="700.0" type="line"/>
    </contour>
    <contour>
      <point x="531.4" y="207.2" type="curve" smooth="yes"/>
      <point x="408.40000000000003" y="207.2"/>
      <point x="344.79999999999995" y="209.79999999999998"/>
      <point x="208.6" y="213.0" type="curve"/>
      <point x="208.6" y="565.2" type="line"/>
      <point x="395.8" y="572.4"/>
      <point x="459.0" y="574.0"/>
      <point x="527.2" y="574.0" type="curve" smooth="yes"/>
      <point x="839.4000000000001" y="574.0"/>
      <point x="915.4" y="522.0"/>
      <point x="915.4" y="394.8" type="curve" smooth="yes"/>
      <point x="915.4" y="256.8"/>
      <point x="839.2" y="207.2"/>
    </contour>
  </outline>
</glyph>
<glyph name="germandbls" format="2">
  <advance width="963.2"/>
  <unicode hex="00DF"/>
  <outline>
    <contour>
      <point x="170.79999999999998" y="0.0" type="line"/>
      <point x="246.8" y="0.0" type="line"/>
      <point x="246.8" y="478.8" type="line" smooth="yes"/>
      <point x="246.8" y="624.0"/>
      <point x="345.4" y="697.6"/>
      <point x="541.0" y="697.6" type="curve" smooth="yes"/>
      <point x="706.5999999999999" y="697.6"/>
      <point x="753.6" y="678.8000000000001"/>
      <point x="753.6" y="616.6" type="curve" smooth="yes"/>
      <point x="753.6" y="570.1999999999999"/>
      <point x="711.2" y="551.2"/>
      <point x="592.4" y="533.4000000000001" type="curve" smooth="yes"/>
      <point x="445.40000000000003" y="512.2"/>
      <point x="391.20000000000005" y="471.0"/>
      <point x="391.20000000000005" y="391.2" type="curve" smooth="yes"/>
      <point x="391.20000000000005" y="299.0"/>
      <point x="458.59999999999997" y="258.8"/>
      <point x="677.2" y="236.4" type="curve" smooth="yes"/>
      <point x="839.0" y="219.4"/>
      <point x="887.2" y="196.20000000000002"/>
      <point x="887.2" y="135.4" type="curve" smooth="yes"/>
      <point x="887.2" y="74.0"/>
      <point x="792.8" y="39.8"/>
      <point x="674.4" y="39.8" type="curve" smooth="yes"/>
      <point x="580.6" y="39.8"/>
      <point x="446.8" y="60.0"/>
      <point x="349.6" y="89.6" type="curve"/>
      <point x="339.20000000000005" y="37.2" type="line"/>
      <point x="442.0" y="7.2"/>
      <point x="570.4" y="-11.0"/>
      <point x="669.1999999999999" y="-11.0" type="curve" smooth="yes"/>
      <point x="825.0" y="-11.0"/>
      <point x="958.8" y="35.4"/>
      <point x="958.8" y="140.20000000000002" type="curve" smooth="yes"/>
      <point x="958.8" y="232.6"/>
      <point x="892.0" y="274.0"/>
      <point x="686.8" y="294.8" type="curve" smooth="yes"/>
      <point x="518.6" y="311.6"/>
      <point x="458.8" y="333.8"/>
      <point x="458.8" y="394.8" type="curve" smooth="yes"/>
      <point x="458.8" y="448.20000000000005"/>
      <point x="507.2" y="468.4"/>
      <point x="615.0" y="485.0" type="curve" smooth="yes"/>
      <point x="760.0" y="507.2"/>
      <point x="822.8" y="536.0"/>
      <point x="822.8" y="614.8" type="curve" smooth="yes"/>
      <point x="822.8" y="711.2"/>
      <point x="736.2" y="750.0"/>
      <point x="540.6" y="750.0" type="curve" smooth="yes"/>
      <point x="293.0" y="750.0"/>
      <point x="172.6" y="665.8"/>
      <point x="170.79999999999998" y="494.6" type="curve" smooth="yes"/>
      <point x="170.79999999999998" y="484.0" type="line"/>
      <point x="39.0" y="476.2" type="line"/>
      <point x="39.0" y="432.40000000000003" type="line"/>
      <point x="170.79999999999998" y="432.40000000000003" type="line"/>
    </contour>
  </outline>
</glyph>
<glyph name="ae" format="2">
  <advance width="1365.4"/>
  <unicode hex="00E6"/>
  <anchor x="701.8" y="534.0" name="top"/>
  <outline>
    <contour>
      <point x="256.8" y="-10.0" type="curve" smooth="yes"/>
      <point x="406.6" y="-10.0"/>
      <point x="518.3999999999999" y="36.2"/>
      <point x="642.0" y="128.00000000000003" type="curve"/>
      <point x="643.0" y="128.00000000000003" type="line"/>
      <point x="692.9999999999999" y="38.599999999999994"/>
      <point x="807.2" y="-10.0"/>
      <point x="971.0000000000001" y="-10.0" type="curve" smooth="yes"/>
      <point x="1127.8" y="-10.0"/>
      <point x="1220.2" y="8.6"/>
      <point x="1300.2" y="26.2" type="curve"/>
      <point x="1290.6" y="78.6" type="line"/>
      <point x="1215.6" y="62.800000000000004"/>
      <point x="1116.2" y="43.2"/>
      <point x="974.6000000000001" y="43.2" type="curve" smooth="yes"/>
      <point x="799.1999999999999" y="43.2"/>
      <point x="695.2" y="116.60000000000001"/>
      <point x="691.0000000000001" y="235.2" type="curve" smooth="yes"/>
      <point x="690.6" y="245.79999999999998"/>
      <point x="690.6" y="248.40000000000003"/>
      <point x="692.2" y="265.4" type="curve"/>
      <point x="1013.8" y="266.59999999999997"/>
      <point x="1230.4" y="283.6"/>
      <point x="1304.4" y="287.0" type="curve"/>
      <point x="1305.3999999999999" y="292.79999999999995"/>
      <point x="1305.8" y="300.4"/>
      <point x="1305.8" y="313.2" type="curve" smooth="yes"/>
      <point x="1305.8" y="461.2"/>
      <point x="1187.8" y="544.0"/>
      <point x="978.0" y="544.0" type="curve" smooth="yes"/>
      <point x="817.6" y="544.0"/>
      <point x="709.8000000000001" y="484.2"/>
      <point x="668.4" y="386.2" type="curve"/>
      <point x="667.4000000000001" y="386.2" type="line"/>
      <point x="652.6" y="488.6"/>
      <point x="564.4" y="544.0"/>
      <point x="394.8" y="544.0" type="curve" smooth="yes"/>
      <point x="314.4" y="544.0"/>
      <point x="219.4" y="531.4000000000001"/>
      <point x="120.80000000000001" y="507.4" type="curve"/>
      <point x="130.4" y="455.0" type="line"/>
      <point x="222.2" y="477.4"/>
      <point x="318.0" y="490.79999999999995"/>
      <point x="392.40000000000003" y="490.79999999999995" type="curve" smooth="yes"/>
      <point x="539.8000000000001" y="490.79999999999995"/>
      <point x="617.2" y="442.2"/>
      <point x="617.2" y="351.4" type="curve" smooth="yes"/>
      <point x="617.2" y="308.8" type="line"/>
      <point x="177.39999999999998" y="298.2"/>
      <point x="69.6" y="262.6"/>
      <point x="69.6" y="129.79999999999998" type="curve" smooth="yes"/>
      <point x="69.6" y="39.2"/>
      <point x="135.6" y="-10.0"/>
    </contour>
    <contour>
      <point x="281.6" y="38.4" type="curve" smooth="yes"/>
      <point x="194.99999999999997" y="38.4"/>
      <point x="147.6" y="70.60000000000001"/>
      <point x="147.6" y="134.39999999999998" type="curve" smooth="yes"/>
      <point x="147.6" y="230.20000000000002"/>
      <point x="240.6" y="256.4"/>
      <point x="615.6" y="266.8" type="curve"/>
      <point x="615.0000000000001" y="260.2"/>
      <point x="615.0000000000001" y="254.79999999999998"/>
      <point x="615.0000000000001" y="238.6" type="curve" smooth="yes"/>
      <point x="615.0000000000001" y="214.0"/>
      <point x="617.2" y="193.20000000000002"/>
      <point x="623.0" y="175.99999999999997" type="curve"/>
      <point x="533.6000000000001" y="91.4"/>
      <point x="397.79999999999995" y="38.4"/>
    </contour>
    <contour>
      <point x="694.8" y="309.8" type="curve"/>
      <point x="717.8000000000001" y="429.4"/>
      <point x="820.4" y="493.6"/>
      <point x="974.0" y="493.6" type="curve" smooth="yes"/>
      <point x="1128.0" y="493.6"/>
      <point x="1224.0" y="429.79999999999995"/>
      <point x="1227.2" y="326.6" type="curve"/>
      <point x="1172.4" y="323.6"/>
      <point x="979.4000000000001" y="309.8"/>
    </contour>
  </outline>
</glyph>
<glyph name="eth" format="2">
  <advance width="899.0"/>
  <unicode hex="00F0"/>
  <outline>
    <contour>
      <point x="774.2" y="389.20000000000005" type="curve"/>
      <point x="774.5999999999999" y="435.80000000000007" type="line"/>
      <point x="686.8" y="497.0"/>
      <point x="579.6" y="521.6"/>
      <point x="448.4" y="521.6" type="curve" smooth="yes"/>
      <point x="184.8" y="521.6"/>
      <point x="64.4" y="424.6"/>
      <point x="64.4" y="256.8" type="curve" smooth="yes"/>
      <point x="64.4" y="80.2"/>
      <point x="191.2" y="-10.0"/>
      <point x="428.8" y="-10.0" type="curve" smooth="yes"/>
      <point x="708.4" y="-10.0"/>
      <point x="838.2" y="102.8"/>
      <point x="838.2" y="357.6" type="curve" smooth="yes"/>
      <point x="838.2" y="601.2"/>
      <point x="669.6" y="721.6"/>
      <point x="380.0" y="721.6" type="curve" smooth="yes"/>
      <point x="283.59999999999997" y="721.6"/>
      <point x="200.6" y="713.0"/>
      <point x="90.19999999999999" y="690.1999999999999" type="curve"/>
      <point x="96.0" y="644.8000000000001" type="line"/>
      <point x="199.4" y="664.8000000000001"/>
      <point x="275.0" y="675.0"/>
      <point x="365.59999999999997" y="675.0" type="curve" smooth="yes"/>
      <point x="631.0" y="675.0"/>
      <point x="765.0" y="572.0"/>
      <point x="765.0" y="352.2" type="curve" smooth="yes"/>
      <point x="765.0" y="135.0"/>
      <point x="663.0" y="42.00000000000001"/>
      <point x="436.8" y="42.00000000000001" type="curve" smooth="yes"/>
      <point x="244.79999999999998" y="42.00000000000001"/>
      <point x="141.6" y="114.60000000000001"/>
      <point x="141.6" y="260.6" type="curve" smooth="yes"/>
      <point x="141.6" y="399.6"/>
      <point x="248.2" y="473.40000000000003"/>
      <point x="457.2" y="473.40000000000003" type="curve" smooth="yes"/>
      <point x="585.1999999999999" y="473.40000000000003"/>
      <point x="682.6" y="447.6"/>
    </contour>
    <contour>
      <point x="246.4" y="547.2" type="line"/>
      <point x="597.2" y="657.1999999999999" type="line"/>
      <point x="594.2" y="660.2" type="line"/>
      <point x="818.6" y="733.5999999999999" type="line"/>
      <point x="709.4" y="733.5999999999999" type="line"/>
      <point x="540.4" y="678.8000000000001" type="line"/>
      <point x="550.2" y="678.1999999999999" type="line"/>
      <point x="137.2" y="547.2" type="line"/>
    </contour>
  </outline>
</glyph>
<glyph name="divide" format="2">
  <advance width="604.4"/>
  <unicode hex="00F7"/>
  <outline>
    <contour>
      <point x="263.8" y="98.0" type="curve" smooth="yes"/>
      <point x="263.8" y="73.6"/>
      <point x="272.6" y="67.0"/>
      <point x="302.4" y="67.0" type="curve" smooth="yes"/>
      <point x="333.2" y="67.0"/>
      <point x="341.0" y="73.6"/>
      <point x="341.0" y="98.0" type="curve" smooth="yes"/>
      <point x="341.0" y="122.4"/>
      <point x="333.2" y="129.4"/>
      <point x="302.4" y="129.4" type="curve" smooth="yes"/>
      <point x="271.6" y="129.4"/>
      <point x="263.8" y="122.4"/>
    </contour>
    <contour>
      <point x="263.8" y="492.0" type="curve" smooth="yes"/>
      <point x="263.8" y="468.0"/>
      <point x="272.59999999999997" y="461.0"/>
      <point x="302.4" y="461.0" type="curve" smooth="yes"/>
      <point x="333.2" y="461.0"/>
      <point x="341.0" y="468.0"/>
      <point x="341.0" y="492.0" type="curve" smooth="yes"/>
      <point x="341.0" y="516.8"/>
      <point x="333.2" y="523.4"/>
      <point x="302.4" y="523.4" type="curve" smooth="yes"/>
      <point x="271.6" y="523.4"/>
      <point x="263.8" y="516.8"/>
    </contour>
    <contour>
      <point x="62.599999999999994" y="266.59999999999997" type="line"/>
      <point x="542.2" y="266.59999999999997" type="line"/>
      <point x="542.2" y="323.4" type="line"/>
      <point x="62.599999999999994" y="323.4" type="line"/>
    </contour>
  </outline>
</glyph>
<glyph name="oslash" format="2">
  <advance width="910.0"/>
  <unicode hex="00F8"/>
  <anchor x="455.0" y="534.0" name="top"/>
  <outline>
    <contour>
      <point x="455.0" y="-10.0" type="curve" smooth="yes"/>
      <point x="184.20000000000002" y="-10.0"/>
      <point x="65.2" y="84.8"/>
      <point x="65.2" y="269.0" type="curve" smooth="yes"/>
      <point x="65.2" y="440.20000000000005"/>
      <point x="166.8" y="544.0"/>
      <point x="455.0" y="544.0" type="curve" smooth="yes"/>
      <point x="742.8000000000001" y="544.0"/>
      <point x="844.8" y="440.20000000000005"/>
      <point x="844.8" y="269.0" type="curve" smooth="yes"/>
      <point x="844.8" y="84.8"/>
      <point x="725.8000000000001" y="-10.0"/>
    </contour>
    <contour>
      <point x="455.0" y="38.800000000000004" type="curve" smooth="yes"/>
      <point x="677.6" y="38.800000000000004"/>
      <point x="769.6" y="122.6"/>
      <point x="769.6" y="269.0" type="curve" smooth="yes"/>
      <point x="769.6" y="406.2"/>
      <point x="692.6" y="495.2"/>
      <point x="455.0" y="495.2" type="curve" smooth="yes"/>
      <point x="217.4" y="495.2"/>
      <point x="140.4" y="406.2"/>
      <point x="140.4" y="269.0" type="curve" smooth="yes"/>
      <point x="140.4" y="122.6"/>
      <point x="232.0" y="38.800000000000004"/>
    </contour>
    <contour>
      <point x="65.2" y="-10.0" type="line"/>
      <point x="185.6" y="85.60000000000001" type="line"/>
      <point x="185.6" y="85.6" type="line"/>
      <point x="690.2" y="480.2" type="line"/>
      <point x="690.1999999999999" y="480.20000000000005" type="line"/>
      <point x="771.8" y="544.0" type="line"/>
      <point x="844.8" y="544.0" type="line"/>
      <point x="729.4000000000001" y="452.8" type="line"/>
      <point x="729.4000000000001" y="452.8" type="line"/>
      <point x="221.8" y="56.199999999999996" type="line"/>
      <point x="221.8" y="56.199999999999996" type="line"/>
      <point x="137.4" y="-10.0" type="line"/>
    </contour>
  </outline>
</glyph>
<glyph name="thorn" format="2">
  <advance width="874.5999999999999"/>
  <unicode hex="00FE"/>
  <outline>
    <contour>
      <point x="110.0" y="-210.0" type="line"/>
      <point x="186.2" y="-210.0" type="line"/>
      <point x="186.2" y="11.4" type="line"/>
      <point x="260.8" y="-2.6000000000000005"/>
      <point x="341.2" y="-10.0"/>
      <point x="410.40000000000003" y="-10.0" type="curve" smooth="yes"/>
      <point x="686.0" y="-10.0"/>
      <point x="809.6" y="76.2"/>
      <point x="809.6" y="267.8" type="curve" smooth="yes"/>
      <point x="809.6" y="444.79999999999995"/>
      <point x="680.6" y="544.0"/>
      <point x="447.59999999999997" y="544.0" type="curve" smooth="yes"/>
      <point x="364.6" y="544.0"/>
      <point x="278.2" y="532.4"/>
      <point x="186.2" y="509.4" type="curve"/>
      <point x="186.2" y="740.0" type="line"/>
      <point x="110.0" y="740.0" type="line"/>
    </contour>
    <contour>
      <point x="411.0" y="41.4" type="curve" smooth="yes"/>
      <point x="348.79999999999995" y="41.4"/>
      <point x="272.40000000000003" y="49.6"/>
      <point x="186.0" y="66.8" type="curve"/>
      <point x="186.0" y="458.6" type="line"/>
      <point x="267.4" y="476.59999999999997"/>
      <point x="350.8" y="486.40000000000003"/>
      <point x="416.20000000000005" y="486.40000000000003" type="curve" smooth="yes"/>
      <point x="625.2" y="486.40000000000003"/>
      <point x="732.8" y="411.2"/>
      <point x="732.8" y="265.0" type="curve" smooth="yes"/>
      <point x="732.8" y="110.4"/>
      <point x="632.8" y="41.4"/>
    </contour>
  </outline>
</glyph>
<glyph name="Dcroat" format="2">
  <advance width="1151.2"/>
  <unicode hex="0110"/>
  <outline>
    <contour>
      <point x="-1.5999999999999996" y="332.40000000000003" type="line"/>
      <point x="431.2" y="332.40000000000003" type="line"/>
      <point x="431.2" y="385.2" type="line"/>
      <point x="-1.5999999999999996" y="385.2" type="line"/>
    </contour>
    <component base="D" xOffset="1.5999999999999996"/>
  </outline>
</glyph>
<glyph name="dcroat" format="2">
  <advance width="877.0"/>
  <unicode hex="0111"/>
  <outline>
    <contour>
      <point x="421.6" y="611.6" type="line"/>
      <point x="890.6" y="611.6" type="line"/>
      <point x="890.6" y="651.6" type="line"/>
      <point x="421.6" y="651.6" type="line"/>
    </contour>
    <component base="d"/>
  </outline>
</glyph>
<glyph name="Hbar" format="2">
  <advance width="1180.6000000000001"/>
  <unicode hex="0126"/>
  <outline>
    <contour>
      <point x="38.8" y="497.2" type="line"/>
      <point x="128.8" y="497.2" type="line"/>
      <point x="128.8" y="0.0" type="line"/>
      <point x="208.8" y="0.0" type="line"/>
      <point x="208.8" y="274.4" type="line"/>
      <point x="973.8000000000001" y="274.4" type="line"/>
      <point x="973.8000000000001" y="0.0" type="line"/>
      <point x="1051.8" y="0.0" type="line"/>
      <point x="1051.8" y="497.2" type="line"/>
      <point x="1141.8" y="497.2" type="line"/>
      <point x="1141.8" y="546.4" type="line"/>
      <point x="1051.8" y="546.4" type="line"/>
      <point x="1051.8" y="700.0" type="line"/>
      <point x="973.8000000000001" y="700.0" type="line"/>
      <point x="973.8000000000001" y="546.4" type="line"/>
      <point x="208.8" y="546.4" type="line"/>
      <point x="208.8" y="700.0" type="line"/>
      <point x="128.8" y="700.0" type="line"/>
      <point x="128.8" y="546.4" type="line"/>
      <point x="38.8" y="546.4" type="line"/>
    </contour>
    <contour>
      <point x="208.8" y="338.40000000000003" type="line"/>
      <point x="208.8" y="497.2" type="line"/>
      <point x="973.8000000000001" y="497.2" type="line"/>
      <point x="973.8000000000001" y="338.40000000000003" type="line"/>
    </contour>
  </outline>
</glyph>
<glyph name="hbar" format="2">
  <advance width="892.8"/>
  <unicode hex="0127"/>
  <outline>
    <contour>
      <point x="-14.0" y="611.4" type="line"/>
      <point x="503.2" y="611.4" type="line"/>
      <point x="503.2" y="646.6" type="line"/>
      <point x="-14.0" y="646.6" type="line"/>
    </contour>
    <component base="h"/>
  </outline>
</glyph>
<glyph name="Idotaccent" format="2">
  <advance width="337.20000000000005"/>
  <unicode hex="0130"/>
  <outline>
    <contour>
      <point x="168.6" y="813.6" type="curve" smooth="yes"/>
      <point x="207.4" y="813.6"/>
      <point x="218.20000000000002" y="822.0"/>
      <point x="218.20000000000002" y="849.2" type="curve" smooth="yes"/>
      <point x="218.20000000000002" y="876.4"/>
      <point x="207.39999999999998" y="884.8"/>
      <point x="168.6" y="884.8" type="curve" smooth="yes"/>
      <point x="129.8" y="884.8"/>
      <point x="119.0" y="876.4"/>
      <point x="119.0" y="849.2" type="curve" smooth="yes"/>
      <point x="119.0" y="822.0"/>
      <point x="130.6" y="813.6"/>
    </contour>
    <component base="I"/>
  </outline>
</glyph>
<glyph name="dotlessi" format="2">
  <advance width="296.0"/>
  <unicode hex="0131"/>
  <anchor x="179.20000000000002" y="2.0" name="ogonek"/>
  <anchor x="148.0" y="0.0" name="bottom"/>
  <anchor x="148.0" y="534.0" name="top"/>
  <outline>
    <contour>
      <point x="110.0" y="0.0" type="line"/>
      <point x="186.0" y="0.0" type="line"/>
      <point x="186.0" y="534.0" type="line"/>
      <point x="110.0" y="534.0" type="line"/>
    </contour>
  </outline>
</glyph>
<glyph name="kgreenlandic" format="2">
  <advance width="816.6"/>
  <unicode hex="0138"/>
  <anchor x="407.0" y="534.0" name="top"/>
  <anchor x="407.0" y="0.0" name="bottom"/>
  <outline>
    <contour>
      <point x="773.8000000000001" y="-10.0" type="curve" smooth="yes"/>
      <point x="783.0" y="-10.0"/>
      <point x="791.1999999999999" y="-10.0"/>
      <point x="797.4000000000001" y="-9.0" type="curve"/>
      <point x="794.2" y="58.6" type="line"/>
      <point x="788.0" y="57.6"/>
      <point x="781.8" y="57.6"/>
      <point x="777.8" y="57.6" type="curve" smooth="yes"/>
      <point x="729.0" y="57.6"/>
      <point x="656.5999999999999" y="94.0"/>
      <point x="483.8" y="205.0" type="curve" smooth="yes"/>
      <point x="184.0" y="398.20000000000005" type="line"/>
      <point x="184.0" y="534.0" type="line"/>
      <point x="110.0" y="534.0" type="line"/>
      <point x="110.0" y="0.0" type="line"/>
      <point x="184.0" y="0.0" type="line"/>
      <point x="184.0" y="325.0" type="line"/>
      <point x="476.8" y="134.0" type="line" smooth="yes"/>
      <point x="682.0" y="0.39999999999999947"/>
      <point x="725.6" y="-10.0"/>
    </contour>
    <contour>
      <point x="351.40000000000003" y="264.0" type="line"/>
      <point x="477.40000000000003" y="318.0"/>
      <point x="667.6" y="403.0"/>
      <point x="747.0" y="532.4000000000001" type="curve"/>
      <point x="667.0" y="544.0" type="line"/>
      <point x="594.2" y="431.4"/>
      <point x="429.8" y="354.4"/>
      <point x="273.0" y="281.0" type="curve"/>
    </contour>
  </outline>
</glyph>
<glyph name="Ldot" format="2">
  <advance width="888.4"/>
  <unicode hex="013F"/>
  <outline>
    <contour>
      <point x="558.8" y="386.6" type="curve" smooth="yes"/>
      <point x="558.8" y="358.8"/>
      <point x="569.4" y="350.2"/>
      <point x="605.0" y="350.2" type="curve" smooth="yes"/>
      <point x="641.4" y="350.2"/>
      <point x="651.2" y="358.8"/>
      <point x="651.2" y="386.6" type="curve" smooth="yes"/>
      <point x="651.2" y="414.6"/>
      <point x="641.4" y="423.20000000000005"/>
      <point x="605.0" y="423.20000000000005" type="curve" smooth="yes"/>
      <point x="568.6" y="423.20000000000005"/>
      <point x="558.8" y="414.6"/>
    </contour>
    <component base="L"/>
  </outline>
</glyph>
<glyph name="ldot" format="2">
  <advance width="399.6"/>
  <unicode hex="0140"/>
  <outline>
    <contour>
      <point x="359.4" y="340.6" type="curve" smooth="yes"/>
      <point x="384.0" y="340.6"/>
      <point x="389.2" y="346.8"/>
      <point x="389.2" y="370.2" type="curve" smooth="yes"/>
      <point x="389.2" y="393.6"/>
      <point x="384.0" y="399.8"/>
      <point x="359.4" y="399.8" type="curve" smooth="yes"/>
      <point x="334.8" y="399.8"/>
      <point x="329.59999999999997" y="393.6"/>
      <point x="329.59999999999997" y="370.2" type="curve" smooth="yes"/>
      <point x="329.59999999999997" y="346.8"/>
      <point x="335.6" y="340.6"/>
    </contour>
    <component base="l"/>
  </outline>
</glyph>
<glyph name="Lslash" format="2">
  <advance width="888.4"/>
  <unicode hex="0141"/>
  <outline>
    <contour>
      <point x="20.4" y="169.4" type="line"/>
      <point x="128.6" y="229.4" type="line"/>
      <point x="128.6" y="0.0" type="line"/>
      <point x="858.1999999999999" y="0.0" type="line"/>
      <point x="858.1999999999999" y="64.0" type="line"/>
      <point x="208.6" y="64.0" type="line"/>
      <point x="208.6" y="265.4" type="line"/>
      <point x="561.0" y="460.6" type="line"/>
      <point x="561.0" y="525.4000000000001" type="line"/>
      <point x="208.6" y="330.2" type="line"/>
      <point x="208.6" y="700.0" type="line"/>
      <point x="128.6" y="700.0" type="line"/>
      <point x="128.6" y="294.2" type="line"/>
      <point x="20.4" y="234.20000000000002" type="line"/>
    </contour>
  </outline>
</glyph>
<glyph name="lslash" format="2">
  <advance width="399.6"/>
  <unicode hex="0142"/>
  <outline>
    <contour>
      <point x="275.0" y="-10.0" type="curve" smooth="yes"/>
      <point x="325.0" y="-10.0"/>
      <point x="373.8" y="-0.7999999999999998"/>
      <point x="412.8" y="9.0" type="curve"/>
      <point x="402.8" y="65.4" type="line"/>
      <point x="369.6" y="58.0"/>
      <point x="332.8" y="50.6"/>
      <point x="299.20000000000005" y="50.6" type="curve" smooth="yes"/>
      <point x="241.20000000000002" y="50.6"/>
      <point x="188.0" y="75.0"/>
      <point x="188.0" y="180.0" type="curve" smooth="yes"/>
      <point x="188.0" y="278.6" type="line"/>
      <point x="342.6" y="417.8" type="line"/>
      <point x="342.6" y="479.6" type="line"/>
      <point x="188.0" y="340.40000000000003" type="line"/>
      <point x="188.0" y="740.0" type="line"/>
      <point x="112.0" y="740.0" type="line"/>
      <point x="112.0" y="298.2" type="line"/>
      <point x="29.200000000000003" y="224.2" type="line"/>
      <point x="29.200000000000003" y="162.4" type="line"/>
      <point x="112.39999999999999" y="236.6" type="line"/>
      <point x="112.8" y="163.0" type="line" smooth="yes"/>
      <point x="116.19999999999999" y="25.2"/>
      <point x="187.6" y="-10.0"/>
    </contour>
  </outline>
</glyph>
<glyph name="Eng" format="2">
  <advance width="1164.2"/>
  <unicode hex="014A"/>
  <outline>
    <contour>
      <point x="128.60000000000002" y="0.0" type="line"/>
      <point x="202.6" y="0.0" type="line"/>
      <point x="202.6" y="610.0" type="line"/>
      <point x="961.5999999999999" y="-2.5999999999999996" type="line"/>
      <point x="961.5999999999999" y="-9.0" type="line" smooth="yes"/>
      <point x="956.8" y="-122.60000000000001"/>
      <point x="853.6" y="-164.8"/>
      <point x="719.2" y="-164.8" type="curve" smooth="yes"/>
      <point x="651.0" y="-164.8"/>
      <point x="576.4" y="-153.6"/>
      <point x="515.4000000000001" y="-141.2" type="curve"/>
      <point x="503.20000000000005" y="-196.20000000000002" type="line"/>
      <point x="566.8" y="-208.79999999999998"/>
      <point x="647.4" y="-220.0"/>
      <point x="724.0" y="-220.0" type="curve" smooth="yes"/>
      <point x="899.0" y="-220.0"/>
      <point x="1035.6" y="-162.39999999999998"/>
      <point x="1035.6" y="-10.0" type="curve" smooth="yes"/>
      <point x="1035.6" y="700.0" type="line"/>
      <point x="961.6" y="700.0" type="line"/>
      <point x="961.6" y="83.80000000000001" type="line"/>
      <point x="197.4" y="708.0" type="line"/>
      <point x="128.60000000000002" y="708.0" type="line"/>
    </contour>
  </outline>
</glyph>
<glyph name="eng" format="2">
  <advance width="892.8000000000001"/>
  <unicode hex="014B"/>
  <outline>
    <contour>
      <point x="782.8000000000001" y="15.0" type="curve"/>
      <point x="782.8000000000001" y="336.8" type="line" smooth="yes"/>
      <point x="782.8000000000001" y="462.59999999999997"/>
      <point x="704.0" y="544.0"/>
      <point x="538.8000000000001" y="544.0" type="curve" smooth="yes"/>
      <point x="400.6" y="544.0"/>
      <point x="306.8" y="502.4"/>
      <point x="179.8" y="442.79999999999995" type="curve"/>
      <point x="179.8" y="534.0" type="line"/>
      <point x="110.0" y="534.0" type="line"/>
      <point x="110.0" y="0.0" type="line"/>
      <point x="186.0" y="0.0" type="line"/>
      <point x="186.0" y="394.2" type="line"/>
      <point x="306.2" y="448.79999999999995"/>
      <point x="389.2" y="485.8"/>
      <point x="514.1999999999999" y="485.8" type="curve" smooth="yes"/>
      <point x="646.1999999999999" y="485.8"/>
      <point x="706.8" y="421.4"/>
      <point x="706.8" y="315.2" type="curve" smooth="yes"/>
      <point x="706.8" y="12.600000000000001" type="line" smooth="yes"/>
      <point x="706.8" y="-66.39999999999999"/>
      <point x="680.4" y="-115.2"/>
      <point x="630.8" y="-140.8" type="curve" smooth="yes"/>
      <point x="620.1999999999999" y="-145.6"/>
      <point x="608.8000000000001" y="-149.2"/>
      <point x="596.6" y="-152.0" type="curve"/>
      <point x="600.8000000000001" y="-207.0" type="line"/>
      <point x="617.8000000000001" y="-205.0"/>
      <point x="634.4000000000001" y="-200.8"/>
      <point x="649.0" y="-196.0" type="curve" smooth="yes"/>
      <point x="733.2" y="-168.0"/>
      <point x="782.8000000000001" y="-94.8"/>
    </contour>
  </outline>
</glyph>
<glyph name="OE" format="2">
  <advance width="1782.3999999999999"/>
  <unicode hex="0152"/>
  <outline>
    <contour>
      <point x="1731.4" y="0.0" type="line"/>
      <point x="1731.4" y="64.0" type="line"/>
      <point x="1020.8" y="64.0" type="line"/>
      <point x="1020.8" y="345.79999999999995" type="line"/>
      <point x="1670.3999999999999" y="345.79999999999995" type="line"/>
      <point x="1670.3999999999999" y="407.8" type="line"/>
      <point x="1020.8" y="407.8" type="line"/>
      <point x="1020.8" y="636.0" type="line"/>
      <point x="1702.4" y="636.0" type="line"/>
      <point x="1702.4" y="700.0" type="line"/>
      <point x="1020.8" y="700.0" type="line"/>
      <point x="872.8" y="704.0"/>
      <point x="726.5999999999999" y="710.0"/>
      <point x="607.8" y="710.0" type="curve" smooth="yes"/>
      <point x="315.6" y="710.0"/>
      <point x="80.8" y="613.6"/>
      <point x="80.8" y="356.0" type="curve" smooth="yes"/>
      <point x="80.8" y="44.60000000000001"/>
      <point x="355.0" y="-10.0"/>
      <point x="638.8000000000001" y="-10.0" type="curve" smooth="yes"/>
      <point x="773.0" y="-10.0"/>
      <point x="885.0" y="-4.4"/>
      <point x="1020.8" y="0.0" type="curve"/>
    </contour>
    <contour>
      <point x="940.8" y="54.400000000000006" type="line"/>
      <point x="877.6" y="52.400000000000006"/>
      <point x="751.4" y="45.6"/>
      <point x="637.8" y="45.6" type="curve" smooth="yes"/>
      <point x="412.20000000000005" y="45.6"/>
      <point x="162.60000000000002" y="86.6"/>
      <point x="162.60000000000002" y="354.6" type="curve" smooth="yes"/>
      <point x="162.60000000000002" y="599.8000000000001"/>
      <point x="415.00000000000006" y="654.4000000000001"/>
      <point x="611.8" y="654.4000000000001" type="curve" smooth="yes"/>
      <point x="668.8" y="654.4000000000001"/>
      <point x="900.3999999999999" y="645.6"/>
      <point x="940.8" y="645.1999999999999" type="curve"/>
    </contour>
  </outline>
</glyph>
<glyph name="oe" format="2">
  <advance width="1560.3999999999999"/>
  <unicode hex="0153"/>
  <outline>
    <contour>
      <point x="65.0" y="269.0" type="curve" smooth="yes"/>
      <point x="65.0" y="84.8"/>
      <point x="184.0" y="-10.0"/>
      <point x="455.0" y="-10.0" type="curve" smooth="yes"/>
      <point x="652.4" y="-10.0"/>
      <point x="764.1999999999999" y="45.0"/>
      <point x="805.2" y="151.79999999999998" type="curve"/>
      <point x="848.5999999999999" y="44.8"/>
      <point x="971.4" y="-10.0"/>
      <point x="1125.6" y="-10.0" type="curve" smooth="yes"/>
      <point x="1282.6" y="-10.0"/>
      <point x="1414.8" y="12.600000000000001"/>
      <point x="1494.8" y="30.0" type="curve"/>
      <point x="1485.4" y="82.4" type="line"/>
      <point x="1407.0" y="66.2"/>
      <point x="1268.3999999999999" y="42.6"/>
      <point x="1129.0" y="42.6" type="curve" smooth="yes"/>
      <point x="959.4" y="42.6"/>
      <point x="844.6" y="111.8"/>
      <point x="844.6" y="239.4" type="curve" smooth="yes"/>
      <point x="844.6" y="250.2"/>
      <point x="845.4000000000001" y="259.6"/>
      <point x="846.2" y="269.4" type="curve"/>
      <point x="1166.8" y="270.4"/>
      <point x="1425.0" y="287.4"/>
      <point x="1499.2" y="290.8" type="curve"/>
      <point x="1500.4" y="299.4"/>
      <point x="1500.4" y="309.8"/>
      <point x="1500.4" y="317.2" type="curve" smooth="yes"/>
      <point x="1500.4" y="472.0"/>
      <point x="1390.0" y="544.0"/>
      <point x="1172.6000000000001" y="544.0" type="curve" smooth="yes"/>
      <point x="1011.8" y="544.0"/>
      <point x="864.8" y="490.2"/>
      <point x="812.8000000000001" y="368.8" type="curve"/>
      <point x="777.8000000000001" y="478.8"/>
      <point x="673.1999999999999" y="544.0"/>
      <point x="455.0" y="544.0" type="curve" smooth="yes"/>
      <point x="166.8" y="544.0"/>
      <point x="65.0" y="440.2"/>
    </contour>
    <contour>
      <point x="142.0" y="268.8" type="curve" smooth="yes"/>
      <point x="142.0" y="405.0"/>
      <point x="218.8" y="494.2"/>
      <point x="454.79999999999995" y="494.2" type="curve" smooth="yes"/>
      <point x="691.0" y="494.2"/>
      <point x="767.6" y="405.0"/>
      <point x="767.6" y="268.8" type="curve" smooth="yes"/>
      <point x="767.6" y="123.6"/>
      <point x="676.2" y="39.8"/>
      <point x="454.79999999999995" y="39.8" type="curve" smooth="yes"/>
      <point x="233.4" y="39.8"/>
      <point x="142.0" y="123.6"/>
    </contour>
    <contour>
      <point x="849.6" y="313.59999999999997" type="curve"/>
      <point x="878.4" y="450.4"/>
      <point x="1040.4" y="493.40000000000003"/>
      <point x="1168.8" y="493.40000000000003" type="curve" smooth="yes"/>
      <point x="1341.3999999999999" y="493.40000000000003"/>
      <point x="1419.0" y="436.2"/>
      <point x="1422.0" y="330.6" type="curve"/>
      <point x="1372.0" y="327.8"/>
      <point x="1136.6" y="313.8"/>
    </contour>
  </outline>
</glyph>
<glyph name="uni0162" format="2">
  <advance width="881.6"/>
  <unicode hex="0162"/>
  <outline>
    <contour>
      <point x="296.6" y="-141.6" type="curve"/>
      <point x="289.0" y="-186.4" type="line"/>
      <point x="349.8" y="-209.6"/>
      <point x="402.2" y="-220.0"/>
      <point x="445.0" y="-220.0" type="curve" smooth="yes"/>
      <point x="546.0" y="-220.0"/>
      <point x="593.4" y="-174.0"/>
      <point x="593.4" y="-107.2" type="curve" smooth="yes"/>
      <point x="593.4" y="-58.99999999999999"/>
      <point x="551.8" y="-22.8"/>
      <point x="475.2" y="6.0" type="curve"/>
      <point x="412.2" y="2.0" type="line"/>
      <point x="472.4" y="-24.200000000000003"/>
      <point x="528.0" y="-52.0"/>
      <point x="528.0" y="-97.60000000000001" type="curve" smooth="yes"/>
      <point x="528.0" y="-144.8"/>
      <point x="494.00000000000006" y="-171.60000000000002"/>
      <point x="427.4" y="-171.60000000000002" type="curve" smooth="yes"/>
      <point x="392.2" y="-171.60000000000002"/>
      <point x="347.0" y="-161.79999999999998"/>
    </contour>
    <component base="T"/>
  </outline>
</glyph>
<glyph name="Tbar" format="2">
  <advance width="885.6"/>
  <unicode hex="0166"/>
  <outline>
    <contour>
      <point x="131.6" y="331.6" type="line"/>
      <point x="402.8" y="331.6" type="line"/>
      <point x="402.8" y="0.0" type="line"/>
      <point x="482.8" y="0.0" type="line"/>
      <point x="482.8" y="331.6" type="line"/>
      <point x="754.0" y="331.6" type="line"/>
      <point x="754.0" y="389.59999999999997" type="line"/>
      <point x="482.8" y="389.59999999999997" type="line"/>
      <point x="482.8" y="637.6" type="line"/>
      <point x="873.8" y="637.6" type="line"/>
      <point x="873.8" y="700.0" type="line"/>
      <point x="11.8" y="700.0" type="line"/>
      <point x="11.8" y="637.6" type="line"/>
      <point x="402.8" y="637.6" type="line"/>
      <point x="402.8" y="389.59999999999997" type="line"/>
      <point x="131.6" y="389.59999999999997" type="line"/>
    </contour>
  </outline>
</glyph>
<glyph name="tbar" format="2">
  <advance width="638.2"/>
  <unicode hex="0167"/>
  <outline>
    <contour>
      <point x="252.2" y="298.4" type="line"/>
      <point x="530.0" y="298.4" type="line"/>
      <point x="530.0" y="341.59999999999997" type="line"/>
      <point x="252.2" y="341.59999999999997" type="line"/>
      <point x="252.2" y="482.4" type="line"/>
      <point x="585.1999999999999" y="482.4" type="line"/>
      <point x="585.1999999999999" y="534.0" type="line"/>
      <point x="252.2" y="534.0" type="line"/>
      <point x="252.2" y="665.0" type="line"/>
      <point x="185.4" y="665.0" type="line"/>
      <point x="176.20000000000002" y="534.0" type="line"/>
      <point x="10.399999999999999" y="526.2" type="line"/>
      <point x="10.399999999999999" y="482.4" type="line"/>
      <point x="176.20000000000002" y="482.4" type="line"/>
      <point x="176.20000000000002" y="341.59999999999997" type="line"/>
      <point x="74.4" y="341.59999999999997" type="line"/>
      <point x="74.4" y="298.4" type="line"/>
      <point x="176.20000000000002" y="298.4" type="line"/>
      <point x="176.20000000000002" y="186.2" type="line" smooth="yes"/>
      <point x="176.20000000000002" y="44.2"/>
      <point x="255.60000000000002" y="-10.0"/>
      <point x="381.6" y="-10.0" type="curve" smooth="yes"/>
      <point x="448.40000000000003" y="-10.0"/>
      <point x="527.4" y="3.0"/>
      <point x="614.2" y="29.400000000000002" type="curve"/>
      <point x="602.6" y="85.6" type="line"/>
      <point x="540.4000000000001" y="64.6"/>
      <point x="474.59999999999997" y="50.0"/>
      <point x="406.0" y="50.0" type="curve" smooth="yes"/>
      <point x="298.6" y="50.0"/>
      <point x="252.2" y="95.6"/>
      <point x="252.2" y="186.2" type="curve" smooth="yes"/>
    </contour>
  </outline>
</glyph>
<glyph name="uogonek" format="2">
  <advance width="879.1999999999999"/>
  <unicode hex="0173"/>
  <outline>
    <contour>
      <point x="809.6" y="-213.4" type="curve" smooth="yes"/>
      <point x="835.0" y="-213.4"/>
      <point x="854.0" y="-211.0"/>
      <point x="869.0" y="-206.2" type="curve"/>
      <point x="867.8" y="-164.0" type="line"/>
      <point x="857.0" y="-166.60000000000002"/>
      <point x="845.2" y="-168.4"/>
      <point x="829.8" y="-168.4" type="curve" smooth="yes"/>
      <point x="790.4" y="-168.4"/>
      <point x="753.2" y="-154.0"/>
      <point x="753.2" y="-104.4" type="curve" smooth="yes"/>
      <point x="753.2" y="-47.0"/>
      <point x="808.6" y="-7.599999999999998"/>
      <point x="865.6" y="6.6000000000000005" type="curve"/>
      <point x="856.0" y="51.4" type="line"/>
      <point x="845.4" y="46.6"/>
      <point x="833.6" y="44.0"/>
      <point x="822.2" y="44.0" type="curve" smooth="yes"/>
      <point x="783.8" y="44.0"/>
      <point x="748.4" y="69.2"/>
      <point x="748.4" y="155.8" type="curve" smooth="yes"/>
      <point x="748.4" y="534.0" type="line"/>
      <point x="672.4" y="534.0" type="line"/>
      <point x="672.4" y="137.79999999999998" type="line"/>
      <point x="560.8000000000001" y="84.2"/>
      <point x="483.2" y="47.4"/>
      <point x="366.40000000000003" y="47.4" type="curve" smooth="yes"/>
      <point x="246.8" y="47.4"/>
      <point x="186.0" y="107.8"/>
      <point x="186.0" y="200.0" type="curve" smooth="yes"/>
      <point x="186.0" y="534.0" type="line"/>
      <point x="110.0" y="534.0" type="line"/>
      <point x="110.0" y="181.2" type="line" smooth="yes"/>
      <point x="110.0" y="67.8"/>
      <point x="189.20000000000002" y="-10.0"/>
      <point x="341.2" y="-10.0" type="curve" smooth="yes"/>
      <point x="473.0" y="-10.0"/>
      <point x="563.5999999999999" y="31.6"/>
      <point x="681.8000000000001" y="91.19999999999999" type="curve"/>
      <point x="695.8" y="18.6"/>
      <point x="741.4" y="-10.0"/>
      <point x="792.0" y="-10.0" type="curve" smooth="yes"/>
      <point x="804.0" y="-10.0"/>
      <point x="814.4" y="-7.2"/>
      <point x="826.2" y="-4.2" type="curve"/>
      <point x="827.2" y="13.399999999999999" type="line"/>
      <point x="756.4" y="-1.9999999999999973"/>
      <point x="693.6" y="-55.00000000000001"/>
      <point x="693.6" y="-121.2" type="curve" smooth="yes"/>
      <point x="693.6" y="-189.4"/>
      <point x="752.0" y="-213.4"/>
    </contour>
  </outline>
</glyph>
<glyph name="longs" format="2">
  <advance width="432.0"/>
  <unicode hex="017F"/>
  <outline>
    <contour>
      <point x="247.6" y="497.8" type="line"/>
      <point x="247.6" y="640.6"/>
      <point x="323.0" y="693.4"/>
      <point x="446.2" y="693.4" type="curve" smooth="yes"/>
      <point x="517.2" y="693.4"/>
      <point x="584.1999999999999" y="679.4"/>
      <point x="657.4000000000001" y="660.4" type="curve"/>
      <point x="667.8" y="714.6" type="line"/>
      <point x="579.6" y="738.5999999999999"/>
      <point x="509.6" y="750.8"/>
      <point x="431.2" y="750.8" type="curve" smooth="yes"/>
      <point x="277.2" y="750.8"/>
      <point x="171.6" y="685.2"/>
      <point x="171.6" y="499.20000000000005" type="curve" smooth="yes"/>
      <point x="171.6" y="484.0" type="line"/>
      <point x="38.8" y="476.0" type="line"/>
      <point x="38.8" y="432.2" type="line"/>
      <point x="171.6" y="432.2" type="line"/>
      <point x="171.6" y="0.0" type="line"/>
      <point x="247.6" y="0.0" type="line"/>
    </contour>
  </outline>
</glyph>
<glyph name="uni018F" format="2">
  <advance width="1105.0"/>
  <unicode hex="018F"/>
  <outline>
    <contour>
      <point x="90.6" y="601.0" type="line"/>
      <point x="192.6" y="622.8000000000001"/>
      <point x="371.0" y="652.8000000000001"/>
      <point x="553.8000000000001" y="652.8000000000001" type="curve" smooth="yes"/>
      <point x="776.0" y="652.8000000000001"/>
      <point x="938.1999999999999" y="566.4"/>
      <point x="938.2" y="390.8" type="curve" smooth="yes"/>
      <point x="938.2" y="375.0"/>
      <point x="936.6" y="360.6"/>
      <point x="935.0" y="346.4" type="curve"/>
      <point x="655.0" y="344.2"/>
      <point x="360.4" y="334.6"/>
      <point x="70.39999999999999" y="318.6" type="curve"/>
      <point x="70.0" y="310.2"/>
      <point x="70.0" y="294.2"/>
      <point x="70.0" y="282.6" type="curve" smooth="yes"/>
      <point x="70.0" y="83.0"/>
      <point x="212.20000000000002" y="-9.4"/>
      <point x="495.4" y="-9.4" type="curve" smooth="yes"/>
      <point x="818.2" y="-9.4"/>
      <point x="1024.1999999999998" y="132.2"/>
      <point x="1024.1999999999998" y="371.20000000000005" type="curve" smooth="yes"/>
      <point x="1024.1999999999998" y="595.1999999999999"/>
      <point x="832.2" y="710.0"/>
      <point x="558.6" y="710.0" type="curve" smooth="yes"/>
      <point x="359.6" y="710.0"/>
      <point x="192.4" y="681.4"/>
      <point x="78.8" y="656.6" type="curve"/>
    </contour>
    <contour>
      <point x="932.4" y="290.2" type="curve"/>
      <point x="903.0" y="136.79999999999998"/>
      <point x="739.8000000000001" y="47.0"/>
      <point x="500.2" y="47.0" type="curve" smooth="yes"/>
      <point x="261.6" y="47.0"/>
      <point x="157.8" y="122.8"/>
      <point x="155.0" y="268.8" type="curve"/>
      <point x="336.59999999999997" y="279.8"/>
      <point x="705.0" y="289.8"/>
    </contour>
  </outline>
</glyph>
<glyph name="florin" format="2">
  <advance width="1037.2"/>
  <unicode hex="0192"/>
  <outline>
    <contour>
      <point x="171.0" y="386.6" type="line"/>
      <point x="163.6" y="338.8" type="line"/>
      <point x="305.4" y="338.8" type="line"/>
      <point x="218.4" y="-210.0" type="line"/>
      <point x="292.2" y="-210.0" type="line"/>
      <point x="379.0" y="338.8" type="line"/>
      <point x="846.8000000000001" y="338.8" type="line"/>
      <point x="854.8" y="390.59999999999997" type="line"/>
      <point x="387.20000000000005" y="390.59999999999997" type="line"/>
      <point x="390.0" y="404.4" type="line" smooth="yes"/>
      <point x="414.8" y="556.5999999999999"/>
      <point x="536.8" y="652.4000000000001"/>
      <point x="706.2" y="652.4000000000001" type="curve" smooth="yes"/>
      <point x="773.2" y="652.4000000000001"/>
      <point x="850.0" y="642.0"/>
      <point x="921.6" y="623.8" type="curve"/>
      <point x="938.8000000000001" y="678.8000000000001" type="line"/>
      <point x="870.0" y="697.8"/>
      <point x="785.0" y="710.0"/>
      <point x="711.6" y="710.0" type="curve" smooth="yes"/>
      <point x="494.8" y="710.0"/>
      <point x="346.59999999999997" y="598.8"/>
      <point x="317.6" y="414.4" type="curve" smooth="yes"/>
      <point x="313.6" y="390.59999999999997" type="line"/>
    </contour>
  </outline>
</glyph>
<glyph name="uni0259" format="2">
  <advance width="857.8000000000001"/>
  <unicode hex="0259"/>
  <outline>
    <contour>
      <point x="61.199999999999996" y="243.2" type="curve"/>
      <point x="60.0" y="234.60000000000002"/>
      <point x="60.0" y="224.20000000000002"/>
      <point x="60.0" y="216.79999999999998" type="curve" smooth="yes"/>
      <point x="60.0" y="62.00000000000001"/>
      <point x="170.4" y="-10.0"/>
      <point x="387.8" y="-10.0" type="curve" smooth="yes"/>
      <point x="600.8" y="-10.0"/>
      <point x="792.8" y="77.8"/>
      <point x="792.8" y="284.0" type="curve" smooth="yes"/>
      <point x="792.8" y="456.4"/>
      <point x="645.6" y="544.0"/>
      <point x="434.79999999999995" y="544.0" type="curve" smooth="yes"/>
      <point x="277.8" y="544.0"/>
      <point x="145.6" y="521.4"/>
      <point x="65.6" y="504.0" type="curve"/>
      <point x="75.0" y="451.6" type="line"/>
      <point x="153.4" y="467.8"/>
      <point x="291.8" y="491.0"/>
      <point x="431.2" y="491.0" type="curve" smooth="yes"/>
      <point x="597.0" y="491.0"/>
      <point x="715.0" y="424.2"/>
      <point x="715.0" y="294.6" type="curve" smooth="yes"/>
      <point x="715.0" y="284.0"/>
      <point x="714.2" y="274.4"/>
      <point x="713.4" y="264.6" type="curve"/>
      <point x="391.8" y="263.6"/>
      <point x="135.4" y="246.6"/>
    </contour>
    <contour>
      <point x="710.8" y="220.4" type="curve"/>
      <point x="682.0" y="83.60000000000001"/>
      <point x="520.0" y="40.599999999999994"/>
      <point x="391.6" y="40.599999999999994" type="curve" smooth="yes"/>
      <point x="219.0" y="40.599999999999994"/>
      <point x="141.4" y="97.8"/>
      <point x="138.4" y="203.4" type="curve"/>
      <point x="188.4" y="206.2"/>
      <point x="423.2" y="220.0"/>
    </contour>
  </outline>
</glyph>
<glyph name="gravecomb" format="2">
  <unicode hex="0300"/>
  <anchor x="-544.4" y="742.0" name="top"/>
  <anchor x="-454.8" y="534.0" name="_top"/>
  <outline>
    <contour>
      <point x="-472.8" y="596.0" type="line"/>
      <point x="-403.79999999999995" y="596.0" type="line"/>
      <point x="-602.4" y="790.0" type="line"/>
      <point x="-685.2" y="790.0" type="line"/>
    </contour>
  </outline>
</glyph>
<glyph name="acutecomb" format="2">
  <unicode hex="0301"/>
  <anchor x="-358.40000000000003" y="742.0" name="top"/>
  <anchor x="-454.8" y="534.0" name="_top"/>
  <outline>
    <contour>
      <point x="-498.59999999999997" y="596.0" type="line"/>
      <point x="-431.6" y="596.0" type="line"/>
      <point x="-218.4" y="790.0" type="line"/>
      <point x="-300.0" y="790.0" type="line"/>
    </contour>
  </outline>
</glyph>
<glyph name="uni0302" format="2">
  <unicode hex="0302"/>
  <anchor x="-454.8" y="728.4" name="top"/>
  <anchor x="-454.8" y="534.0" name="_top"/>
  <anchor x="-246.4" y="660.1999999999999" name="top_viet"/>
  <outline>
    <contour>
      <point x="-696.8000000000001" y="596.0" type="line"/>
      <point x="-628.4" y="596.0" type="line"/>
      <point x="-455.0" y="749.0" type="line"/>
      <point x="-282.2" y="596.0" type="line"/>
      <point x="-213.0" y="596.0" type="line"/>
      <point x="-408.59999999999997" y="790.0" type="line"/>
      <point x="-498.4" y="790.0" type="line"/>
    </contour>
  </outline>
</glyph>
